<?xml version="1.0" encoding="utf-8"?>
<!-- Generator: Adobe Illustrator 20.0.0, SVG Export Plug-In . SVG Version: 6.00 Build 0)  -->
<svg xmlns:xlink="http://www.w3.org/1999/xlink" version="1.1" id="Layer_1" xmlns="http://www.w3.org/2000/svg" x="0px" y="0px"
	 viewBox="0 0 600 600" style="enable-background:new 0 0 600 600;" xml:space="preserve">
<style type="text/css">
	.st0{fill:#D5DBE7;}
	.st1{fill:#DDB4A4;}
	.st2{fill:#D4A290;}
	.st3{fill:#D3A493;}
	.st4{fill:#EFDDD7;}
	.st5{fill:#E2C2B8;}
	.st6{fill:#CD9480;}
	.st7{fill:#343844;}
	.st8{fill:#686F87;}
	.st9{fill:#717890;}
	.st10{fill:#CE9C89;}
	.st11{fill:#E8C5BB;}
	.st12{fill:#D9AC9B;}
	.st13{fill:#E0B1A2;}
	.st14{fill:#D5A592;}
	.st15{fill:#C9917B;}
	.st16{fill:#C7917E;}
	.st17{fill:#E0B8AA;}
	.st18{fill:#D7AB9C;}
	.st19{fill:#CE9681;}
	.st20{fill:#C88A74;}
	.st21{fill:#C48B72;}
	.st22{fill:#BF8067;}
	.st23{fill:#C9957E;}
	.st24{fill:#C38971;}
	.st25{fill:#E1BAAD;}
	.st26{fill:#D3A490;}
	.st27{fill:#D5A795;}
	.st28{fill:#D9BAB0;}
	.st29{fill:#DBBDB5;}
	.st30{fill:#D0A38F;}
	.st31{fill:#C99780;}
	.st32{fill:#D2A693;}
	.st33{fill:#CD9885;}
	.st34{fill:#E2BCAF;}
	.st35{fill:#DCB2A3;}
	.st36{fill:#F2E4DE;}
	.st37{fill:#BF8167;}
	.st38{fill:#BE6E6C;}
	.st39{fill:#A4524C;}
	.st40{fill:#986052;}
	.st41{fill:#8C453D;}
	.st42{fill:#823A31;}
	.st43{fill:#1F2228;}
	.st44{fill:#E0D2D1;}
	.st45{fill:#292C35;}
	.st46{fill:#7C797F;}
	.st47{fill:#767276;}
	.st48{fill:#706C6F;}
	.st49{fill:#414555;}
	.st50{fill:#45495B;}
	.st51{fill:#656C84;}
	.st52{fill:#3A3E4D;}
	.st53{fill:#4B4E5C;}
	.st54{fill:#0F1014;}
	.st55{fill:#C7A59C;}
	.st56{fill:#484C60;}
	.st57{fill:#4D5161;}
	.st58{fill:#E3E4E8;}
	.st59{fill:#3F4354;}
	.st60{fill:#CF9883;}
	.st61{fill:#CD9784;}
</style>
<g id="background">
	<rect y="0" class="st0" width="600" height="600"/>
</g>
<g>
	<path class="st1" d="M265,277.8c-0.9,4.9-2,21.3-0.5,26.2c3,10,4,24,7,34c3.7,12.4,1.8,20.6,7.5,32c6.4,12.9-1.4,26.1-0.8,40.2
		c0.2,6.1-2.3,9-6.6,13.3c-6.5,6.5-11.6,12.7-14.8,21.5c-4,11.1,4.2,26.7,4.9,38.3c3.4,11.6,18.1,19.5,24.9,29.4
		c5.6,8.2,26.6,60,34.8,62.3c4.7,1.3,17.5-0.9,30.3-3c12.7-2.1,25.4-4.3,30-3.1c27.2,7.1,23.4-99.9,23.6-121.8
		c0.1-11.2-0.2-22.6-0.2-33.9c-0.1-16.4,0.5-34.9-5.4-50.6c-2.9-7.6-8.3-15.9-16.2-18.7c-4.6-1.6-9-1.1-13.7-1.5
		c-7.5-0.7-14.6-4.2-21.8-6.2c-8.4-2.3-13.8-5.8-21.1-10.5c-11.3-7.3-23.1-13.5-34.2-21.3C285.7,299.7,265.5,284,265,277.8"/>
	<path class="st2" d="M380.5,350.4c-1.7,0.6-3.5,1-5.2,1.4c1.6-0.2,3-0.4,4.4-0.7C379.9,350.9,380.2,350.6,380.5,350.4 M273.5,303.8
		c8.1,17.7,16.9,34.7,18.2,50c0.2,2.8,0.3,5,0.2,6.7c11.5,11.1,24.1,22,32.3,31.6c5.4,6.4,12.1,11.9,18.4,17.3
		c1.9,1.6,6.7,8.6,10,8.6c0.2,0,0.3,0,0.5-0.1c0.6-0.2,1.2-0.7,1.7-1.4c1.2-3.2,2.3-6.4,3.7-9.6c0.2-0.5,0.4-1,0.6-1.5
		c0.4-1.3,0.9-2.6,1.4-3.9c1.9-5.7,3.2-11.5,6.1-16.7c0.7-1.3,1.2-2.6,1.7-4.1c0.5-3.4,0.9-6.9,2.3-9.8c-6.8-5.1-15.4-8.9-22.4-14.1
		c-2.1-1.6-4.8-3.3-7.6-5C316.2,344.2,283.8,319.4,273.5,303.8"/>
	<path class="st3" d="M362.7,530.7c-4.8,0-13.1,4.5-22.5,7c-2.9,0.8-5.2,1.1-7.2,1.1c-2.7,0-4.6-0.5-6.3-1.1
		c-1.7-0.5-3.3-1.1-5.2-1.1c-1.9,0-4.2,0.5-7.4,2.1c-12,6,1.8-0.5,35,19.5c0,0,3.3,2,6.6,2c2.5,0,5.1-1.1,6.4-5c3-9,14-16.5,16-20.5
		c0.2-0.4,0.3-0.6,0.2-0.6c-0.3,0-1.8,1.7-3.6,3.4c-1.8,1.7-4,3.4-5.5,3.4c-1.2,0-2.1-1.1-2.1-4.2
		C367.2,532.2,365.6,530.7,362.7,530.7"/>
	<path class="st3" d="M352.5,441.6c8.8,33.1,12.3,41.8,23.2,43.4c13,2,7.7,20.3-1.3,30.3c-2.6,2.9-1.8,4.4,0.6,4.4
		c2,0,5.2-1,8.5-3.2C390.3,477.1,364,454.5,352.5,441.6 M346.7,419.4c0.9,3.4,1.8,6.7,2.6,9.8c1.4-2.4,2.5-4.9,3.6-7.5
		C348.9,420.2,346.7,419.4,346.7,419.4"/>
	<path class="st3" d="M342.1,414c-0.2,0-0.5,0.1-0.9,0.4c-4,2.5-3.9,2.6-3.9,2.6c0,0,0,0,0,0s-6.2,4.6-13.3,4.6
		c-1.4,0-2.9-0.2-4.4-0.6c-2.7-0.9-5.4-1.2-7.4-1.2c-4.4,0-6.1,1.8-0.6,4.5c8,4,8.7,10.7,14,14c2.1,1.3,2.8,2.2,3.2,2.2
		c0.6,0,0.3-2.1,2.8-8.2C335.2,423.4,343.4,414,342.1,414"/>
	<path class="st4" d="M270.2,335.5c0.9,3.7,1.9,7.3,3.2,11c-0.4-2.7-1-5.5-1.9-8.5c-0.1-0.3-0.2-0.5-0.2-0.8
		C270.9,336.6,270.6,336.1,270.2,335.5"/>
	<path class="st2" d="M271.3,337.2c0.1,0.3,0.2,0.6,0.2,0.8c0.9,3.1,1.5,5.9,1.9,8.5c0.2,0.5,0.4,1,0.5,1.5
		c7,8.7,12.9,17.5,15.9,17.5c1.2,0,2-1.5,2.1-5.1C283.9,352.7,276.3,344.8,271.3,337.2"/>
	<path class="st5" d="M265.5,308c0.1,2,0.4,3.9,0.7,5.7c1.2,7.9,2.4,14.9,4,21.8c0.3,0.5,0.7,1.1,1,1.6
		C268.8,328.5,267.7,317.2,265.5,308"/>
	<path class="st6" d="M265.3,294.9c-0.1,4.6-0.1,9,0.2,13.1c2.2,9.2,3.3,20.6,5.7,29.2c5.1,7.6,12.6,15.5,20.7,23.3
		c0.1-1.7,0-3.9-0.2-6.7c-1.3-15.3-10.1-32.3-18.2-50c-0.3-0.4-0.6-0.9-0.8-1.3c-0.4-0.7-0.8-1.4-1.2-2.1c-1.7-1.3-3.4-2.6-4.9-4.1
		C266.2,295.8,265.7,295.4,265.3,294.9"/>
	<path class="st7" d="M208.6,377.4c4.6,3.2,4,10.8,6.1,16c2.7,6.8,7.2,12.7,10,19.5c5,12.1,7.9,26.5,15.2,37.6
		c9.2,14,26.8,22.1,39,33.3c4.5-30-21.8-22.8-31.4-34.8c-8.2-10.3-14.8-22.5-19.4-34.5C223.9,403.9,211.6,391,208.6,377.4"/>
	<path class="st8" d="M513.5,428c-10-3.5-81-27-94-37c-13-10-8.5-30-8.5-30s-8,38-7.8,72.8c7.9,39.7-2.8,89.1-27.7,121.4
		c-14.3,18.5-27,15.7-47.3,3.4c-17.3-10.5-21.5-8.5-30.7-25.6c-9.1-16.9-16.8-44.5-22-62.8c-4.3-15.2-16.6-27.2-22.7-41.9
		c-4.4-10.5-9.4-20.7-14.5-30.8c-6.2-12.4-12.8-29.8-22.5-40.5c-1-1.2-2-1.8-2.8-2.2l-2.5-13.7c0,0-29.5,42.5-51.5,54.5
		c-22,12-89,20.5-98,40c-0.3,0.6-0.5,1.2-0.7,1.8c-19,27.6-38,100.2-28.3,101.7c18.3,2.7,20.5-13,81.5-21.5
		c45.1-6.3,109.7,29.8,170,53.1c11.7,5.7,23,9.9,36.3,13.7c22.8,6.4,48.7,6,71.4-2.3c20.6-7.5,24.6-16.1,34.5-33.2
		c5.1-8.8,35.7-32.1,49.7-49.8c13.6-17.2,0.5-15.1,19-30C522.1,453.5,523,431.3,513.5,428"/>
	<path class="st9" d="M101.4,419.5c-0.3,0.1-0.5,0.2-0.8,0.3c-5.4,2.1-10.6,4.2-15.2,6.1c-0.4,0.3-0.8,0.6-1.1,0.7
		c0.3,0,0.5,0,0.8,0c27,0,27.9,44.6,31.7,63.4c9.1-17.3,10.7-49.9,28.5-60.7c-11-3.2-21.6-7.2-33-8.3
		C109.8,420.8,105.3,419.9,101.4,419.5"/>
	<path class="st9" d="M89.2,438.5c-3.8,5.9-12.1,21.4-13.7,33.9c-0.9,7.4,3.7,19.1,6.4,26c6.6-3.9,15-7.9,23.5-7.9
		c2.3,0,4.5,0.3,6.7,0.9c-7.4-6.6-10.5-16.4-14.1-25.4C94.9,458.2,94.7,443.8,89.2,438.5"/>
	<path d="M144.5,463.5c0.1-0.1,0.1-0.1,0.2-0.2c0,0,0.2-0.2,0.1-0.2c-0.1-0.1-0.2-0.3-0.3-0.4c-0.1-0.1-0.2-0.1-0.3-0.1
		c-0.1,0-0.3,0-0.4,0.1c-0.3,0-1.1,0.2-1.1,0.6c-0.4,3.2,3.6,8.6,4.9,11.6c2.2,4.9,4.2,9.9,6.1,15c3.7,10.1,6.5,20.5,9,31
		c0.1,0.4,1.9-0.2,1.8-0.6c-1.9-10-4.7-19.8-8.2-29.4c-1.6-4.5-3.4-9-5.4-13.3c-0.4-1-7.1-14.1-7.4-13.7
		C143.2,464,144.4,463.7,144.5,463.5"/>
	<path class="st1" d="M393,88.4c8.5,27.8,46.4,36,47.3,67.3c0.4,15.1-4.4,24.4-0.5,40.2c5,20.3,12.4,24.1,7.4,45.5
		c-3.6,15.4-5.4,33.1-12.3,50.8c-6.7,17-17.4,27.7-26.4,40c-8.5,11.8-33.9,24.4-51.3,19.8c-21-5.6-45.6-13-60.5-28.8
		c-4.8-5.1-9.4-9-14.2-14.2c-4.7-5.1-11.2-7.8-15.9-12.7c-17.8-18.4,1-39,11.2-56.3c19.2-32.7,15-74,30.5-107.7
		C321.2,104.3,367.5,89.1,393,88.4"/>
	<path class="st10" d="M320.3,188.9c-3.4,1.2-7.5,2-10.2,3c-2.4,0.9-5.4,1.9-7.6,1.9c-1.1,0-2-0.2-2.5-0.8c-0.5,1.3-1,2.5-1.5,3.8
		c-0.7,3.5-1.4,7.2-1.8,8.8c5.3-0.1,10.1-1.2,14.8-1.9c0.9-0.3,2.3-0.6,3.7-0.7c3.5-0.6,6.9-0.9,9.4-0.9c0.3,0,0.6,0,0.9,0
		c3.8,0.1,7,2.1,10,4.1c1.8-2.8,3.4-6.5,4.7-10.2c-2.5-1-4.8-2.3-7.3-3.5C328.2,191.2,324.1,189.9,320.3,188.9"/>
	<path class="st10" d="M422.8,179.2c-4.8,1.3-12.7,4.4-20.1,7.5c-4.3,2.4-8.4,4.6-10.9,5.2c-0.7,0.2-1.5,0.3-2.2,0.3
		c-2.4,1-4.1,1.7-4.9,1.9c-0.2,0-0.3,0.1-0.5,0.1c-0.6,0-1.1-0.4-1.4-1c-1,0.5-1.7,1.3-1.9,2.7c-0.6,4-4,10.9-3.7,14.6
		c0.1-0.6,0.3-1.2,0.5-1.8c1.9,1.4,3.9,2.4,5.9,3.1c1.5-0.7,3-1.8,4.6-3.1c2.2-2.7,6.7-9.4,11.7-11.4c0.6-0.2,1.2-0.4,1.8-0.6
		c1.8-1,3.8-1.5,5.9-1.5c0.6,0,1.3,0,1.9,0.1c0.7,0,1.4-0.1,2.1-0.1c1.9,0,3.8,0.2,5.5,0.6c0.8,0.2,1.7,0.5,2.6,0.9c0,0,0.1,0,0.1,0
		c5.4,0,10.4-0.7,13.4-4.7c-2-0.2-4.4-2.7-6.8-3.9c-3.7-2-7.6-3.7-10.1-5.4c0.5-1.2,3.4-1.8,6.9-1.8c1.6,0,3.3,0.1,5,0.5
		C426.6,180,425,179.3,422.8,179.2"/>
	<path class="st11" d="M310,187.4c-1.4,0-2.7,0.1-4.1,0.3c0,0-0.1,0-0.2,0c0.3,0,0.5,0,0.8,0c2.8,0,6,0.6,8.9,0.6c1,0,2,0,2.9,0.1
		C315.4,187.8,312.7,187.4,310,187.4"/>
	<path class="st12" d="M306.5,187.7c-0.3,0-0.5,0-0.8,0c-1.2,0.3-2.8,1.1-4.6,2.2c-0.4,1-0.8,2-1.2,3c0.6,0.6,1.4,0.8,2.5,0.8
		c2.2,0,5.3-1,7.6-1.9c2.7-1,6.8-1.8,10.2-3c-0.7-0.2-1.3-0.3-2-0.5c-0.9-0.1-1.9-0.1-2.9-0.1C312.5,188.3,309.3,187.7,306.5,187.7"
		/>
	<path class="st13" d="M428.2,181.2c2,1.5,3.9,3.8,6.9,6.8c-0.5,1.6-1.1,2.9-1.9,3.9c0.1,0,0.1,0,0.2,0c1,0,1.9-0.7,2.6-2.7
		C437.3,184.6,433.1,182.2,428.2,181.2"/>
	<path class="st12" d="M423.2,180.8c-3.5,0-6.4,0.7-6.9,1.8c2.5,1.7,6.4,3.4,10.1,5.4c2.4,1.2,4.8,3.8,6.8,3.9
		c0.8-1.1,1.5-2.4,1.9-3.9c-3-3-5-5.3-6.9-6.8C426.5,180.9,424.8,180.8,423.2,180.8"/>
	<path class="st14" d="M332.1,215.7c-1.5,0.4-3.1,0.8-4.6,1.2c-0.9,0.4-2.1,0.7-3.5,0.9c0.3,0.6,0.7,1.2,1.1,1.8
		C327.8,217.9,330.1,216.6,332.1,215.7 M340.8,194.5c-0.2,0.5-0.3,1-0.5,1.5c0.8,0.3,1.5,0.6,2.4,0.9c1.3,3.3,6.6,10.4,4,14
		c-1.1,1.6-2.4,2.2-3.7,2.2c-0.5,0-1.1-0.1-1.7-0.3c-1,0.4-2.1,0.8-3.4,1.3c0.4,0,0.7-0.1,1.1-0.1c12.3,0,5.2,25.7,2.8,40.7
		c0.3,1.4,0.7,3.5,1.3,5.8c0.5-0.5,0.9-1.1,1.3-1.6c1.3-1.5,2.3-2.8,2.9-3.8c0.7-1,1-1.6,1-1.6s-0.3,0.6-1,1.6
		c-0.6,1-1.6,2.4-2.8,3.9c-0.4,0.5-0.9,1.1-1.4,1.7c1,3.9,2.3,8.2,4.5,10.1c-1.2-1.6-2.4-4.2-2-7.3c1.1,2.6,2.4,5.8,4.7,5.8
		c0.2,0,0.4,0,0.6-0.1c-1.2-3.5-4.8-9.8-3.2-10.4c2.4-1,7.9-2.2,9.5-3.8c6.7-6.7,6.6-17.7,5-25.7c-2.9-14.6-5.1-24.1-9.6-32.5
		c-0.1,0-0.2,0-0.4,0c-0.1,0-0.2,0-0.4,0C348.1,196.1,346.1,195.8,340.8,194.5 M343.8,184.1c-0.1,0.3-0.2,0.7-0.3,1
		c0.4,0.1,0.9,0.1,1.3,0.2C344.5,184.9,344.1,184.5,343.8,184.1"/>
	<path class="st15" d="M340.2,195.9c-1.4,3.7-2.9,7.4-4.7,10.2c0.2,0.1,0.3,0.2,0.5,0.3c2.8,1.9,5.3,2.1,7,5.3
		c-0.4,0.3-1.1,0.6-1.8,0.9c0.6,0.2,1.1,0.3,1.7,0.3c1.4,0,2.6-0.6,3.7-2.2c2.6-3.6-2.7-10.7-4-14
		C341.8,196.5,341,196.2,340.2,195.9"/>
	<path class="st3" d="M377.2,210.5c-1.2,4.8-1.8,9.7-1.8,14.6c1.6,6,3.5,13.2,3.3,18.8c2.4,6.4,6.1,12.2,11.3,16.9
		c0-0.7,0-1.5-0.1-2.3c-0.7-0.9-1.1-1.5-1.1-1.5s0.4,0.5,1.1,1.3c-0.9-7.9-6.6-16.2-4.9-24.3c-2.8-20,13.7-14.3,19.7-20.6
		c-0.6,0-1.3,0-1.9,0c-2.1,0-4.3-0.1-6.8-0.6c-0.1,0-0.2,0-0.3-0.1c-1.2,0.1-2.5,0.1-3.7,0.1c-3,0-5.8-0.3-8.5-1.2
		c-0.3,0.1-0.5,0.2-0.8,0.3c-1.3,0.5-2.3,0.7-3.1,0.7C378,212.8,377.4,211.9,377.2,210.5"/>
	<path class="st16" d="M377.7,208.7c-0.2,0.6-0.3,1.2-0.5,1.8c0.1,1.4,0.8,2.3,2.4,2.3c0.8,0,1.8-0.2,3.1-0.7
		c0.3-0.1,0.5-0.2,0.8-0.3C381.6,211.1,379.6,210.1,377.7,208.7"/>
	<path class="st3" d="M390,260.7C390,260.7,390,260.8,390,260.7c0.1,0.3,0.2,0.4,0.2,0.4S390.2,261,390,260.7
		C390.1,260.8,390,260.7,390,260.7"/>
	<path class="st17" d="M365.4,198.4c-1.3,9-2.1,18-1.2,27.3c0.6,6.9-0.7,16.9,2.1,22.9c1.6,3.6,3.8,5.2,5.9,5.2
		c2.6,0,5.1-2.5,6.1-6.8c0.2-1,0.4-2.1,0.4-3.2c-2.2-5.9-3.3-12.3-3.3-18.8c-0.6-2.1-1.1-4.1-1.5-5.8
		C372.3,213.2,372.2,200.4,365.4,198.4"/>
	<path class="st18" d="M375.4,225c0,6.4,1.1,12.8,3.3,18.8C378.9,238.2,377.1,231,375.4,225"/>
	<path class="st14" d="M327.7,342.7c1.3,1.2,2.8,2.4,4.5,3.6c7.1,2.6,14.9,4.8,21.9,6c1.6,0.1,3.3,0.2,4.9,0.3
		c-0.3-0.1-0.6-0.2-0.9-0.3c-0.3-0.1-0.6-0.1-0.9-0.2C347.7,349.5,337.4,346.6,327.7,342.7 M276.1,303.6c0.5,0.5,1,1,1.4,1.5
		c3.2,3.6,5.3,8.7,8.1,10.9c11.7,9,19.3,17.8,32.3,24.3c3.9,1.9,8.7,3.9,13.8,5.8c-1.7-1-3.2-2.2-4.4-3.6
		c-11.6-4.7-22.5-10.8-30.5-19.3c-4.8-5.1-9.4-9-14.2-14.2C280.6,306.9,278.3,305.2,276.1,303.6"/>
	<path class="st19" d="M332.2,346.3c0.3,0.2,0.6,0.4,0.9,0.7c5.7,3.1,13.3,4.7,20.9,5.3C347.1,351,339.3,348.8,332.2,346.3
		 M272.2,301c0.4,1,0.9,1.9,1.3,2.8c10.3,15.5,42.7,40.3,67.1,48c-2.5-1.6-5.1-3.2-7.5-4.9c-0.5-0.3-1-0.6-1.5-0.9
		c-5.1-1.8-9.8-3.9-13.8-5.8c-13-6.5-20.6-15.3-32.3-24.3c-2.8-2.2-4.9-7.3-8.1-10.9c-0.5-0.5-0.9-1-1.4-1.5
		C274.8,302.7,273.5,301.9,272.2,301"/>
	<path class="st20" d="M271.5,300.4c0.4,0.7,0.8,1.4,1.2,2.1c0.3,0.4,0.5,0.9,0.8,1.3c-0.4-0.9-0.9-1.9-1.3-2.8
		C272,300.8,271.7,300.6,271.5,300.4"/>
	<path class="st14" d="M268.9,270.1c-0.8,0.7-1.6,1.4-2.4,2c-0.3,5.2-0.6,10.6-0.9,16c1.4,3.9,3.4,7.9,5.9,12.3
		c0.2,0.2,0.5,0.4,0.7,0.5c1.3,0.9,2.6,1.8,3.8,2.6c2.3,1.6,4.5,3.3,6.4,5.4c4.8,5.2,9.4,9.1,14.2,14.2c8,8.5,18.9,14.6,30.5,19.3
		c-0.6-0.6-1.1-1.2-1.5-1.9c0.6,0.7,1.2,1.4,2,2.1c9.8,3.9,20,6.8,29.5,9.3c0.3,0.1,0.6,0.2,0.9,0.2c-32-10.4-59.8-37.3-66.5-50
		c-3.7-6.9-5.4-13.1-11.1-18.9C276.3,278.9,272,274.9,268.9,270.1"/>
	<path class="st14" d="M356.8,323c0,0.1,0,0.1,0.1,0.2c0.1,0,0.3-0.1,0.4-0.1C357.1,323,356.9,323,356.8,323 M371.6,313.2
		c-1.1,0-2.3,0-3.5,0c-0.4,0-0.8,0-1.2,0c-1.3,0.2-2.6,0.3-3.9,0.3c-0.5,0-1.1,0-1.6,0c-0.5,0-1.1,0-1.6,0c-2.1,0-4.1,0.1-6.2,0.8
		c1.3,0.7,1.8,2.4,2.2,4.3c1.7-1,3.7-1.6,5.5-2.5l-0.7,2.4c5.7-1.1,11.1-2.4,16.4-2.4c3,0,5.9,0.4,8.9,1.5c0-0.6-0.3-1.4-1-2.3
		C380,313.6,375.9,313.2,371.6,313.2 M367.5,313.2l-5.2,0.1c0.7,0,1.5,0,2.2,0c0.8,0,1.7,0,2.5,0
		C367.1,313.3,367.3,313.2,367.5,313.2"/>
	<path class="st21" d="M327.2,342.5c1.3,1.4,2.8,2.5,4.4,3.6c0.2,0.1,0.4,0.1,0.6,0.2c-1.7-1.2-3.2-2.4-4.5-3.6
		C327.5,342.6,327.4,342.5,327.2,342.5"/>
	<path class="st22" d="M331.7,346.1c0.5,0.3,1,0.6,1.5,0.9c-0.3-0.2-0.6-0.4-0.9-0.7C332,346.2,331.8,346.1,331.7,346.1"/>
	<path class="st21" d="M325.7,340.6c0.5,0.7,1,1.3,1.5,1.9c0.2,0.1,0.3,0.1,0.5,0.2C326.9,342,326.3,341.3,325.7,340.6"/>
	<path class="st23" d="M373,367.4c-0.1,0.1-0.1,0.1-0.2,0.2c-0.9,1-1.6,2.1-2.2,3.3c0.2,0.1,0.3,0.2,0.5,0.3c0,0,0,0,0,0
		C371.6,369.9,372.2,368.7,373,367.4 M359,352.5c0.5,0.2,1.1,0.3,1.6,0.5c0,0,0,0-0.1,0c0.4,0,0.9,0.1,1.3,0.1c0.2,0,0.4,0,0.5,0
		c0.8,0,1.7,0,2.6-0.1c-1.8,0-3.6-0.2-5.3-0.4C359.4,352.5,359.2,352.5,359,352.5"/>
	<path class="st24" d="M386,350.3c-4.1,1.8-6.4,2.6-7.2,2.6c-0.7,0-0.3-0.6,0.9-1.8c-1.3,0.2-2.8,0.5-4.4,0.7
		c-3.4,0.8-6.8,1.2-10.1,1.2c-0.1,0-0.1,0-0.2,0c-1,0.1-1.8,0.1-2.6,0.1c-0.2,0-0.4,0-0.5,0c-0.4,0-0.8,0-1.3-0.1
		c-2,0.7-4.3,1.1-6.8,1.1c-3.9,0-8.3-0.8-13.1-2.3c2.8,1.8,5.4,3.4,7.6,5c7,5.2,15.6,8.9,22.4,14.1c0.5-1.2,1.2-2.2,2.2-3.3
		c0.1-0.1,0.1-0.1,0.2-0.2c0.4-0.6,0.8-1.2,1.2-1.8c0.9-1.1,2.5-2.7,4.6-4.6c1.6-3,3.5-6,5.9-9.1C385.1,351.4,385.6,350.8,386,350.3
		"/>
	<path class="st23" d="M375.3,351.8c-3.9,0.5-8.3,0.8-13,0.8c-0.9,0-1.8,0-2.7,0c1.7,0.3,3.5,0.4,5.3,0.4c0.1,0,0.1,0,0.2,0
		C368.5,353,371.9,352.5,375.3,351.8"/>
	<path class="st21" d="M354.1,352.2c2.2,0.4,4.4,0.7,6.4,0.8c0,0,0,0,0.1,0c-0.5-0.2-1.1-0.3-1.6-0.5
		C357.4,352.5,355.7,352.4,354.1,352.2"/>
	<path class="st22" d="M333.1,346.9c2.4,1.7,5,3.3,7.5,4.9c4.7,1.5,9.2,2.3,13.1,2.3c2.5,0,4.8-0.3,6.8-1.1c-2-0.1-4.2-0.4-6.4-0.8
		C346.4,351.6,338.9,350,333.1,346.9"/>
	<path class="st17" d="M355.8,318.6c-1.3,0.8-2.5,1.8-3.1,3.3c1,0.4,2.4,0.7,4.1,1.1C356.3,321.7,356.1,320.1,355.8,318.6
		 M385.9,317.7c-0.1,1.5-2.1,2.3-5.1,2.9c2.9,0.1,5.9,0.4,8.7,1.5c0.7-0.5,1.3-1,1.5-1.7C389.3,319.2,387.6,318.3,385.9,317.7"/>
	<path class="st12" d="M361.3,316.1c-1.8,0.9-3.8,1.5-5.5,2.5c0.3,1.5,0.5,3.1,1,4.4c0.1,0,0.3,0.1,0.4,0.1c3.5-0.8,6-1.2,5.2-2
		c1.1,0.1,2.3,0.2,3.4,0.2c2.3,0,4.6-0.2,7-0.4c2.3-0.2,4.7-0.4,7.1-0.4c0.3,0,0.6,0,0.9,0c3-0.5,5-1.4,5.1-2.9
		c-2.9-1.1-5.9-1.5-8.9-1.5c-5.3,0-10.7,1.3-16.4,2.4L361.3,316.1"/>
	<path class="st17" d="M298.1,232.7c-0.4,1-3.3,0.6-6.3,2.2c-2.4,4.9-4.9,10-7.6,14.8c-0.2,1.8-0.1,3.4,0.4,4.5
		c2.5,6.4,4.3,10.4,9.1,10.4c6.1,0,18.7-0.2,24-2.2c7.8-3,23.5-13,11.2-24.1c-5.2-4.7-11.9-5.1-18.5-5.1c-0.7,0-1.5,0-2.2,0
		c-0.7,0-1.5,0-2.2,0C303.2,233.2,300.6,233.2,298.1,232.7"/>
	<path class="st17" d="M422,227.4c-6.1,0-12.8,1.5-19.2,5.2c-2.5,1.4-13,8.2-5.7,20.9c2.9,5.1,9.4,4.3,14.7,4.3
		c5.6,0,11.3-2.2,16.5-3.8c10.4-3,23.6-14.7,10.8-23c-4.5-2.9-10.8-3.8-16.2-3.8"/>
	<path class="st17" d="M385,163.3c-10,0-20.2,1.4-30.2,1.6c-13.7,0.2-26.1-0.2-39,2.4c-0.1,0.3-0.2,0.6-0.3,0.9l0,0
		c-0.2,0.6-0.4,1.1-0.7,1.7c4.7,2.5,15,4.3,14.5,4.3c0,0-0.2,0-0.3,0c6.6,3.3,13.6,8.5,20.9,12c1.4,0.2,2.2,0.4,2.2,0.4
		c0,0.1,0.1,0.3,0.2,0.7c3.7,1.5,7.4,2.6,11.2,2.6c2.6,0,5.2-0.5,7.8-1.6c8.6-3.6,33.6-11.4,35.2-21.6
		C399.5,164.1,392.3,163.3,385,163.3"/>
	<path class="st25" d="M373.4,271.8l-7.7,2.3c-0.9,4.8-2.8,9.9-2.7,14.6c2,1.1,3.9,1.6,5.6,1.6c2.9,0,5.7-1.3,8.7-3
		C375.4,281.1,376.9,277.2,373.4,271.8"/>
	<path class="st26" d="M324.5,146.8c-1,0.8-1.9,1.6-3.4,2.3c-8.2,4.1-14.5,13-16,16c-2.3,4.5-1.4,8.1-1.3,15.3c0,0.6-0.1,1.3-0.2,2
		c0.9-0.5,1.8-1.1,2.7-1.8c2.7-2.2,5.3-5.8,7.6-11.2c-0.7-0.4-1.1-0.9-1.3-1.3c0.7-0.2,1.4-0.3,2-0.5
		C316.9,161.7,320.3,154.3,324.5,146.8"/>
	<path class="st27" d="M314.6,167.5c-0.7,0.1-1.4,0.3-2,0.5c0.2,0.5,0.7,0.9,1.3,1.3c0.2-0.5,0.4-1,0.6-1.5l0,0
		C314.6,167.7,314.6,167.6,314.6,167.5"/>
	<path class="st28" d="M313.9,169.3c-2.3,5.4-4.9,9-7.6,11.2c-0.9,0.8-1.8,1.4-2.7,1.8c0,0,0,0.1,0,0.1c1.1-0.4,2.1-0.8,2.9-1.1
		c0.1,0,0.3-0.1,0.5-0.1c2.8-2.3,5.5-6,7.8-11.4C314.5,169.7,314.2,169.5,313.9,169.3 M326.6,145c-0.8,0.6-1.5,1.2-2.2,1.8
		c-4.2,7.5-7.6,14.9-9.8,20.7c0.4-0.1,0.8-0.2,1.2-0.2C318.3,161,322,152.9,326.6,145"/>
	<path class="st29" d="M315.8,167.3c-0.4,0.1-0.8,0.2-1.2,0.2c0,0.1-0.1,0.2-0.1,0.3l0,0c-0.2,0.5-0.4,1-0.6,1.5
		c0.3,0.2,0.6,0.3,0.9,0.5c0.2-0.5,0.5-1.1,0.7-1.7l0,0C315.6,167.9,315.7,167.6,315.8,167.3"/>
	<path class="st30" d="M297.6,209.4c-0.9,0-1.7,0.3-2.5,0.9c-2,7.2-4.6,11.4-8.7,19.4c-6.5,12.8-11.7,27.3-19.2,37.5
		c0.5,1,1.1,1.9,1.7,2.8c5.7-5.1,10.4-12.3,14.6-20.1c0.3-3.9,1.9-8.5,3.3-10.8c1.3-2,2.8-3.3,4.3-4c3.9-7.8,7.8-15.2,12.1-20.7
		c-0.4-0.8-0.8-1.5-1.2-2c-1.3-0.9-2.6-1.7-4-2.2c0.2-0.3,0.5-0.5,0.8-0.8C298.4,209.5,298,209.4,297.6,209.4"/>
	<path class="st31" d="M267.2,267.3c-0.2,0.3-0.4,0.5-0.6,0.8c-0.1,1.3-0.1,2.7-0.2,4.1c0.8-0.6,1.7-1.3,2.4-2
		C268.3,269.2,267.7,268.3,267.2,267.3"/>
	<path class="st32" d="M291.1,235.3c-1.4,0.8-2.9,2-4.3,4c-1.4,2.3-3,6.9-3.3,10.8C286.1,245.2,288.6,240.2,291.1,235.3"/>
	<path class="st3" d="M384.1,260.7c-0.4,0-0.8,0-1.3,0.1c-5,1.1-7.9,6-13.4,6c-0.3,0-0.5,0-0.8,0c-3-0.3-5.9-2.2-9-2.5
		c-0.3,0-0.5,0-0.7,0c-3.4,0-4,2.7-7,4.3c-0.4,0.2-0.7,0.3-1.1,0.4c0.4,1.3,0.6,2.2,0,2.4c-0.4,0.1-0.7,0.1-1,0.1
		c-0.9,0-1.6-0.3-2.3-0.9c0.3,0.4,0.6,0.8,0.9,1.1c0.8,0.7,1.4,0.9,2.1,0.9c1.2,0,2.3-0.8,3.9-1.3c2.2-0.5,5-1.2,7.6-1.2
		c0.8,0,1.5,0.1,2.2,0.2c1.9,0.5,3.5,1.5,5.6,1.5c0.1,0,0.2,0,0.3,0c3.6,0,5.7-1.6,8.4-4c1.5-1.4,2.2-1.9,2.8-1.9
		c0.8,0,1.5,0.8,3.3,1.6c0.8,0.3,1.4,0.5,2,0.5c1.9,0,2.6-1.8,2.1-3.7C388.2,262.5,386.6,260.7,384.1,260.7"/>
	<path class="st33" d="M345.5,263.3c-0.4,3.1,0.8,5.8,2,7.3c0.7,0.6,1.5,0.9,2.3,0.9c0.3,0,0.7,0,1-0.1c0.6-0.2,0.5-1.1,0-2.4
		c-0.2,0-0.4,0.1-0.6,0.1C347.9,269.1,346.6,265.9,345.5,263.3"/>
	<path class="st17" d="M389.5,322.1c-2.8,1.8-8.6,2.5-14.9,2.5c-5.2,0-10.7-0.5-15-1.1c-0.8,0.3-1.5,0.6-2,1.1
		c-0.3-0.4-0.5-0.8-0.7-1.4c-6.6,1.5-16.1,4.4-12.4,13.3c1.6,3.9,6.6,5,12.3,5c6.9,0,14.8-1.6,18.8-2.1c7.7-0.9,33.3-5.6,17.5-15.5
		C391.8,323.1,390.7,322.5,389.5,322.1"/>
	<path class="st12" d="M357.2,323.1c-0.1,0-0.3,0.1-0.4,0.1c0.2,0.5,0.4,1,0.7,1.4c0.5-0.4,1.2-0.8,2-1.1
		C358.7,323.3,357.9,323.2,357.2,323.1"/>
	<path class="st34" d="M380.8,320.5c-6.1,1.1-16,1-21.3,2.9c4.3,0.7,9.8,1.1,15,1.1c6.3,0,12.1-0.7,14.9-2.5
		C386.6,321,383.7,320.6,380.8,320.5"/>
	<path class="st35" d="M379.9,320.5c-2.3,0-4.7,0.2-7.1,0.4c-2.3,0.2-4.7,0.4-7,0.4c-1.2,0-2.3,0-3.4-0.2c0.8,0.8-1.7,1.2-5.2,2
		c0.7,0.1,1.5,0.3,2.3,0.4c5.2-1.9,15.2-1.8,21.3-2.9C380.5,320.5,380.2,320.5,379.9,320.5"/>
	<path class="st36" d="M429.1,304.3c0,0-0.1,0-0.1,0c-3.7,6.3-7.9,11.7-12.1,17c3.8-4,7.4-8.2,10.5-12.8c0.6-1,1.2-2,1.7-3
		C429.3,304.7,429.3,304.3,429.1,304.3 M436.8,286.9c-0.1,0.2-0.1,0.4-0.2,0.5l0.1-0.2C436.7,287.2,436.8,287.1,436.8,286.9"/>
	<path class="st14" d="M388.9,347c-1.6,0.8-3.3,1.5-5,2.1c1.3-0.3,2.4-0.6,3.4-0.9c0,0.2-0.1,0.4-0.2,0.7
		C387.7,348.3,388.3,347.7,388.9,347"/>
	<path class="st19" d="M387.3,348.3c-1,0.2-2.1,0.5-3.4,0.9c-1.1,0.4-2.3,0.8-3.4,1.2c-0.3,0.3-0.6,0.5-0.8,0.8
		c3.2-0.6,5.8-1.3,7.4-2c0,0,0.1-0.1,0.1-0.1C387.2,348.7,387.3,348.5,387.3,348.3"/>
	<path class="st14" d="M437.6,283.8c-13.9,10.8-15.2,26.4-32.3,44.6c-8.8,9.4-20.2,17.9-24.8,22c1.2-0.4,2.3-0.8,3.4-1.2
		c1.7-0.6,3.4-1.4,5-2.1c5.7-6.1,12-10.7,18.4-16.4c3.3-3,6.5-6.1,9.6-9.2c4.2-5.3,8.4-10.8,12.1-17c-0.1,0-0.3,0.1-0.5,0.3
		l8.1-17.1c0.1-0.2,0.1-0.4,0.2-0.5C437.1,285.9,437.3,284.9,437.6,283.8"/>
	<path class="st37" d="M387,349.1c-1.6,0.7-4.1,1.5-7.4,2c-1.2,1.1-1.6,1.8-0.9,1.8c0.8,0,3.1-0.8,7.2-2.6
		C386.3,349.9,386.7,349.5,387,349.1"/>
	<path class="st36" d="M445.9,247.9c-0.1,0.1-0.1,0.2-0.2,0.2c-0.2,1.1-0.4,2.2-0.6,3.3C445.4,250.2,445.7,249.1,445.9,247.9"/>
	<path class="st14" d="M445.7,248.1c-3.1,3.9-10.6,13.2-14.2,19.9c-6.3,11.7-7.3,18-4.7,18c1.5,0,4.2-2.1,7.7-6.5
		c3.2-4,5.1-7.3,6.3-10.4c0.2-1,0.5-2.1,0.7-3.2c1-4.5,2.4-9.5,3.6-14.5C445.3,250.3,445.5,249.2,445.7,248.1"/>
	<path class="st38" d="M403.5,298.4c-2.3,3.8-15.6,11.9-17.5,12.3c-8.9,2.2-18.7,1.7-27.8,1.3c-4.9-0.2-9.4-1.9-13-4.8
		c-1.5-1.2-11.4-6.4-11.3-7.2c0-0.2,2.1,0.6,4.4,1.5c2.5,0.9,5.2,1.8,6.3,1.4c1.7-0.6,4.5-0.6,7.2-0.6c2,0,4.1,0,5.6-0.2
		c4.4-0.7,7.6-0.6,12.2-0.4c4.9,0.2,10.1,0.1,15-0.3C387.9,301,397.9,297.6,403.5,298.4"/>
	<path class="st39" d="M359.2,293.2c3.3-1.8,6.4,0.7,10.5,1c3.7,0.3,6.3-1.2,9.9-1.7c4.8-0.7,7.9,0.6,11.2,2c3.5,1.4,7.2,2.8,13.6,2
		c-5.5,3.4-11.6,3.2-17.3,3.9c-4.7,0.5-7.5,1.2-11.5,1.8c-0.8,0.1-3.2-0.3-5.9-0.6c-2.8-0.4-5.8-0.7-7.4-0.6
		c-6.8,0.6-21,2.1-28.4-1.8C341.3,298.1,354.9,295.6,359.2,293.2"/>
	<path class="st40" d="M363.2,301c-0.3,0-0.6,0-0.9,0c-3.3,0.3-8.3,0.8-13.4,0.8c-2.3,0-4.7-0.1-6.9-0.4c-0.1,0-0.3,0.1-0.4,0.1
		c0.7,0.6,1.9,1,3.3,1.3c1.4-0.4,3.3-0.5,5.3-0.5c0.5,0,1.1,0,1.6,0c0.5,0,1.1,0,1.6,0c1.5,0,2.9,0,4-0.2c2.6-0.4,4.8-0.5,7.1-0.5
		c1.6,0,3.2,0.1,5.1,0.1c0.4,0,0.8,0,1.3,0c-0.4-0.1-0.8-0.1-1.1-0.2C367.4,301.3,364.9,301,363.2,301 M390.6,300
		c-1.2,0.1-2.4,0.2-3.5,0.4c-3.5,0.4-6,0.9-8.7,1.3c2.1-0.1,4.2-0.2,6.2-0.3C385.8,301.2,388.1,300.7,390.6,300"/>
	<path class="st41" d="M391.2,300c-0.2,0-0.4,0-0.6,0.1c-2.6,0.6-4.8,1.2-6,1.4c-2,0.2-4.1,0.3-6.2,0.3c-0.9,0.2-1.8,0.3-2.8,0.5
		c-0.1,0-0.2,0-0.3,0c-0.9,0-2.5-0.2-4.4-0.5c-0.4,0-0.8,0-1.3,0c-1.9-0.1-3.5-0.1-5.1-0.1c-2.3,0-4.5,0.1-7.1,0.5
		c-1.1,0.2-2.5,0.2-4,0.2c-0.5,0-1,0-1.6,0c-0.5,0-1.1,0-1.6,0c-2,0-4,0.1-5.3,0.5c1.4,0.2,3,0.3,4.3,0.3c1,0,1.9-0.1,2.6-0.1
		c0.1,0,0.3,0,0.5,0c0.8,0,2,0.1,3,0.2c1.1,0.1,2.1,0.2,2.7,0.2c0.6,0,0.7-0.1,0-0.4c4.1,0.4,9.6,2.1,14.5,2.2c0.2,0,0.3,0,0.5,0
		c7.1,0,15.7-4,18-5.1C391.1,300.1,391.2,300,391.2,300 M398.9,298.8c-1.2,0.3-2.3,0.5-3.5,0.7c0.3,0,0.6,0,0.9,0
		c1.1,0,2.1-0.1,3.1-0.4C399.2,299,399.1,298.9,398.9,298.8"/>
	<path class="st42" d="M384.7,298.2c-0.5,0-1,0-1.6,0.1c-1.9,0.3-4.1,1.5-6.1,1.5c-0.1,0-0.1,0-0.2,0c-1.4,0-3,0.4-5.1,0.4
		c-1,0-2.2-0.1-3.5-0.4c-2.5-0.5-4.2-1.1-6.2-1.1c-1.1,0-2.2,0.2-3.6,0.6c-4.5,1.5-11.9,1.2-16.4,2.1c2.2,0.3,4.6,0.4,6.9,0.4
		c5.1,0,10.1-0.5,13.4-0.8c0.3,0,0.6,0,0.9,0c1.7,0,4.2,0.3,6.5,0.6c0.4,0.1,0.8,0.1,1.1,0.2c1.9,0.3,3.5,0.5,4.4,0.5
		c0.1,0,0.3,0,0.3,0c1-0.1,1.9-0.3,2.8-0.5c2.7-0.5,5.2-1,8.7-1.3c1.2-0.1,2.3-0.2,3.5-0.4c0.2,0,0.4,0,0.6-0.1
		c1-0.4,2.1-0.5,3.2-0.5c0.3,0,0.6,0,0.9,0c0,0,0,0,0,0c1.2-0.2,2.3-0.4,3.5-0.7c-0.8-0.3-1.8-0.4-2.9-0.4c-1,0-2.1,0.1-3.2,0.2
		c-1.1,0.1-2.1,0.2-3,0.2c-0.4,0-0.7,0-1,0C387.2,298.5,386.1,298.2,384.7,298.2"/>
	<path d="M354.5,294.8c0,0-0.3,0.1-0.7,0.3c-0.5,0.2-1.1,0.4-2,0.7c-0.4,0.1-0.9,0.2-1.3,0.3c-0.5,0.1-1,0.2-1.5,0.2
		c-1.1,0.1-2.2,0.4-3.3,0.7c-1.1,0.4-2.2,0.6-3.2,0.9c-1,0.2-2,0.4-2.9,0.5c-0.8,0.1-1.6,0.2-2.1,0.2s-0.8,0-0.8,0v-0.1
		c0,0,0.3-0.1,0.8-0.2s1.2-0.3,2-0.5s1.8-0.4,2.8-0.6c1.1-0.2,2.2-0.4,3.3-0.5c1.1-0.1,2.2-0.4,3.3-0.7c0.5-0.2,1-0.4,1.5-0.5
		s0.9-0.2,1.3-0.3c0.8-0.2,1.5-0.3,2-0.4C354.2,294.7,354.4,294.7,354.5,294.8z"/>
	<path d="M335.7,303.8c0,0,0.6-0.1,1.6,0c0.5,0,1.1,0.1,1.9,0.2c0.7,0.1,1.5,0.3,2.4,0.6c0.9,0.3,1.8,0.6,2.7,1.1
		c0.9,0.4,1.9,1,2.8,1.6s1.9,1.1,2.9,1.5c1.1,0.4,2.2,0.7,3.3,1c2.3,0.6,4.6,1,6.8,1.3c2.2,0.3,4.2,0.5,6,0.6s3.2,0.2,4.3,0.2
		c0.5,0,0.9,0,1.2,0c0.1,0,0.2,0,0.3-0.1c0-0.1,0-0.1,0-0.1s0.1,0,0,0.1c0,0.1-0.2,0.1-0.3,0.1c-0.3,0.1-0.7,0.2-1.2,0.2
		c-1,0.1-2.5,0.2-4.3,0.2c-0.9,0-1.9,0-2.9-0.1s-2.1-0.2-3.2-0.3c-2.2-0.3-4.6-0.7-6.9-1.3c-1.2-0.3-2.3-0.6-3.4-1.1
		c-1.1-0.4-2.2-1-3.1-1.6s-1.8-1.2-2.6-1.7c-0.9-0.5-1.7-0.9-2.6-1.2c-1.6-0.6-3.1-1-4.1-1.1C336.3,303.8,335.7,303.8,335.7,303.8z"
		/>
	<path class="st43" d="M365.9,326.8c0,0,0.9-0.5,2.4-1.1c0.7-0.3,1.6-0.6,2.5-0.9c0.5-0.1,1-0.2,1.5-0.3c0.5-0.1,1-0.2,1.5-0.3
		c0.5-0.1,1.1-0.1,1.6-0.1s1,0,1.5,0c0.5,0.1,1,0.1,1.4,0.2s0.9,0.2,1.2,0.3c0.4,0.1,0.7,0.3,1,0.4s0.5,0.3,0.7,0.4
		c0.4,0.2,0.6,0.4,0.6,0.4s-0.2-0.1-0.7-0.3c-0.2-0.1-0.4-0.2-0.8-0.3c-0.3-0.1-0.6-0.2-1-0.3c-0.4-0.1-0.8-0.1-1.2-0.2
		c-0.4-0.1-0.9-0.1-1.4-0.1s-1,0-1.5,0s-1,0.1-1.5,0.1c-0.5,0.1-1,0.1-1.5,0.2s-1,0.2-1.5,0.3c-0.9,0.2-1.8,0.5-2.6,0.7
		C366.9,326.4,365.9,326.8,365.9,326.8z"/>
	<path class="st43" d="M361.2,266.1c2.2,0.4,3.4,2.6,3.6,4.9c-1.8,0-7.3-0.5-8.9-1.3c-4-2,4-3.9,2.4-4.2"/>
	<path class="st43" d="M382,264.8c-1.9-0.4-3.7,2.3-4.2,4.2c2.2,0.8,6.1,0.3,8.2-1c-0.8-1.2-2.7-2.6-4.8-3.1"/>
	<path class="st44" d="M343,211.8c-1.7-3.2-4.2-3.4-7-5.3c-3.1-2.1-6.5-4.3-10.5-4.4c-6.9-0.2-21.7,2.1-27.5,8.3
		c3.7,1.3,7.2,5,11.2,6.5c3.4,1.3,7.8,2.2,11.5,1.5C325.8,217.4,339.5,214.1,343,211.8"/>
	<path class="st44" d="M386.9,209.8c0.9,0.3,6.6-10,12.9-12.5c4.9-1.9,12.1-2.7,17.2-1.5c3.2,0.8,7.2,2.8,9.5,5.3
		c3.1,3.4-11.5,11.8-15.3,12c-5.2,0.2-9.2,0.8-15.2-0.2c-2.1-0.4-5-1.4-7.1-0.6C387.9,211.4,388.1,210.2,386.9,209.8"/>
	<path class="st7" d="M310.2,205.4c-1.1,3.4-1.5,8.3,1.5,11.1c2.7,2.6,14.5,1.8,16.8-0.2c2.2-2,0.1-1.6,1.5-6.3
		c1.2-4.2,0.3-6.9-7.5-7.2C319.4,202.6,308.7,202.9,310.2,205.4"/>
	<path class="st7" d="M397.4,200.8c-0.9,1.7,0.7,7.9,2.3,9.4c3.7,3.2,8.7,3,11.1,2.3c4.4-1.2,5.9-1.6,6.8-7.1c0.6-3.7-0.9-7-4.9-7.6
		c-1.2-0.2-2.6-0.2-4-0.1c-2.3,0-4.7,0.1-6.3-0.8C400.6,195.9,397.6,200.1,397.4,200.8"/>
	<path class="st45" d="M311.3,205.5c3.8,0.3,5.2,4.9,9,5.7c2.4,0.4,8.2-2.3,10.4-3.8c-2.7-4.1-3.4-4.1-8.2-4.9
		c-1.9-0.3-4.2-1.2-6.1-0.9C314.9,201.8,312.4,203.8,311.3,205.5z"/>
	<path class="st45" d="M397.1,204.9c1.8-0.1,3.4,0.6,4.9,1.2c2.1,0.9,4.2,1.8,6.6,0.7c1.4-0.6,2.9-2.2,4.4-2.9
		c1.7-0.8,3.7,0,4.2-2.6C418.4,195,398.1,190.1,397.1,204.9"/>
	<path class="st43" d="M401.4,200.6c-0.7,3.6,1.5,9.7,6.6,5.7c6.3-5,1.3-8.8-4.8-8.6L401.4,200.6"/>
	<path class="st44" d="M329.2,207.9c-2.8-0.7-5.5-0.7-8.1,0.4c-0.9,4.1,9.7,9.3,8.3,0.8"/>
	<path class="st46" d="M316.2,211.8c-3,3.2,3,3.9,5.6,4c1.7-2.8-0.1-3.9-2.3-3.9c-1,0-2,0.2-2.9,0.6L316.2,211.8"/>
	<path class="st44" d="M415.7,201.7c-13.2-0.6,2.2,11,1.4,1"/>
	<path class="st46" d="M408.3,206.9c-0.7,0.3-1.4,0.4-2,0.4c-0.1,0-0.2,0.1-0.3,0.1c-0.4,0.4-0.8,1-1,1.8c1.5,0.8,3.5,1.3,5.1,1.6
		c-0.2-1.8-0.9-2.6-1.5-2.6c-0.2,0-0.4,0.1-0.6,0.3l1-1.4C408.8,207,408.6,207,408.3,206.9"/>
	<path class="st47" d="M407.7,206.9c-0.2,0-0.4,0-0.6,0.1c-0.3,0.2-0.5,0.3-0.8,0.4c0.6,0,1.3-0.1,2-0.4
		C408.1,206.9,407.9,206.9,407.7,206.9"/>
	<path class="st48" d="M407.1,206.9c-0.4,0.1-0.8,0.2-1.1,0.5c0.1,0,0.2-0.1,0.3-0.1C406.6,207.2,406.8,207.1,407.1,206.9"/>
	<path class="st43" d="M316.3,204.5c-3.8,8.1,4.3,9.9,7,3.9c0.9-1.9,0.8-4.2-1-5.6c-2.5-1.8-4.6-0.1-7,0.9"/>
	<path class="st49" d="M383.1,184.1c0,0-2.5,11,1.5,10c4-1,35-15.5,41.5-15.5c6.5,0,9-2.5,16.5,1c7.5,3.5-1.1-4.2-1.1-4.2l-14.1-4.5
		L383.1,184.1"/>
	<path class="st49" d="M352.1,186.5c0,0.5,4.2,10.7-0.3,10.1c-4.7-0.6-6.7-1-16.5-3.5c-12.2-3.2-20.7-6.9-29.4-5.4
		c-4.2,0.8-14.5,9.7-17,11c-2.5,1.3-0.7-9.3,0.3-9.9c1-0.6,12.1-5.6,17.3-7.4C311.9,179.6,352.1,186.5,352.1,186.5"/>
	<path class="st49" d="M393.7,106.3c0,0,23,20.3,33.6,43.2c9.9,21.3,9.8,35.5,13.2,41.5c3.4,6,11,7.5,7,15.5c-4,8,1,2,1,2
		s13-12,6.5-26.5c-6.5-14.5,1-26.5-5-41.5c-6-15-53.3-41.5-57.3-51.5L393.7,106.3"/>
	<path class="st7" d="M411.6,394.4c0,0-24.5,13.8-20.7,47.8c3.8,34,6.3,71.6,24.5,98.7c0,0-6.3-15.1-3.1-34.6
		c3.1-19.5,19.5-59.1,17-79.2L411.6,394.4"/>
	<path class="st49" d="M387.1,57.3c7.9,8.6,11.4,13.7,11.2,25.5c-0.2,8.4,5.5,11.6-6.2,25.6c-6.9,8.3-19.5,22-42,27.7
		c-25.3,6.3-23,10-29,13c-8.2,4.1-14.5,13-16,16c-2.3,4.5-1.4,8.1-1.3,15.3c0,5.6-5.8,15.5-6.9,21.7c-2.2,13.1-5.1,17.1-10.5,27.7
		c-9.7,19.1-16.4,41.7-32.2,48.9c-5.2,6.9-13.7,11.4-19.9,17.4c-11.5,11.1-26.5,29-42.8,31.9c-1.1,0.2-2-0.5-2.9-1.1
		c-0.8-0.6-1.6-1.3-2.5-1.2c-1.3,0.1-2.7,2-4.2,2.2c-2.5,0.4-12.4,5.8-14.1,4c-4.4-4.4-6.5-15.4-7.2-22.2c-1-8.7-2.3-20-2.2-28.8
		c0.2-10.8,1.1-21.6,2.7-32.3c2.4-16.2,5.7-29.6,8.6-42.9c3.3-15.2,4.3-28.8,9-43.7c4.8-15.2,13.3-36.8,20.5-51
		c4.9-9.7,4.3-11.2,10.8-19.9c5.8-7.7,11-15.6,17.9-22.3C256.5,41,288,32.6,327.1,32.9c18.1,0.1,48.6,8.2,60.7,23.4
		c-0.6-0.7,0.4-0.1,0.9,0.5C389.3,57.4,389.3,57.9,387.1,57.3"/>
	<path class="st49" d="M266.9,259.3c-0.1,16.7-3.1,39.6-0.7,54.4c2.4,15.2,4.3,27.3,10.6,41.3c9,20.2,32.9,51.7,28.9,86.7
		c-1.7,50.3-11.5,74.3,6,111c0,0-45.5-34.1-48-77.3c-1.7-28.3-65.3-43.3-61-92.7c2.7-30.3-15.8-57.2-22.6-71.5L266.9,259.3"/>
	<path class="st7" d="M441.8,388.2c0,0-1.2,62.2,46,70.2c0,0-31.3,16.8-61.8-17.2L441.8,388.2"/>
	<path class="st49" d="M377.8,534.3c42-27,21-114.8,27.5-122.5c9.1,13,3.2,76.2,58.7,80.2c-34.5-23-37.2-40.7-24-85.9
		c5.3-18.2,0-19.8,5.2-35.4c8-24.3,10-51.6,13.8-76.9c3.4-22.3,8.5-43.4,7.4-66.1c-1.3-26.9-0.4-46.6-4-73.1
		c-2.8-20.3-4.9-38.1-12.8-54.9c-11-23.3-40.6-52.9-66.3-46.7c5,5.3-0.9,27,4,35.8c4,7.1,9.5,11.8,14.2,18.4
		c10.6,14.8,38.7,28,39.6,47.3c0.5,11.1-2.9,26.6-2.7,37.9c0.2,13.5,9,22.4,9.9,35.8c0.7,11.5-4.2,26.1-6.8,37.7
		c-5.7,26-5.1,28.4-18.5,49.8c-5.8,9.4-6.5,8.6-16.9,21.4c-4.8,5.9-27.6,22.9-31.9,28.5c-5,6.6-4.6,14-7.6,19.2
		c-3.8,6.8-4.9,14.8-8.1,22.1c-3.5,8.3-5.7,17-10.5,24.4c-6.9,10.5,55.7,36.9,30.7,102.4L377.8,534.3"/>
	<path class="st7" d="M442.3,149.1c7.1,13.8,5.7,30,8.9,44.8c2.8,13.1,3.3,29.8,1,42.9c-1.6-2.1-1.2-5.8-2.1-8.3
		c-0.8-2.3-1.6-4.6-2.3-7c-1.5-4.9-4.1-9.5-5.9-14.4c-4.6-12.9-0.6-26.1-1.3-39.2C440.3,161.7,440.6,153.3,442.3,149.1"/>
	<path class="st7" d="M431.6,301.3c-3.5,11.1-7.8,21.6-12.3,32.3c-5.7,13.6-13.8,25.7-21,38.6c-11.3,20.3-27.6,40.5-46,54.6
		c2.6-8.1,7.3-15.6,10.8-23.4c4.1-9.4,7.5-19.5,10.5-29.3c2.7-8.7,5.5-15,11.1-22.2c6.8-8.7,14.6-14.1,22.6-21.3
		C416.7,322,425.6,313.2,431.6,301.3"/>
	<path class="st49" d="M268.2,266.2c1.1,12.5-1,23.5-1,36.1c0,11.8,0.4,22.9,3.9,34.4c3.2,10.6,8.5,21.9,13.7,31.7
		c3.9,7.5,12.2,21.6,15.3,29.3c-7.3-3.2-16.6-16.1-21.5-23c-6.6-9.2-10.9-19.3-14.5-30.2c-4.6-13.9-8.9-28.3-7.8-42.7
		c0.6-7.7,1.3-11.2,2.1-19.4C263.2,269.8,268.4,265.9,268.2,266.2z"/>
	<path class="st49" d="M206,396c0,0-29,36-1,65c29,30,32,44.3,15.3,63c0,0,29.3-30.7,23.3-44.7c-6-14-18-67.3,7.3-70.7L206,396"/>
	<path class="st7" d="M190.4,211.5c0.1-0.9,2.1-3,2.4-3.8c-2.2,2.8-1.6,11.2-2.1,15c-0.8,5.8-3.9,13-4.1,18.8
		c-0.6,13.5-1,26.8-0.6,40.3c0.2,8.9,1.5,18.9,3.4,27.6c0.6,2.7,1.7,5.4,2,8.2c0.2,2.1,15.2,54.6,16.1,56.4
		c-5.1,2.5,17.5,17.5-35.5,73c-20,15-55,48-46,60c7.7,10.3-7.1,3.3-5.5-22.5c1.8-28.9,53.8-69.2,48.5-77.8
		c-8.5-7.8-41.5,2.7-68.4,13.1c-20.7,8-37.8,16-37.6,15.7c9.9-9.9,30.8-18.7,65.5-39.5c18.5-14,41.5-14.5,32.3-83.6
		c-1.7-13-0.7-24.8,2.3-37.6c4.6-19.5,14.2-36.7,20.9-55.4c1.7-4.6,2.3-11,5.3-15c1.3-1.8,3.4-2.7,4.6-5c-1.1,3.5-3.8,9.6-3.1,13
		C191.1,212.2,191.3,211.8,190.4,211.5"/>
	<path class="st50" d="M420.1,106.5c-2.8,0-5.5,0.6-8.1,1.8c11.8,15.4,31.9,15.6,36.7,37.8c4.3,20.2,3.3,42.8,5.3,63.7
		c2.5-11.8,1.4-25.5,0.2-37.5c2.5,6.6,3.8,14.5,9.3,19.1c-0.5-3.3-1.7-6.8-2.7-10.2c0.8,0.9,1.5,1.6,2.2,2.4
		c3.5-8.6-2.7-18.4-3-27.2c-0.3-8.4,2-14.7-2.4-23.1C451.2,121.2,434.5,106.5,420.1,106.5"/>
	<path class="st50" d="M399.7,383.7l-17,24.7c7.6-6.6,12.7-14.8,17.4-23.2C400,384.7,399.8,384.2,399.7,383.7 M406.2,374.3l-3.4,4.9
		c0,0.4,0,0.8,0,1.2C403.9,378.4,405,376.3,406.2,374.3 M416.8,358.9c-4.2,4.7-7.5,10-10.6,15.4L416.8,358.9"/>
	<path class="st51" d="M168.9,406.6c-0.9,1.2-1.8,2.4-2.9,3.4c0,0,0.9,0.9,2.4,1.7c1.1-2.1,1.3-3.8,0.6-5
		C169,406.7,168.9,406.6,168.9,406.6"/>
	<path class="st52" d="M175,338c0,0,8.9,47.3-6.1,68.6c0,0,0.1,0.1,0.1,0.1c0.7,1.1,0.4,2.8-0.6,5c0.9,0.5,1.9,0.8,3.1,0.8
		c6,0,14-10.4,6.6-73.5L175,338"/>
	<path d="M393.3,108.3c0,0-0.5,0.6-1.5,1.7s-2.4,2.7-4.2,4.7c-1.8,2-4.1,4.5-7,7s-6.4,5.1-10.5,7.4c-4.1,2.3-8.9,4.3-13.9,6
		c-2.5,0.9-5.2,1.7-7.9,2.5c-2.7,0.7-5.5,1.4-8.3,2.2c-5.5,1.6-11.2,3.6-16.3,6.7c-2.6,1.5-5,3.3-7.2,5.4s-4.2,4.4-5.8,7
		c-3.4,5.1-5.4,11-7.1,16.8c-1.7,5.8-2.9,11.7-4.5,17.4c-1.5,5.6-3.3,11-5.4,16s-4.6,9.4-7.2,13.3c-5.2,7.8-10.9,13.3-15,16.9
		c-1,0.9-2,1.7-2.8,2.3c-0.8,0.7-1.5,1.2-2.1,1.7c-1.2,0.9-1.8,1.4-1.8,1.4s0.6-0.5,1.7-1.4c0.6-0.5,1.3-1,2-1.7
		c0.8-0.7,1.7-1.5,2.7-2.4c2-1.9,4.4-4.1,6.8-7c2.5-2.8,5.1-6.2,7.6-10.1c2.5-3.9,4.8-8.4,6.8-13.3s3.7-10.3,5.1-15.9
		c1.4-5.6,2.6-11.5,4.2-17.5c1.6-5.9,3.7-12,7.2-17.3c1.7-2.7,3.8-5.1,6.1-7.3c2.3-2.2,4.9-4.1,7.5-5.7c5.3-3.2,11.1-5.4,16.8-7
		c2.8-0.8,5.6-1.5,8.3-2.2c2.7-0.8,5.3-1.5,7.8-2.3c5-1.7,9.7-3.6,13.7-5.7c4.1-2.1,7.6-4.5,10.5-6.8c2.9-2.4,5.3-4.6,7.3-6.5
		C391.1,110.5,393.3,108.3,393.3,108.3z"/>
	<path class="st53" d="M257,225c0,0,0,0.1,0,0.1c0,1.4,0.1,2.7,0.2,4c0.1,1.3,0.1,2.5,0.2,3.7c0.1,1.2,0.2,2.3,0.3,3.3
		c0.1,1,0.2,2,0.3,2.9c0.1,0.9,0.2,1.8,0.3,2.5c0.4,3,0.6,4.7,0.6,4.7s-0.1-1.7-0.4-4.7c0-0.8-0.1-1.6-0.2-2.5
		c-0.1-0.9-0.1-1.9-0.2-2.9c-0.1-1-0.1-2.1-0.2-3.3c0-1.2-0.1-2.4-0.1-3.7c0-1.3-0.1-2.6-0.1-4c0,0,0,0,0-0.1
		C257.5,225,257.2,225,257,225 M283.4,147.7c-0.1,0.1-0.2,0.2-0.3,0.3c-1.2,1-2.5,2.3-3.9,3.8c-1.4,1.5-3,3.3-4.5,5.4
		c-1.6,2-3.1,4.4-4.6,6.9c-1.5,2.6-2.9,5.3-4.2,8.3s-2.5,6.1-3.5,9.3c-0.3,0.8-0.5,1.6-0.8,2.4c-0.2,0.9-0.5,1.7-0.7,2.5
		c-0.4,1.6-0.8,3.3-1.2,5c-0.7,3.4-1.3,6.7-1.7,10.1c-0.4,3.4-0.7,6.7-0.9,9.9c0,0.8-0.1,1.6-0.1,2.4c-0.1,0.7-0.1,1.5-0.1,2.3
		c0,1.5-0.1,3,0,4.5c0,1,0,1.9,0.1,2.8c0,0,0.1,0,0.1,0c0.2,0,0.4,0,0.6,0c0-0.9,0-1.8,0-2.8c-0.1-1.5,0.1-3,0.1-4.5
		c0-0.7,0.1-1.5,0.1-2.3c0.1-0.8,0.1-1.6,0.2-2.4c0.2-3.2,0.6-6.5,1-9.8c0.5-3.3,1.1-6.7,1.8-10c0.4-1.7,0.7-3.4,1.2-5
		c0.3-0.9,0.5-1.7,0.7-2.5c0.2-0.8,0.5-1.6,0.7-2.4c1-3.2,2.1-6.3,3.4-9.2c1.3-3,2.7-5.7,4.1-8.3c1.4-2.6,2.9-4.9,4.4-7
		c1.5-2.1,2.9-3.9,4.3-5.5c1.3-1.6,2.6-2.9,3.7-3.9C283.4,147.9,283.4,147.8,283.4,147.7"/>
	<path class="st50" d="M298,100c0,0-1,0.8-2.8,2.4c-1.9,1.5-4.5,3.7-7.9,6.6c-1.7,1.4-3.5,3-5.5,4.8c-2,1.8-4.1,3.7-6.4,5.8
		c-4.5,4.2-9.5,9.1-14.6,14.7c-5.1,5.7-10.4,12-15.2,19.4c-2.5,3.6-4.7,7.6-6.8,11.7c-2.1,4.1-3.9,8.5-5.4,13.1
		c-1.5,4.6-2.7,9.3-3.6,14.2c-0.9,4.9-1.5,9.9-1.8,14.9c-0.6,10.1-0.3,20.3,0.5,30.4c0.5,5,0.9,10.1,1.4,15.1
		c0.5,5,0.8,9.9,1.1,14.9c0.2,4.2,0.4,8.3,0.6,12.4l3.5-2.1c-0.1-3.5-0.3-6.9-0.5-10.4c-0.3-4.9-0.6-10-1-15
		c-0.4-5-0.9-10.1-1.3-15.1c-0.4-5-0.6-10-0.8-15c-0.1-5-0.1-10,0.2-14.9c0.6-9.7,2-19.3,4.9-28.2c2.9-8.9,6.8-17,11.4-24.3
		c1.1-1.8,2.4-3.5,3.5-5.3c1.2-1.7,2.4-3.4,3.6-5c2.4-3.3,4.8-6.3,7.3-9.2c5-5.7,9.7-10.8,14-15.2c2.1-2.2,4.2-4.2,6.1-6.1
		s3.7-3.6,5.3-5.1c1.6-1.5,3-2.8,4.3-4c1.3-1.2,2.3-2.2,3.2-3C297.1,100.9,298,100,298,100"/>
	<path class="st50" d="M235.1,278.3l-3.5,2.1c0.2,5.6,0.4,11.2,0.5,16.7c0.1,9.4,0.1,18.5-0.2,27.2c-0.3,8.6-0.8,16.8-1.5,24.3
		c-0.8,7.6-1.7,14.4-3,20.4c-1.3,6-2.9,11.1-5.1,14.9c-1.1,1.9-2.3,3.4-3.7,4.4c-1.4,1-2.8,1.4-4,1.4c-0.2,0-0.3,0-0.4,0
		c-0.9,0-1.6-0.2-2.2-0.4c-0.6-0.2-0.9-0.3-0.9-0.3s0.2,0.1,0.8,0.4c0.5,0.2,1.4,0.5,2.6,0.6c0.1,0,0.3,0,0.4,0
		c1.1,0,2.4-0.3,3.8-1.2c1.5-1,2.9-2.5,4.1-4.4c2.4-3.8,4.3-8.9,5.9-14.9c1.6-6,2.8-12.8,3.8-20.4c1-7.6,1.7-15.8,2.2-24.5
		c0.5-8.7,0.7-17.9,0.7-27.4C235.3,291,235.3,284.7,235.1,278.3"/>
	<path class="st50" d="M257,84c0,0-0.3,0-0.8,0.2c-0.6,0.2-1.6,0.4-2.7,0.9c-0.3,0.2-0.6,0.3-0.9,0.4c-0.3,0.2-0.7,0.3-1,0.5
		c-0.6,0.3-1.4,0.6-2.1,1.1c-0.8,0.4-1.6,0.9-2.4,1.4c-0.8,0.6-1.6,1.2-2.5,1.8c-0.9,0.6-1.7,1.4-2.6,2.1c-0.8,0.8-1.8,1.5-2.6,2.4
		c-0.8,0.8-1.7,1.7-2.6,2.6c-0.9,0.9-1.7,1.9-2.6,2.9c-1.8,1.9-3.4,4.1-5,6.4c-0.4,0.6-0.8,1.1-1.2,1.7l-1.1,1.8
		c-0.7,1.2-1.5,2.4-2.2,3.6c-0.8,1.2-1.4,2.5-2.1,3.7c-0.7,1.3-1.3,2.5-2,3.7c-0.4,0.6-0.7,1.2-1,1.8c-0.3,0.7-0.5,1.3-0.8,1.9
		c-0.5,1.2-1.1,2.4-1.6,3.6c-0.6,1.2-1.1,2.3-1.6,3.5c-0.5,1.1-0.9,2.3-1.3,3.4c-0.8,2.2-1.6,4.3-2.3,6.3c-0.8,1.9-1.2,3.8-1.7,5.4
		c-0.5,1.6-0.9,3-1.2,4.2c-0.7,2.3-1,3.7-1,3.7s0.6-1.2,1.7-3.4c0.6-1.1,1.2-2.5,1.9-4c0.3-0.7,0.7-1.5,1.1-2.4
		c0.4-0.9,0.8-1.8,1.3-2.7c0.9-1.8,1.9-3.9,2.9-6c0.5-1.1,1-2.2,1.6-3.3c0.5-1.1,1.1-2.3,1.7-3.4c1.2-2.3,2.4-4.7,3.7-7
		c0.7-1.2,1.3-2.4,2-3.6c0.7-1.2,1.3-2.4,2.1-3.5c0.7-1.2,1.4-2.3,2.1-3.5l1.1-1.7c0.3-0.6,0.7-1.1,1.1-1.7c0.7-1.1,1.5-2.2,2.2-3.3
		c0.7-1.1,1.5-2.1,2.3-3.1c0.8-1,1.5-2.1,2.3-3c0.8-0.9,1.5-1.8,2.3-2.7c0.7-0.9,1.6-1.7,2.3-2.5c0.7-0.8,1.4-1.6,2.2-2.3
		c0.7-0.7,1.4-1.4,2.1-2c0.7-0.6,1.4-1.2,2-1.7c0.7-0.6,1.3-1,1.9-1.4c0.2-0.2,0.5-0.4,0.8-0.6c0.3-0.2,0.5-0.3,0.8-0.5
		C255.7,84.5,257,84,257,84"/>
	<path class="st50" d="M195,258.2c0,0-0.2,1.3-0.5,3.3c-0.4,2.3-0.8,5.4-1.3,9.2c-0.2,1.9-0.5,3.9-0.7,6.1c-0.2,2.2-0.4,4.5-0.6,6.9
		c-0.1,2.4-0.4,4.9-0.4,7.4c-0.1,2.5,0,5.1,0,7.7c0.1,1.3,0.1,2.6,0.2,3.9c0,0.5,0.1,1,0.2,1.5l3.7-2.2c-0.1-1-0.1-2.1-0.2-3.2
		c-0.1-2.5-0.1-5-0.1-7.5c0-2.5,0-4.9,0-7.3c0.1-2.4,0.1-4.7,0.1-6.9c0-2.2,0-4.3,0-6.2c0-3.8-0.1-7-0.2-9.2
		C195.1,259.5,195,258.2,195,258.2"/>
	<path class="st50" d="M195.6,302l-3.7,2.2c0.1,0.8,0.2,1.5,0.2,2.3c0.1,1.3,0.4,2.6,0.6,3.8c0.1,1.2,0.4,2.4,0.7,3.6
		c0.3,1.2,0.5,2.4,0.9,3.5c0.3,1.1,0.6,2.3,1,3.3c0.3,1,0.7,2,1.1,3c0.3,1,0.8,1.9,1.2,2.8s0.8,1.7,1.2,2.5c0.4,0.8,0.8,1.5,1.2,2.2
		c0.4,0.7,0.8,1.3,1.1,1.9c0.4,0.6,0.7,1.1,1,1.6c1.2,1.9,1.9,2.9,1.9,2.9s-0.4-1.2-1.2-3.3c-0.2-0.5-0.5-1.1-0.7-1.7
		c-0.2-0.6-0.4-1.3-0.7-2c-0.2-0.7-0.5-1.5-0.8-2.3c-0.2-0.8-0.5-1.7-0.8-2.6c-0.7-1.8-1.1-3.7-1.7-5.8c-0.3-1-0.5-2.1-0.7-3.2
		c-0.1-0.6-0.2-1.1-0.3-1.7c-0.1-0.6-0.2-1.1-0.3-1.7c-0.4-2.3-0.6-4.7-0.9-7.1c-0.1-1.2-0.2-2.5-0.3-3.7
		C195.6,302.3,195.6,302.1,195.6,302"/>
	<path class="st50" d="M265.5,63.5c-0.7,0.5-12.2,8.6-12.2,8.6C253.3,72.2,256.3,70,265.5,63.5 M265.5,63.5L265.5,63.5
		C265.5,63.5,265.5,63.5,265.5,63.5 M265.5,63.5C265.5,63.5,265.5,63.5,265.5,63.5C265.5,63.5,265.5,63.5,265.5,63.5 M265.5,63.5
		L265.5,63.5L265.5,63.5 M265.5,63.5C265.5,63.5,265.5,63.5,265.5,63.5C265.5,63.5,265.5,63.5,265.5,63.5 M265.5,63.5L265.5,63.5
		C265.5,63.5,265.5,63.5,265.5,63.5 M265.5,63.5C265.5,63.5,265.5,63.5,265.5,63.5C265.5,63.5,265.5,63.5,265.5,63.5 M265.5,63.5
		L265.5,63.5C265.5,63.5,265.5,63.5,265.5,63.5 M265.5,63.5C265.5,63.5,265.5,63.5,265.5,63.5C265.5,63.5,265.5,63.5,265.5,63.5
		 M265.5,63.5L265.5,63.5C265.5,63.5,265.5,63.5,265.5,63.5 M265.5,63.5L265.5,63.5C265.5,63.5,265.5,63.5,265.5,63.5
		C265.5,63.5,265.5,63.5,265.5,63.5L265.5,63.5 M265.5,63.5L265.5,63.5C265.5,63.5,265.5,63.5,265.5,63.5 M265.5,63.5L265.5,63.5
		C265.5,63.5,265.5,63.5,265.5,63.5 M304.6,53.5c-13.7,0-28.2,2.3-39.1,10c0.1-0.1,10-7,22.6-7c3.2,0,6.5,0.4,9.9,1.5
		c0,0-1.4-0.1-3.7-0.1c-5.3,0-15,0.7-21.3,5.6c0,0,19.4-6.6,46.1-6.6c7.9,0,16.5,0.6,25.4,2.1C344.5,59,325.6,53.5,304.6,53.5"/>
	<path class="st50" d="M205.6,127.2c0,0-0.1,0-0.1,0c-7.7,2.2-10.6,13.6-10.8,20.4c-0.3,10.3,4.3,19.9,7.7,29.3c1,2.8,2.7,6.2,2,9.1
		c-0.6,2.3-2.8,4.2-4.2,6.1c-3.1,4.3-5.7,9.2-6.6,14.5c-1.8,10.7,6,19.4,5.9,29.9c0,0.9,3.6,1.7,3.6,1.7c0.1-9.9-7.1-18.2-6.2-28.2
		c0.5-5.3,2.8-10.3,5.8-14.7c3-4.5,6.4-7,4.6-12.6c-3.2-10.5-9-20.7-9.1-31.9c-0.1-9.8,3.7-16.5,11-22.6
		C209.3,128.2,206.5,127.2,205.6,127.2"/>
	<path class="st52" d="M163.5,324.6c3.2,8.1,4.3,18.4,4.6,27c0.2,7.4-0.4,15.2-5.4,21c-0.1,0.1,2.4,1.8,3.3,1.8c0.1,0,0.2,0,0.3-0.1
		c11.3-13.3,2.8-33.9,1.1-48.9C167.2,324.4,163.6,324.8,163.5,324.6"/>
	<path class="st51" d="M146.5,472.7c-2.3,1.5-4.6,3.1-6.6,4.8c-1.4,1.2-3.1,2.7-4.9,4.3c-8.3,10.3-13,19.8-9,25.2
		c1.5,2,2.1,3.4,2.2,4c0.5,0.1,0.9,0.2,1,0.3c-9.8-11.8,7.2-26.4,15.6-33.3c1-0.8,2.1-1.6,3.2-2.4c-0.1-0.3-0.2-0.5-0.4-0.8
		C147.3,474.3,146.9,473.5,146.5,472.7 M169.6,451.9c-0.3,0-0.4,0-0.5,0.2c-3.5,9.1-12.8,14.3-21.2,19.6c0.5,1,1.1,2.1,1.5,3
		c9-6.1,19.6-11.3,23.5-21.7C173.1,452.8,170.6,451.9,169.6,451.9"/>
	<path class="st54" d="M147.9,471.7c-0.5,0.3-1,0.6-1.5,1c0.5,0.8,0.9,1.6,1.1,2.2c0.1,0.3,0.2,0.5,0.4,0.8c0.5-0.3,1-0.7,1.5-1
		C149,473.8,148.5,472.8,147.9,471.7"/>
	<path class="st51" d="M122.8,503.8c0.3,2.1,1.2,4.1,2.9,6.1c0.2,0.2,0.4,0.4,0.7,0.5C125.3,509.2,124,507,122.8,503.8"/>
	<path class="st52" d="M135,481.8c-6.4,5.9-13.4,14.2-12.2,22c1.2,3.2,2.5,5.4,3.6,6.6c0.5,0.3,1.2,0.5,1.8,0.6
		c-0.1-0.7-0.7-2-2.2-4C122,501.6,126.7,492.1,135,481.8"/>
	<path class="st51" d="M129.2,511.4C129.2,511.4,129.2,511.4,129.2,511.4C129.2,511.4,129.2,511.4,129.2,511.4"/>
	<path class="st51" d="M148.4,405.1c-2,0.3-4,0.8-6.2,1.2c-2.4,2.8-5.1,5.2-8.2,7.1c-4.6,2.8-9.9,3.2-15.2,3.2c-1.4,0-2.7,0-4.1-0.1
		c-1.4,0-2.7-0.1-4.1-0.1c-0.5,0-1,0-1.5,0c-0.4,0.1-0.8,0.3-1.2,0.4c0.7,0.5,1.9,1.4,2.7,1.4c0,0,0.1,0,0.1,0
		c1.1-0.1,2.2-0.1,3.3-0.1c1.4,0,2.9,0,4.3,0.1c1.5,0,2.9,0.1,4.4,0.1c4.7,0,9.3-0.4,13.6-2.6C140.9,413.5,145,409.5,148.4,405.1"/>
	<path class="st52" d="M109.1,416.5c-0.6,0-1.2,0-1.8,0.1c0.1,0,0.3,0.2,0.6,0.4C108.3,416.8,108.7,416.7,109.1,416.5 M150.7,395
		c-0.2,0-0.4,0-0.5,0.1c-2.4,3.8-4.9,7.7-8,11.2c2.1-0.5,4.2-0.9,6.2-1.2c2.2-2.9,4.1-6.1,5.7-9.1C154.2,395.9,151.8,395,150.7,395"
		/>
	<path class="st50" d="M239.6,416.4c-0.4,0.7-0.8,1.4-1.1,2.2c6.4,8.2,15.5,14.4,23.8,20.4c7.2,5.2,14.6,10.3,21.3,16.1
		c0-0.5,0.1-1.1,0.1-1.6c-3.9-3.1-7.6-5.8-10.5-7.9C263.8,438.7,247,428.5,239.6,416.4 M237.8,390.6c-0.2,0-0.3,0-0.4,0.1
		c-4.3,2.9-5.5,7.7-5.1,12.7l3.6,1c0.1-4.2,1.7-8.4,5.3-12.8C241.2,391.6,238.8,390.6,237.8,390.6"/>
	<path class="st50" d="M232.3,403.4c0.4,5.2,2.7,10.5,5.3,14c0.3,0.4,0.6,0.8,0.9,1.2c0.3-0.8,0.7-1.5,1.1-2.2
		c-2.3-3.8-3.7-7.8-3.6-12L232.3,403.4"/>
	<path class="st55" d="M303.4,475.5c-0.7,7.3-1.3,14.1-1.7,20.6c0.1,0,0.1,0,0.2,0c0.1,0,0.2,0,0.3-0.1
		C307.1,489.2,306.6,482.2,303.4,475.5"/>
	<path class="st50" d="M287.3,456.4c-0.1,0.6-0.1,1.2-0.2,1.9c1.3,1.3,2.7,2.6,3.9,4c7.9,8.5,15.4,21.1,7.6,32
		c-0.2,0.2,2.2,1.6,3.2,1.8c0.4-6.5,1-13.2,1.7-20.6C300.1,468.6,293.7,462,287.3,456.4"/>
	<path class="st50" d="M283.6,455.1c-0.2,2.5-0.6,4.9-1,7.4c-1,5.6-2.7,11-4.7,16.3c-2.3,6-5.1,12.1-3.4,18.7
		c2.7,10.5,12.8,19.4,21.5,25c0.4,0.3,2.2,1,2.6,1c0.2,0,0.1-0.2-0.6-0.6c-10.9-7.1-23.4-19.9-19.6-33.9c1.5-5.6,4.3-10.9,5.9-16.5
		c1.3-4.7,2.2-9.4,2.8-14.2C285.9,457.2,284.8,456.2,283.6,455.1 M264.9,394.4c4.6,3.5,7.9,10.4,10.3,15.5
		c2.8,5.7,4.9,11.6,6.4,17.8c2,8.5,2.7,17.2,2.1,25.8c1.2,0.9,2.4,1.9,3.5,2.9c0-0.1,0-0.2,0-0.3c0.8-10.4-0.3-21-3.3-31
		c-1.6-5.4-3.7-10.6-6.2-15.5c-2.6-5-6.5-9.4-9.1-14.3C268,394.2,265.3,394.6,264.9,394.4 M264.8,394.4
		C264.8,394.4,264.8,394.4,264.8,394.4C264.8,394.4,264.8,394.4,264.8,394.4"/>
	<path class="st56" d="M283.7,453.5c0,0.5-0.1,1.1-0.1,1.6c1.2,1,2.3,2.1,3.5,3.2c0.1-0.6,0.1-1.2,0.2-1.9
		C286.1,455.4,284.9,454.5,283.7,453.5"/>
	<path class="st50" d="M243.2,219.8c-0.3,0-0.2,0.2,0.9,0.8c4,2.3,8.4,3.8,12.9,4.4c0-0.5,0-0.9,0-1.4c-3.9,0-7.9-1-11.7-3.1
		C244.6,220.1,243.6,219.8,243.2,219.8 M370.3,83.9c-5.8,0-11.8,0.9-17.5,1.7c-7.4,1-14.8,2.5-21.8,4.8c-12.8,4.2-25,11.4-33.4,22.1
		c-7.9,10.1-12.4,22.6-14.2,35.2c2.2-1.9,3.6-2.7,3.6-2.7s-1.4,1-3.6,3c0,0,0,0,0,0c-0.2,1.6-0.4,3.2-0.6,4.9
		c-0.8,8.3-0.6,16.6,0.1,24.9c0.6,7.4,2.3,15.1,1.2,22.5c-2,13.1-13.9,23-26.4,23.3c0,0.5,0,1,0,1.5c1,0.1,2.1,0.2,3.1,0.2
		c5.6,0,11.2-1.6,16.1-5.2c5.4-4,9.2-10,10.6-16.5c1.7-8.1-0.4-16.8-1-24.9c-2.4-32.2,5.2-65.7,36.1-81.5c8.3-4.2,17.3-6.9,26.5-8.6
		c4.8-0.9,9.7-1.5,14.6-2c4.9-0.5,10.1-0.2,14.8-1.4c-0.3,0-2.5-0.9-2.9-0.9C373.9,84,372.1,83.9,370.3,83.9"/>
	<path class="st57" d="M257.7,223.6c-0.2,0-0.4,0-0.6,0c0,0-0.1,0-0.1,0c0,0.5,0,0.9,0,1.4c0.2,0,0.5,0.1,0.7,0.1
		C257.7,224.6,257.7,224.1,257.7,223.6 M287,145c0,0-1.4,0.8-3.6,2.7c0,0.1,0,0.2,0,0.3c0,0,0,0,0,0C285.6,146,287,145,287,145"/>
	<path class="st50" d="M378.5,85.1C378.5,85.1,378.5,85.1,378.5,85.1C378.5,85.1,378.5,85.1,378.5,85.1
		C378.5,85.1,378.5,85.1,378.5,85.1"/>
	<path class="st50" d="M349.5,71.6c-6.2,0-12.4,0.4-18.5,1.2c-23.1,3.2-45.2,12.3-63.8,26.4c0,0,0,0,0,0c0.1,0,0.6,0.4,1.3,0.9
		c0.7,0.4,1.4,0.9,1.9,0.9c0.1,0,0.2,0,0.3-0.1c15.7-11.8,33.8-20.2,53-24.4c9.2-2,18.6-3.1,28-3.1c5.2,0,10.4,0.2,15.5,0.8
		c5.6,0.6,13.3,1.5,18,5.2c0-0.2,0-0.5,0-0.7c-2-1.1-4-2.2-6.2-3c-4.5-1.7-9.1-2.6-13.9-3.2C359.9,71.9,354.7,71.6,349.5,71.6"/>
	<path class="st50" d="M385.2,78.7c0,0.2,0,0.5,0,0.7c0.8,0.6,1.4,1.3,2,2.1c0.4,0.6,1.8,0.7,2.8,0.7c0.6,0,1-0.1,0.8-0.1
		C388.9,81,387.1,79.8,385.2,78.7"/>
	<polyline class="st50" points="267.2,99.2 267.2,99.2 267.2,99.2 	"/>
	<path class="st50" d="M403.7,65.7c-1.8,0-3.5,0.2-5.2,0.8c-0.1,0.1,2.5,1,2.8,1c6.7,0.9,12.3,0.7,18.4,4.2
		c5.5,3.2,9.9,7.6,13.2,13.1c5.2,8.6,7.2,18.5,7,28.5c0,0.9,3.6,1.7,3.6,1.7c0.2-14-4-28.4-14.7-38
		C422.8,71.5,412.7,65.7,403.7,65.7"/>
	<path class="st50" d="M402.8,380.4c-0.9,1.6-1.8,3.2-2.7,4.8c2,7.1,6.6,13.5,12.2,18.1c2.1,1.8,4.4,3.3,6.8,4.8
		c0.1-0.3,0.2-0.6,0.3-0.9c-6.9-4.5-12.5-10.5-15.3-19C403.2,385.4,402.8,382.9,402.8,380.4 M458,270.5c-0.6,0.8-1.3,1.5-2,2.2
		c-1.3,14-1.9,28.3-8.6,40.9c-6,11.4-15.2,20.9-24.4,29.8c-8.7,8.5-21.8,17.6-23.7,30.4c-0.5,3.3-0.3,6.6,0.4,9.8l3.1-4.4
		c0.4-11.3,9.1-19.7,17.6-28c10.4-10,21.3-20,28.7-32.5c3.9-6.5,6.5-13.4,7.8-20.8c1.6-8.8,1.4-17.8,3.1-26.5
		C460.1,271.1,459,270.8,458,270.5"/>
	<path class="st56" d="M402.8,379.3l-3.1,4.4c0.1,0.5,0.2,1,0.4,1.5c0.9-1.6,1.8-3.2,2.7-4.8C402.8,380,402.8,379.6,402.8,379.3"/>
	<path class="st51" d="M446.4,418.3c0.1,0.3,0.2,0.5,0.3,0.8c0.3,0.1,0.5,0.2,0.8,0.2c0.2,0,0.3,0.1,0.3,0.1
		C448.2,419.4,447.3,418.7,446.4,418.3"/>
	<path class="st52" d="M437.4,415.3c-0.1,0.3-0.1,0.5-0.2,0.8c3.1,1.1,6.3,2,9.5,2.9c-0.1-0.3-0.2-0.5-0.3-0.8
		c-0.5-0.3-1-0.5-1.2-0.6C442.6,417,440,416.2,437.4,415.3"/>
	<path class="st50" d="M423.3,409.5c-0.1,0.3-0.2,0.5-0.3,0.8c4.5,2.3,9.3,4.2,14.2,5.8c0.1-0.3,0.1-0.5,0.2-0.8
		C432.6,413.7,427.8,411.8,423.3,409.5"/>
	<path class="st52" d="M404,479.1c0,0.1,0,0.1,0,0.2c0.1,0,0.2,0.1,0.2,0.1C404.1,479.3,404.1,479.2,404,479.1"/>
	<path class="st50" d="M379.5,400c-1.8,2.2-3.7,4.4-5.6,6.6c-0.9,5.7-0.9,11.5,0.2,17.2c3.8,19.5,16.6,37.5,26.6,54.2
		c0.5,0.8,2.7,1.2,3.3,1.4c0-0.1,0-0.1,0-0.2c-5.3-8.9-10.7-17.8-15.6-26.9c-4.7-9-9.5-18.4-11.1-28.5
		C376,415.4,377.1,407.5,379.5,400"/>
	<path class="st52" d="M390.7,368.8c-0.2,0-0.4,0-0.5,0.1c-7.4,10.9-14.2,24.1-16.3,37.6c1.9-2.1,3.8-4.3,5.6-6.6
		c3.4-10.5,9.3-20.5,14.5-30.3C394.1,369.7,391.7,368.8,390.7,368.8"/>
	<polyline class="st52" points="404.2,479.4 404.2,479.4 404.2,479.4 	"/>
	<path class="st58" d="M466.5,239.4c-0.2,6.7-0.9,13.3-1.8,19.9C467,253.1,467.7,246.3,466.5,239.4"/>
	<path class="st50" d="M453.6,215.5c0,1.3,0,2.7,0,4c3.1,4.3,6.3,8.5,8,13.7c5.4,16.9-2,34.8-16.9,43.9c0,0,0,0,0,0
		c0.1,0,0.7,0.4,1.3,0.9c0.6,0.4,1.4,0.9,1.9,0.9c0.1,0,0.3,0,0.4-0.1c2.8-1.7,5.3-3.8,7.6-6c0.1-0.8,0.1-1.5,0.2-2.3
		c0-0.1,0.2-0.1,0.5-0.1c0.3,0,0.8,0.1,1.3,0.2c2.8-3.4,5.1-7.2,6.6-11.2c0.9-6.6,1.6-13.2,1.8-19.9c-0.1-0.6-0.2-1.2-0.4-1.7
		C464,228.8,458.4,222.9,453.6,215.5"/>
	<path class="st52" d="M444.8,186.5c-0.1,0-0.2,0-0.2,0c0.3,3.7,0.3,7.3,0.5,10.9c0.3,1.8,0.5,3.6,0.6,5.4c0.5,2.8,1.2,5.6,2.6,8.3
		c1.5,3,3.4,5.7,5.4,8.4c0-1.3,0-2.7,0-4c0-0.1-0.1-0.1-0.1-0.2c-5.2-8.2-5.8-18.6-4.9-28.1C448.5,186.8,445.5,186.5,444.8,186.5"/>
	<path class="st56" d="M456.7,270.4c-0.3,0-0.4,0-0.5,0.1c-0.1,0.8-0.2,1.5-0.2,2.3c0.7-0.7,1.4-1.5,2-2.2
		C457.5,270.4,457,270.4,456.7,270.4"/>
	<path class="st50" d="M424.9,399.3c-0.2,0-0.4,0-0.5,0.1c-2.3,2-3.9,4.7-5,7.7c1.3,0.8,2.6,1.6,3.9,2.3c1.2-3.1,2.8-6.1,4.9-9.1
		C428.3,400.2,426,399.3,424.9,399.3"/>
	<path class="st51" d="M433.4,454.3c0.3,1.6,0.7,3.2,1.1,4.7c2.8,3.5,5.7,6.9,8.6,10.2c5.4,6.1,11.2,11.4,18.4,15.4
		c0.7,0.3,1.8,0.7,2.1,0.7c0.3,0,0.1-0.2-0.9-0.8c-9-5-15.7-13-22.1-20.9C438.2,460.6,435.7,457.5,433.4,454.3"/>
	<path class="st50" d="M419.1,408.1c-1.6,4.7-2,10.1-1.7,14.5c0.6,8.7,4.1,16.9,8.6,24.3c2.6,4.2,5.5,8.2,8.6,12.1
		c-0.5-1.5-0.8-3.1-1.1-4.7c-2.4-3.3-4.6-6.7-6.5-10.3c-5.9-11.1-7.7-22.8-3.9-33.7C421.7,409.6,420.4,408.8,419.1,408.1"/>
	<path class="st56" d="M419.4,407.1c-0.1,0.3-0.2,0.6-0.3,0.9c1.3,0.8,2.6,1.5,4,2.2c0.1-0.3,0.2-0.5,0.3-0.8
		C422,408.7,420.7,408,419.4,407.1"/>
	<path d="M393.3,91.3c0,0,0.1,1.2,0.5,3.2c0.2,1,0.5,2.2,0.8,3.6c0.2,0.7,0.4,1.4,0.6,2.2c0.2,0.8,0.5,1.5,0.8,2.4
		c0.6,1.6,1.3,3.4,2.2,5.1c0.4,0.9,1,1.8,1.5,2.7c0.6,0.9,1.1,1.8,1.7,2.7c1.3,1.7,2.6,3.5,4.3,5.1l1.2,1.2l1.3,1.2
		c0.9,0.8,1.7,1.6,2.6,2.3c1.7,1.6,3.4,3.2,5,4.8s3.2,3.3,4.7,4.9c1.5,1.6,2.9,3.2,4.1,4.8s2.4,3.1,3.3,4.6c1,1.5,1.8,2.9,2.4,4.2
		c0.6,1.3,1,2.5,1.3,3.5c0.1,0.5,0.2,1,0.3,1.3c0.1,0.4,0,0.7,0.1,1c0,0.5,0,0.8,0,0.8s0-0.3-0.1-0.8c0-0.3,0-0.6-0.1-1
		s-0.2-0.8-0.3-1.3c-0.3-1-0.8-2.1-1.4-3.3c-0.7-1.2-1.5-2.6-2.5-4s-2.2-2.9-3.4-4.4c-1.3-1.5-2.7-3.1-4.2-4.7s-3.1-3.2-4.7-4.8
		s-3.3-3.2-5-4.8c-0.9-0.8-1.7-1.6-2.6-2.4l-1.3-1.2l-1.2-1.2c-1.7-1.6-3.1-3.4-4.3-5.2c-0.6-0.9-1.2-1.8-1.7-2.8
		c-0.5-0.9-1-1.9-1.4-2.8c-0.8-1.8-1.5-3.6-2.1-5.3c-0.3-0.8-0.5-1.6-0.7-2.4c-0.2-0.8-0.4-1.5-0.5-2.2c-0.3-1.4-0.5-2.6-0.7-3.6
		C393.4,92.5,393.3,91.3,393.3,91.3z"/>
	<path class="st58" d="M438.3,184.5c0,0.3,0,0.6,0,0.9c0.1,0.2,0.2,0.4,0.3,0.7c0-0.1,0-0.1,0-0.2
		C438.5,185.4,438.4,184.9,438.3,184.5"/>
	<path class="st55" d="M435.3,177.7c0,0-0.1,0-0.1,0c0.6,1.9,1.4,3.8,2.3,5.7c0.3,0.7,0.6,1.3,0.9,1.9c0-0.3,0-0.6,0-0.9
		c-0.5-1.9-0.9-4.2-1.5-6.7C436.2,177.8,435.7,177.7,435.3,177.7 M430,158.6c1.4,4.9,2.4,9.6,3.7,14.3l2.1,0.7
		c-1.1-4.3-2.5-9.3-4.6-14.9C430.5,158.6,430,158.6,430,158.6"/>
	<path class="st50" d="M433.7,172.9c0.4,1.6,0.9,3.2,1.5,4.8c0,0,0.1,0,0.1,0c0.5,0,1,0,1.5,0.1c-0.3-1.3-0.6-2.8-1-4.3L433.7,172.9
		"/>
	<path class="st55" d="M442.1,208c-0.1,1.2-0.1,2.3-0.2,3.5c-0.1,0.5,1.2,1,2.2,1.3C443.5,211.2,442.8,209.6,442.1,208"/>
	<path class="st50" d="M431.1,158.7c2.1,5.6,3.5,10.6,4.6,14.9c0.4,1.5,0.7,2.9,1,4.3c0.6,2.5,1,4.7,1.5,6.7
		c0.1,0.5,0.2,0.9,0.3,1.3c0.1-1.8,0.3-3.6,0.5-5.4c-2.7-6.7-4.9-13.7-5.2-21C433.9,158.8,432.3,158.7,431.1,158.7"/>
	<path class="st50" d="M442.1,207.7c0,0.1,0,0.2,0,0.3c0.7,1.6,1.3,3.2,2,4.8c0.1,0,0.1,0,0.2,0.1
		C443.6,211.2,442.8,209.5,442.1,207.7 M439.1,180.4c-0.2,1.8-0.4,3.7-0.5,5.4c0,0.1,0,0.1,0,0.2c0.4,0.9,0.8,1.8,1.1,2.7
		c0.1-2,0.2-3.9,0.4-5.9C439.8,182,439.4,181.2,439.1,180.4"/>
	<path class="st52" d="M440.1,182.8c-0.1,2-0.3,3.9-0.4,5.9c1.1,2.7,1.9,5.5,2.3,8.5c0.4,3.5,0.3,7,0.1,10.5
		c0.7,1.7,1.4,3.5,2.2,5.2c0.6,0.2,1.2,0.3,1.2,0.3c0.2-3.6,0.3-7,0.2-10.4c-0.3-1.8-0.5-3.6-0.6-5.4c-0.6-3.4-1.5-6.8-3.1-10.3
		C441.4,185.7,440.7,184.2,440.1,182.8"/>
	<path class="st59" d="M445.1,197.4c0.1,1.8,0.3,3.6,0.6,5.4C445.6,201,445.4,199.2,445.1,197.4"/>
	<path d="M85.9,422.8C69.7,427,57.3,440.9,49.4,455c-5.2,9.3-8.8,19.2-12.1,29.2c-3.7,11.1-5,22.6-8.3,33.9
		c-0.1,0.3,1.3-0.1,1.4-0.4c3.3-9.5,3.8-19.7,6.9-29.3c2.6-8.1,5.3-16.2,8.7-24c3.8-8.6,8.5-16.9,14.7-24c7-8,15.3-13.2,25-17.3
		C85.9,422.9,86,422.8,85.9,422.8z"/>
	<path d="M187.6,410.3c13.5,7.8,25.3,18.2,34.6,30.7c0.3,0.4,2-0.4,1.8-0.7c-9.3-13-21.4-23.3-35.7-30.4
		C188.2,409.8,187.5,410.2,187.6,410.3z"/>
	<path d="M198.9,412.5c0-0.1,0.1-0.2,0.1-0.2v-0.1c-0.1-0.1-0.2-0.1-0.3-0.2c-0.3-0.2-0.8,0.2-1,0.3c-0.1,0.1-0.2,0.1-0.3,0.2
		s-0.3,0.2-0.3,0.3c0.7,2.6,5.4,5.2,7.3,7c3.4,3.1,6.7,6.3,9.9,9.7c6,6.3,11.5,13.2,16.7,20.1c0.3,0.4,2-0.4,1.8-0.6
		c-4.9-7.2-10.5-14-16.6-20.3c-2.5-2.5-5-5-7.6-7.4c-0.9-0.8-10.7-8.9-10.9-8.4C197.6,413.1,198.8,412.8,198.9,412.5z"/>
	<path d="M209.3,406.4c17.3,21.7,29.3,46.9,35.9,73.8c0.1,0.3,1.8-0.1,1.7-0.5c-5.9-27.2-18.5-52.4-36-74
		C210.5,405.4,209.1,406.1,209.3,406.4z"/>
	<path d="M217.4,446.9c9.6,13.6,18.6,27.4,27.4,41.5c0.2,0.4,1.7-0.3,1.6-0.5c-8.7-14.2-18.1-27.9-28.1-41.3
		C218.1,446.4,217.3,446.8,217.4,446.9z"/>
	<path d="M38.8,513.7c6.4-4.9,13.2-8.9,20.6-12c0.8-0.3,0.7-0.8-0.2-0.5c-7.5,3-14.6,7.1-20.7,12.5
		C38.3,513.9,38.7,513.8,38.8,513.7z"/>
	<path d="M45.6,509.3c18.7-8.7,38.7-13.5,59.3-14.3c0.4,0,1.8-0.8,1-0.8c-21.1,0.7-41.6,5.8-60.6,14.9
		C44.7,509.4,45.3,509.4,45.6,509.3z"/>
	<path d="M287.5,530.6c17.5,25.3,38.1,53.9,71.8,55.9c0.4,0,2.1-0.8,1.5-0.9c-32.9-2.6-54.8-30.7-72.7-55.4
		C288,530.1,287.4,530.5,287.5,530.6z"/>
	<path d="M340.4,566.5c14.8,1.2,30.4,4.9,44-3c1.1-0.7-0.7-0.4-1.1-0.2c-13,7.3-28.1,3.5-42.1,2.7C341,566,340.2,566.4,340.4,566.5z
		"/>
	<path d="M455.8,477.7c1.1,0.9,1.4,1.8,1.2,2.9c-0.2,1.6-0.4,3-0.6,4.6c-0.1,0.9,0,1.8,0,2.7c0,1.7,0.2,3.4,0,5
		c-0.4,2.3-0.9,4.7-2.2,6.7c-0.5,0.9-1,1.9-1.5,2.7c-0.1,0.2-0.3,0.3-0.7,0.5c0.4-1.6,0.8-3.1,1.3-4.8c-0.1,0-0.2-0.1-0.3-0.1
		c-0.4,1.1-0.9,2.1-1.2,3.3c-0.6,2-1.6,3.8-2.6,5.6c-1.8,3.3-3.6,6.7-5.5,10c-0.2,0.4-0.3,0.8-0.6,1c-2.1,1.9-3.4,4.4-5,6.6
		c-3.5,4.5-6.9,9.1-10.4,13.7c-2.9,3.7-6,7.2-9.4,10.5c-1.1,1.1-2.3,2.1-3.6,3.1c-0.1,0-0.1-0.2-0.2-0.2c0.1-0.2,0.2-0.5,0.3-0.6
		c3.2-3.5,6.5-7,9.6-10.7s6.1-7.6,9-11.6c3.1-4.2,6.2-8.5,8.9-12.9c1.8-2.8,3.2-5.8,4.8-8.7c0.4-0.8,0.9-1.6,1.2-2.4
		c0.8-1.8,1.5-3.7,2.2-5.6c0.8-2.2,1.7-4.3,2.3-6.5c0.8-2.7,1.4-5.5,2.1-8.3c0.3-1.1,0.5-2.1,0.6-3.1c0.1-0.4,0-0.9,0.1-1.3
		C455.7,478.9,455.8,478.4,455.8,477.7z"/>
	<path d="M52.5,518.7c6.9-4,14.5-6,21.8-8.8c18.9-4.5,36.6-5.1,47.1-3.3c-5,0.1-10.1,0.2-15.1,0.3c-2.3,0.1-4.5,0.4-6.8,0.6
		c-2.5,0.2-5.1,0.4-7.6,0.6c-1.6,0.2-3.1,0.5-4.7,0.7c-3.3,0.6-6.7,1.1-10,1.9c-2.1,0.5-4.2,1-6.1,2.1c-0.3,0.2-0.7,0.3-1.1,0.4
		c-3.5,1.1-7.1,2.1-10.6,3.2c-2.1,0.7-4.2,1.4-6.3,2.1C52.9,518.7,52.7,518.7,52.5,518.7z"/>
	<path d="M397.7,512.3c0.1-0.4,0.2-0.8,0.3-1.3c1.7-5.8,3-11.7,4.4-17.5c1.2-5.3,1.9-10.6,2.6-15.9c0.5-3.9,0.9-7.8,0.7-11.7
		c-0.1-1.4-0.1-2.8-0.3-4.2c-0.1-0.8-0.1-1.5,0.7-1.9c1.5,3,1.1,6.3,0.9,9.4c-0.3,3.7-0.8,7.4-1.3,11.2c-0.2,1.9-0.5,3.8-0.8,5.7
		c-0.4,2.7-0.8,5.4-1.8,8c-0.5,1.2-0.5,2.5-0.8,3.8c-0.7,2.9-1.5,5.8-2.3,8.7c-0.4,1.5-0.9,2.9-1.4,4.4c-0.2,0.5-0.3,1-0.5,1.5
		C397.9,512.4,397.8,512.4,397.7,512.3z"/>
	<path d="M281.2,500.8c0.5,1.5,1,3,1.6,4.5c1.1,3.1,2.2,6.2,3.4,9.3c1.5,3.8,3.3,7.5,5.4,11c1.9,3.4,4.1,6.7,6.5,9.9
		c3.3,4.5,7.2,8.5,11.4,12.2c1.1,1,2.3,2,3.5,3c0,0.1-0.1,0.2-0.1,0.3c-0.3-0.2-0.7-0.3-1-0.6c-4.3-3.2-8.3-6.8-11.7-10.9
		c-2.3-2.8-4.6-5.5-6.7-8.5c-2.6-3.7-4.6-7.7-6.4-11.8c-2.3-5.5-3.9-11.2-5.6-16.8c-0.1-0.5-0.2-1-0.3-1.5
		C281.1,500.9,281.2,500.8,281.2,500.8z"/>
	<path d="M206,351c-0.6,1.4-1.1,2.8-1.7,4.2c-1,2-2,3.9-3.1,5.9c-1.2,2.3-2.5,4.6-3.7,6.9c-3.2,5.8-6.8,11.3-10.9,16.5
		c-1.3,1.6-2.6,3.2-3.9,4.8c-0.1,0.2-0.3,0.3-0.6,0.6c4.2-6.4,8.6-12.7,12.5-19.2s7.4-13.3,11.1-19.9
		C205.7,350.9,205.9,350.9,206,351z"/>
	<path d="M273.2,462.9c0.3-0.2,0.6-0.4,1.2-0.8c0.2,0.5,0.5,0.9,0.5,1.4c0.1,3.9,0.9,7.7,1.5,11.6c0.7,4.9,1.5,9.7,2.3,14.6
		c0.1,0.7,0.2,1.3,0.1,2.1c-0.3-1.2-0.7-2.5-0.9-3.7c-1.1-6-2.3-11.9-3.4-17.9c-0.2-0.8-0.2-1.7-0.4-2.5
		C273.8,466.2,273.5,464.7,273.2,462.9z"/>
	<path d="M96.2,498.6c-1.5,0.4-3,0.8-4.6,1.1c-6,1.3-11.8,3.1-17.6,5.1c-2.5,0.9-4.9,2.1-7.2,3.3c-0.6,0.3-1.1,0.9-1.7,1.3
		c-0.2,0.2-0.5,0.2-0.8,0.4c-0.6-1.3-0.2-2.5,0.9-2.9c3.3-1.2,6.5-2.5,9.8-3.7c3.6-1.3,7.3-2.4,11.1-3.1c3.1-0.6,6.1-1.1,9.2-1.7
		c0.3-0.1,0.6-0.1,0.9-0.1C96.2,498.5,96.2,498.6,96.2,498.6z"/>
	<path d="M105.9,490.6c-3.5,0.5-7.1,1-10.6,1.5c-3.6,0.5-7.1,0.8-10.7,1.3c-3.5,0.5-7,1.4-10.9,1.8
		C77.6,493.2,101.6,489.7,105.9,490.6z"/>
	<path d="M183.3,396.8c4.9-6.9,8.6-14.4,12.9-21.7C196,379.1,188.1,392.4,183.3,396.8z"/>
	<path d="M445.2,484c2.7,5.4,4.3,11,3.3,17.2C448.9,495.1,447.2,489.6,445.2,484z"/>
	<path d="M188.3,368.2c0-0.2,0-0.5,0.1-0.6c1.4-1.6,2.7-3.2,4.3-4.6c-1.4,1.8-2.8,3.6-4.2,5.3C188.5,368.3,188.4,368.2,188.3,368.2z
		"/>
	<path d="M129.7,507.2c-1.8,0.6-3.5-0.2-5.2-0.7c1.7,0.1,3.4,0.2,5.1,0.3C129.7,507,129.7,507.1,129.7,507.2z"/>
	<path d="M279.8,496.8c-0.2-0.9-0.4-1.8-0.6-2.8c0.1,0,0.2,0,0.3-0.1c0.3,0.9,0.5,1.8,0.8,2.7C280.1,496.7,279.9,496.8,279.8,496.8z
		"/>
	<path d="M197.5,355.3c0.3,0.7-0.2,1.1-0.6,1.6C196.7,356.3,197.3,355.9,197.5,355.3z"/>
	<path d="M194.1,361.2c-0.2,0.3-0.4,0.6-0.6,0.9c-0.1-0.1-0.1-0.1-0.2-0.2c0.2-0.3,0.5-0.6,0.7-0.9
		C194,361.1,194.1,361.2,194.1,361.2z"/>
	<path d="M197.5,355.3c0.4-0.6,0.8-1.2,1.1-1.8c0.1,0,0.1,0.1,0.2,0.1C198.4,354.2,197.9,354.8,197.5,355.3z"/>
	<path d="M195.3,358.9c0,0.4,0.1,1-0.7,1.1C194.8,359.5,195,359.2,195.3,358.9z"/>
	<path d="M241.9,484.3c0,0.2-0.1,0.4-0.1,0.6c-0.1,0-0.1,0-0.2,0c0-0.2,0-0.4,0-0.6C241.7,484.3,241.8,484.3,241.9,484.3z"/>
	<path d="M100.2,500c0.2-0.1,0.4-0.1,0.6-0.2l0.1,0.1c-0.2,0.1-0.4,0.2-0.5,0.3C100.3,500.1,100.3,500.1,100.2,500z"/>
	<path d="M102.8,412.2c4.8-0.9,9.3-1,14.2-0.1c4.6,0.8,8.4,3.2,12.7,4.9c0.4,0.2,2.2-0.7,1.8-1c-8.8-5.6-18.1-6.5-28.1-4.5
		C102.9,411.6,101.9,412.4,102.8,412.2z"/>
	<path d="M96.6,421c12,1.2,23.9,1.2,35.3,5.5c0.5,0.2,1.9-0.8,1.6-0.9c-11.4-4.5-24.2-4.9-36.3-5.1C97,420.5,96.3,421,96.6,421z"/>
	<path d="M114.5,423.8c1.7,0.8,1.8,0.8,4,0.4c-0.2,0.3-0.3,0.5-0.4,0.6c5.3,0.8,10.3,2.4,15.1,4.8c0.2,0.1,0.3,0.4,0.4,0.6
		c-0.6,0.6-1.3,0.4-1.9,0.2c-1.7-0.4-3.3-0.9-5-1.5c-4.6-1.7-9.3-2.8-14.3-2.7c-4.6,0.1-9.1,0.1-13.7,0.8c-4.3,0.7-8.6,1.6-12.8,2.7
		c-1.2,0.3-2.4,0.5-3.8-0.3c2.1-0.8,3.9-1.6,5.8-2.1c4.5-1.1,9-2.2,13.7-2.5c2.4-0.1,4.7-0.2,7.1-0.3c1.7,0,3.3,0,5-0.1
		C114.1,424.5,114.7,424.8,114.5,423.8z"/>
	<path d="M120.6,432.5c-8.7,0.2-17.3,0.6-25.9,1.3c-0.2,0-0.3-0.2-0.8-0.5C102.9,431.1,111.7,431.7,120.6,432.5z"/>
	<path d="M105,413.6c0.5-0.2,0.9-0.5,1.4-0.7c0.1,0.1,0.1,0.2,0.2,0.3c-0.5,0.3-0.9,0.5-1.4,0.8C105.1,413.9,105,413.8,105,413.6z"
		/>
	<path d="M102.7,415.4c-0.2,0.1-0.3,0.2-0.4,0.2s-0.1-0.2-0.2-0.3c0.1-0.1,0.2-0.2,0.3-0.2C102.5,415.2,102.6,415.3,102.7,415.4z"/>
	<path d="M391,351.3c-0.4,0.4-7,9.6-7.4,10.1c-2.8,3.5-5.7,6.9-8.4,10.5c-1.1,1.5-1.9,3.3-2.8,5c-0.8,1.5-2.6,3-3.2,4.5
		c-1.3,3.5-4.5,8-5.7,11.6c-0.4,1.2-0.8,2.4-1.2,3.6c-0.4,1.2-0.7,2.4-1,3.5c-0.9,3.3-2.1,6.4-3.4,9.5c-0.3,0.7-0.5,1.5-0.8,2.2
		c-1.1,3-2.2,6.1-3.4,9.1c-1.3,3.2-2.9,5.3-4.7,8.3c-0.8,1.2-1.5,2.6-2.2,3.9c-0.2,0.4-6.8,7.6-5.1,5.2c2.2-3,4.2-6.1,5.7-9.5
		c0.7-1.5,1.7-2.9,2.4-4.4c0.8-1.7,1.5-3.4,2.2-5.2c1.5-3.8,2.9-7.7,4.2-11.5c0.9-2.5,1.8-5,2.6-7.5c1.4-4,3.7-8.9,5-12.9
		c0.6-2,2.3-3.9,2.5-6c1.2-1.9,2-3.7,2.5-5.5c0.1-0.3,0.1-0.6,0.3-1.1c-1.1,0.9-1.8,1.8-2.5,2.8s-1.5,1.8-2.2,2.8
		c-0.7,0.9-1.3,1.9-2,2.8c-0.7,0.8-0.8,2.2-2.4,2.7c0.4-1.7,1.1-2.9,1.8-4.1c1.8-3.2,4-6.1,6.5-8.8c2.6-2.8,5.1-5.7,7.7-8.5
		c0.9-0.9,6.9-8.7,7.9-9.5"/>
	<path d="M390.9,351.2c-0.1,0.1-0.2,0.2-0.4,0.5c-1.5,2-6.6,9.1-7,9.6c-2.8,3.5-5.7,6.9-8.4,10.5l0,0l0,0c-1.1,1.5-1.9,3.3-2.8,5
		c-0.8,1.5-2.6,3-3.2,4.5l0,0l0,0c-1.3,3.5-4.5,8-5.7,11.6c-0.4,1.2-0.8,2.4-1.2,3.6c-0.4,1.2-0.7,2.4-1,3.5
		c-0.9,3.3-2.1,6.4-3.4,9.5l0,0c-0.3,0.7-0.5,1.5-0.8,2.2l0,0l0,0c-1.1,3-2.2,6.1-3.4,9.1c-1.3,3.2-2.9,5.3-4.7,8.3l0.1,0.1
		l-0.1-0.1c-0.8,1.2-1.5,2.6-2.2,3.9l0,0l0,0c0,0-0.1,0.1-0.3,0.3c-0.5,0.6-1.7,2-2.8,3.1c-0.6,0.6-1.1,1.1-1.5,1.5
		c-0.2,0.2-0.4,0.4-0.5,0.5l-0.2,0.1l0,0l0,0l0,0.1v-0.1l0,0l0,0.1v-0.1v0.1l0.1-0.1l-0.1,0v0.1l0.1-0.1l-0.1,0.1h0.1l0-0.1
		l-0.1,0.1h0.1h0l0,0l0,0h0l0,0c0,0,0.1-0.2,0.3-0.4l-0.1-0.1l0.1,0.1c2.2-3,4.2-6.1,5.7-9.5l-0.1-0.1l0.1,0.1
		c0.7-1.5,1.7-2.9,2.4-4.4c0.8-1.7,1.5-3.4,2.2-5.2c1.5-3.8,2.9-7.7,4.2-11.5l-0.1,0l0.1,0c0.9-2.5,1.8-5,2.6-7.5l-0.1,0l0.1,0
		c1.4-4,3.7-8.9,5-12.9l0,0l0,0c0.6-2,2.3-3.9,2.5-6l-0.1,0l0.1,0.1c1.2-1.9,2-3.7,2.5-5.5l-0.1,0l0.1,0c0.1-0.3,0.1-0.6,0.3-1.1
		l0.2-0.5l-0.4,0.3c-1.1,0.9-1.8,1.8-2.5,2.8c-0.7,1-1.5,1.8-2.2,2.8l0.1,0.1l-0.1-0.1c-0.7,0.9-1.3,1.9-2,2.8l0.1,0.1l-0.1-0.1
		c-0.4,0.4-0.6,1-0.9,1.5c-0.3,0.5-0.7,0.9-1.5,1.2l0,0.1l0.1,0c0.4-1.7,1.1-2.9,1.8-4.1l0,0c1.8-3.2,4-6.1,6.5-8.8
		c2.6-2.8,5.1-5.7,7.7-8.5l-0.1-0.1l0.1,0.1c0.5-0.5,2.2-2.6,3.9-4.8c0.9-1.1,1.7-2.2,2.5-3c0.7-0.9,1.3-1.5,1.5-1.7l-0.2-0.2
		c-0.3,0.2-0.8,0.9-1.5,1.7c-2.2,2.6-5.7,7.1-6.4,7.8l0,0l0,0c-2.6,2.8-5.1,5.7-7.7,8.5c-2.5,2.7-4.7,5.6-6.5,8.8l0.1,0.1l-0.1-0.1
		c-0.7,1.2-1.4,2.4-1.8,4.1l-0.1,0.2l0.2-0.1c0.8-0.3,1.3-0.8,1.6-1.3c0.3-0.5,0.5-1.1,0.8-1.4l0,0l0,0c0.7-0.9,1.3-1.9,2-2.8l0,0
		l0,0c0.7-1,1.5-1.8,2.2-2.8c0.7-1,1.4-1.9,2.5-2.8l-0.1-0.1l-0.1,0c-0.2,0.5-0.2,0.8-0.3,1.1l0,0l0,0c-0.5,1.8-1.3,3.6-2.5,5.5l0,0
		l0,0c-0.2,2-1.9,3.9-2.5,6l0.1,0l-0.1,0c-1.3,4-3.6,8.9-5,12.9l0,0l0,0c-0.8,2.5-1.7,5-2.6,7.5l0,0c-1.3,3.8-2.7,7.7-4.2,11.5
		c-0.7,1.8-1.4,3.5-2.2,5.2c-0.7,1.5-1.7,2.9-2.4,4.4l0,0l0,0c-1.5,3.4-3.5,6.5-5.7,9.5l0,0c-0.1,0.1-0.2,0.2-0.2,0.3l-0.1,0.2
		l0,0.1l0.1,0c0.1,0,0.1,0,0.2-0.1c0.4-0.3,1.7-1.6,2.9-2.9c0.6-0.6,1.2-1.3,1.6-1.8c0.2-0.2,0.4-0.5,0.5-0.6
		c0.1-0.2,0.2-0.3,0.3-0.3l-0.1-0.1l0.1,0.1c0.7-1.3,1.4-2.7,2.2-3.9l0,0l0,0c1.8-3,3.4-5.1,4.7-8.3c1.2-3,2.3-6.1,3.4-9.1l-0.1,0
		l0.1,0c0.3-0.7,0.5-1.5,0.8-2.2l0,0c1.3-3.1,2.5-6.2,3.4-9.5c0.3-1.1,0.6-2.3,1-3.5c0.4-1.2,0.8-2.4,1.2-3.6
		c1.2-3.6,4.4-8.1,5.7-11.6l-0.1,0l0.1,0c0.6-1.5,2.4-3,3.2-4.5c0.9-1.7,1.7-3.5,2.8-5l-0.1-0.1l0.1,0.1c2.7-3.6,5.6-7,8.4-10.5
		c0.2-0.3,2-2.7,3.7-5.1c0.9-1.2,1.7-2.4,2.4-3.3c0.3-0.5,0.6-0.9,0.9-1.1c0.2-0.3,0.4-0.5,0.4-0.5L390.9,351.2L390.9,351.2z"/>
	<path d="M393.2,349c2.7-2,4.9-4.1,6.5-6.2c1.4-1.8,1.7-1.7,2.8-3.7c1.3-2.3,9.6-8.3,9.2-7.2c2.9-3,5.4-6.3,8-9.4
		c2.7-3.2,4.8-6.9,7.3-10.2c2.4-3.3,4.7-6.7,6.7-10.6c0.6,0.9,0.4,1.6,0.1,2.1c-0.5,1-1.1,2-1.7,2.9c-2.4,3.6-4.8,7.2-7.3,10.8
		c-1.2,1.6-2.6,3.1-3.8,4.7c-0.6,0.7-1,1.5-1.6,2.2c-1.4,1.8-2.8,3.5-4.3,5.3c-0.8,1-6.6,4.1-7.5,5.1c-0.5,0.6-1,1-1.5,1.6
		c-0.4,0.4-0.8,0.9-1.1,1.4c-1.7,2.5-2.3,3-4,5.5"/>
	<path d="M329.3,347.9c-0.5,0.7-0.9,0.6-1.3,0.4c-2.4-1-4.9-1.9-7.3-2.9c-1.3-0.6-2.5-1.4-3.8-2.1c-2.6-1.5-5.2-3.1-7.8-4.5
		c-2.8-1.6-5.4-3.4-7.7-5.7c-0.4-0.4-0.8-0.7-1.2-1.1c-2-1.9-4-3.8-6-5.7c-2.9-2.8-5.9-5.7-8.7-8.6c-3.7-3.9-7.3-7.9-11.1-11.7
		c-1.4-1.5-3-2.7-4.4-4.1c-0.4-0.4-0.8-0.9-1.1-1.4c-0.3-0.4-0.4-0.8-1.1-1.1c-0.8-0.3-0.5-1.2-0.4-2c0.3,0.9,1.1,1.2,1.8,1.5
		c0.6,0.2,1.1,0.7,1.5,1.1c2.7,2.8,5.3,5.6,7.9,8.4c1.9,2.1,3.8,4.3,5.7,6.4c1.5,1.6,3,3.1,4.5,4.6c2.4,2.5,4.8,5.1,7.3,7.6
		c1.2,1.2,2.4,2.3,3.7,3.3c1.7,1.3,3.6,2.5,5.2,3.9c3.6,3.1,8,5,11.9,7.6c3,2,6.3,3.4,9.6,4.8C327.6,346.9,328.4,347.4,329.3,347.9z
		"/>
	<path d="M434.3,299.4c4.5-9.5,6.9-19.6,8.5-30.2c0.9,1,0.7,2,0.7,2.9c-0.1,2.9-0.7,5.8-1.5,8.6c-1,3.5-2.1,7.1-3.1,10.6
		c-0.6,1.9-1.4,3.7-2.4,5.5c-0.6,1-1.1,1.9-1.7,2.9C434.6,299.5,434.4,299.4,434.3,299.4z"/>
	<path d="M267.1,271.3c0.4,0.3,0.9,0.6,1.2,0.9c1.7,1.8,3.4,3.7,5.1,5.6c1.9,2.1,3.7,4.2,5.5,6.3c0.1,0.1,0.2,0.3,0.4,0.5
		c-1-0.4-4.4-3.7-6.4-6.3c-1.9-2.4-4.3-4.3-6-6.8C266.9,271.5,267,271.4,267.1,271.3z"/>
	<path d="M439.9,272.2c0.1,1.9-1.4,4.5-3.3,5.4C437.8,275.7,438.8,274,439.9,272.2z"/>
	<path d="M302.6,221.2c-1.8,0.5-2.7-0.2-3.4-2.4C300.3,219.6,301.4,220.4,302.6,221.2z"/>
	<path d="M399.5,216.7c1,0.4,1.9,0.8,2.8,1.1c-0.4,0.9-1.1,0.8-1.6,0.6C400.1,218.1,399.4,217.7,399.5,216.7z"/>
	<path d="M427.9,213.8c0.5-1,0.9-1.8,1.3-2.7C430,212.1,429.4,213.5,427.9,213.8z"/>
	<path d="M335.1,219.8c0.6-0.6,1.1-1.1,1.7-1.6c0.6,0.7,0,1.2-0.3,1.7C336.1,220.2,336,220.2,335.1,219.8z"/>
	<path d="M280.6,286.2c-0.1-0.2-0.3-0.4-0.4-0.6l0.1-0.1c0.2,0.2,0.4,0.3,0.6,0.5C280.7,286.1,280.7,286.1,280.6,286.2z"/>
	<path d="M405.3,332.1c0,0-2.4,2.3-5.9,5.8c-1.8,1.7-3.8,3.8-6.1,5.9c-1.1,1.1-2.3,2.2-3.6,3.2c-1.2,1.1-2.6,2.1-4.1,3
		c-0.7,0.4-1.5,0.8-2.3,1.1c-0.8,0.3-1.6,0.5-2.4,0.8c-1.6,0.4-3.2,0.7-4.7,0.9c-1.5,0.2-3.1,0.3-4.5,0.4s-2.8,0.1-4,0
		c-1.2,0-2.4-0.1-3.4-0.3c-1-0.1-1.9-0.3-2.6-0.5s-1.3-0.3-1.6-0.5c-0.4-0.1-0.6-0.2-0.6-0.2s0.2,0.1,0.6,0.1
		c0.4,0.1,0.9,0.2,1.6,0.3c0.7,0.1,1.6,0.2,2.6,0.3c1,0.1,2.1,0.1,3.4,0.1c2.5,0,5.4-0.3,8.4-0.7c1.5-0.2,3.1-0.5,4.6-1
		c0.8-0.2,1.5-0.5,2.3-0.8c0.7-0.3,1.5-0.7,2.2-1.1c2.8-1.6,5.2-3.9,7.5-6s4.5-4,6.3-5.7c1.9-1.7,3.4-3,4.5-3.9
		C404.6,332.6,405.3,332.1,405.3,332.1z"/>
	<path d="M326,340.5c0,0,0.4,0.4,1.2,1c0.8,0.6,2,1.4,3.4,2.3c0.7,0.4,1.5,0.9,2.4,1.4s1.8,0.9,2.7,1.4c0.9,0.5,2,0.9,3,1.4
		c1,0.4,2.1,0.8,3.2,1.2c1.1,0.4,2.2,0.8,3.2,1.1c1.1,0.3,2.1,0.6,3.2,0.9c1,0.3,2,0.5,3,0.7s1.9,0.4,2.7,0.5
		c0.8,0.2,1.6,0.3,2.3,0.4c0.7,0.1,1.3,0.2,1.8,0.3c1,0.2,1.6,0.3,1.6,0.3s-0.6,0-1.6-0.1c-0.5,0-1.1-0.1-1.8-0.1
		c-0.7,0-1.5-0.1-2.4-0.2s-1.8-0.2-2.8-0.4c-1-0.2-2-0.4-3.1-0.6c-1.1-0.3-2.1-0.5-3.2-0.8s-2.2-0.7-3.3-1.1
		c-1.1-0.4-2.2-0.8-3.2-1.3s-2.1-0.9-3-1.5c-0.5-0.3-1-0.5-1.4-0.8s-0.9-0.5-1.3-0.8c-0.9-0.5-1.6-1.1-2.3-1.6c-1.4-1-2.5-2-3.2-2.7
		C326.4,340.9,326,340.5,326,340.5z"/>
	<path class="st60" d="M348.1,253.4c0,0-0.3,0.6-1,1.6c-0.6,1-1.6,2.3-2.9,3.8c-0.4,0.5-0.8,1.1-1.3,1.6c0,0.1,0,0.1,0,0.2
		c0.5-0.6,1-1.1,1.4-1.7c1.2-1.5,2.2-2.9,2.8-3.9C347.8,254,348.1,253.4,348.1,253.4"/>
	<path class="st61" d="M388.8,257c0,0,0.4,0.5,1.1,1.5c0-0.1,0-0.1,0-0.2C389.2,257.5,388.8,257,388.8,257"/>
	<path class="st14" d="M420.5,281.4L420.5,281.4c0.1,0.3,0.1,0.4,0.1,0.4S420.6,281.6,420.5,281.4L420.5,281.4"/>
	<path d="M432.3,299.8c-5.2,9.9-10.9,19.5-17.7,28.5c-6.2,8.3-15.4,12.5-21.9,20.5c0,0,0.8,0.6,0.9,0.4c6.5-8,15.7-12.3,21.9-20.5
		c6.7-9,12.7-18.6,17.7-28.7C433.3,300,432.4,299.6,432.3,299.8z"/>
	<path d="M366.2,290c6.7,0.8,15.6-4.1,21.4-0.7c0.2,0.1,1.2-0.3,1-0.4c-2-1.6-4.3-1.6-6.7-1.3c-5.1,0.6-9.8,2.1-15,1.9
		C366.8,289.5,365.8,290,366.2,290z"/>
	<path d="M360.9,289.2c-3.4-0.4-6.8,0.2-9.9,1.7c-0.5,0.3,0,0.3,0.3,0.2c2.9-1.4,6-2,9.2-1.7C360.6,289.4,361,289.2,360.9,289.2z"/>
	<path d="M403.1,299.3c-0.3,0.8-1.8,1.4-2.2,2.2c-1.3,2.8-4.5,3.7-6.7,5.6c-0.8,0.7-1.5,1.4-2.4,1.9c-1.2,0.7-2.2,1.3-3.5,1.7
		c-3.4,1.1-6.9,2.1-10.5,2c-1.4,0-2.6-0.6-4.2-0.1c1-0.9,2.3-0.4,3.5-0.6c1.9-0.3,3.9,0.6,5.9,0.2c2.9-0.5,5.6-2.5,8.1-4
		c2.6-1.6,4.6-2.1,6.5-4.3c0.6-0.8,3.6-2.9,4-3.8c0.2-0.5,0.5-1.4,1.1-2c0.3-0.3-2.1-0.7-3-1.1c-1.3-0.7-2.7-0.6-3.6-0.8
		c-1.8-0.6-5.4-1.4-7.1-2.5c-2.7-1.7-5.9-1.8-8.4-1.5c-1.9,0.4-3.8,0.9-5.7,1.2c-2,0.3-2.7,0.8-4.7,0.8c-1.4,0-4.1-0.5-5.4-0.9
		c-2.3-0.8-2.6-0.4-4.9-0.4c-1.2,0.6-1.7,0.7-2.2,1c-0.7,0.4-2.1,0.8-1.8,0.5c1-1.3,5.2-2.6,6.4-2.5c3.1,0.2,5.4,1.3,8.6,1.5
		c1.3,0.1,2.8-0.7,4.2-0.9c0.3,0,1.4-0.3,1.7-0.3c1.6-0.2,2.3-0.6,3.9-0.9c2-0.5,3.8,0.2,5.8,0.3c1.6,0.1,3.1,1,4.4,1.9
		c2.4,1.6,6.9,1.8,9.4,3.1c1.8,0.5,6.4,0.6,8.5-0.3"/>
	<path d="M397.1,299.2c-0.9,0.8-2.1,0.7-3.2,0.8c-1,0.2-2.1,0-3.1-0.1c-0.7,0-1.4-0.1-2,0c-1.1,0.1-2.1-0.3-4.1-1
		c1.2-0.4,4.5-0.3,5.7-0.2c1.8,0.1,3.7,0.2,5.5,0.3C396.4,299.1,396.8,299.2,397.1,299.2z"/>
	<path d="M381,301.7c0,0-0.7,0.4-2,0.7c-1.3,0.3-3.2,0.7-5.6,0.8c-1.2,0.1-2.4,0-3.8-0.1c-1.3-0.1-2.8-0.3-4.2-0.6
		c-1.4-0.2-2.8-0.3-4.3-0.4c-1.5,0-3,0.1-4.5,0.2c-1.5,0.2-3,0.4-4.5,0.7c-1.5,0.3-2.9,0.5-4.4,0.7c-1.6,0.2-3,0-4.3-0.2
		s-2.6-0.6-3.7-0.9c-2.2-0.7-4-1.6-5.2-2.2c-0.6-0.3-1-0.6-1.3-0.9c-0.3-0.2-0.4-0.4-0.4-0.4s0.1,0.2,0.4,0.3
		c0.3,0.2,0.8,0.4,1.4,0.7c1.2,0.5,3.1,1.1,5.3,1.7c1.1,0.3,2.3,0.5,3.6,0.6c1.3,0.1,2.7,0.2,4,0c1.4-0.2,2.9-0.6,4.3-0.8
		c1.5-0.3,3-0.5,4.6-0.7s3.1-0.2,4.7-0.2c1.5,0,3.1,0.2,4.5,0.5s2.8,0.5,4.1,0.7c1.3,0.2,2.5,0.3,3.7,0.3c2.3,0.1,4.2,0,5.5-0.2
		C380.3,301.9,381,301.7,381,301.7z"/>
	<path d="M344.9,267.6c-0.1-0.8-0.2-1.6-0.4-2.3c-0.9-2.6-0.6-5.1-0.2-7.7c0-0.1,0.1-0.2,0.1-0.3c0.1-1,0.1-2,1.1-2.6
		c1.5-0.8,2.9-1.7,4.7-1.3c0.8,0.2,1.8,0,2.2,1.2c-0.4,0.1-0.8,0.2-1.1,0.1c-1.8-0.5-3.4,0.4-4.9,1c-0.3,0.1-0.6,0.4-0.7,0.7
		c-0.6,2.2-1,4.5-0.3,6.8c0.7,2.5,1.6,4.9,2.8,7.1c0.3,0.6,1,1.1,1.5,1.5s1,0.6,1.7,0.9c0.4-0.5,0.9-1,1.4-1.5
		c1.3-1.6,2.5-3.3,3.9-4.8c0.4-0.5,1-1,1.5-1c1.1,0,2.3-0.2,3.2,0.7c1.3,1.2,2.6,2.2,3.9,3.4c1.1,1.1,2.7,1.4,4.1,1.9
		c0.4,0.2,1.4,0.2,1.8,0.1c2.5-0.5,4.2-1.2,5.9-3.2c0.7-0.8,1.7-1.5,2.6-2.2c0.3-0.3,0.5-0.6,0.8-0.8c0.1-0.1,0.4,0,0.7,0
		c-1.1,1.3-2,2.4-3.1,3.7c1.1,0.2,1.9-0.5,2.8-0.5s1.7,0.1,2.8,0.1c-0.6-1-1-1.8-1.5-2.6c0.1-0.1,0.2-0.2,0.3-0.2
		c1.4,1.2,2.8,2.4,4.1,3.6c0,0.1-0.1,0.2-0.1,0.3c-1-0.1-2-0.2-2.9-0.2c-2.6-0.2-5,0.6-7.2,1.7c-1.6,0.8-3.2,1.8-4.9,1.9
		c-1.5,0.1-2.5-0.3-3.7-0.7c-0.7-0.2-1.6-0.4-2.3-0.4c-2.9,0.3-5.6-0.5-8.4-0.9c-0.4-0.1-0.9-0.1-1.3-0.2c-0.6-0.2-0.9,0-1.3,0.5
		c-0.5,0.6-1,1.2-1.5,1.8c-0.8,0.8-1.9,1.2-2.8,0.6c-1.4-0.9-2.9-1.8-3.6-3.3c-0.2-0.4-0.2-0.8-0.4-1.1
		C345.8,268.8,345.3,268.2,344.9,267.6z M355.8,270.1c1.7,0.2,3.1,0.4,4.5,0.5c1.4,0,2.7,1,4.2,0.3c-0.7-0.5-1.4-0.9-1.9-1.6
		c-0.8-1.1-2-1.5-3.2-1.9c-1.2-0.3-2.1,0.2-2.7,1.2C356.4,269,356.2,269.5,355.8,270.1z"/>
	<path d="M385,251c3,2.4,5.1,5,5.7,8.6c0.4,2.2,0.3,4.3-0.8,6.3c-0.4,0.6-0.6,1.3-1,2c-0.1,0.3-0.3,0.6-0.5,0.7
		c-0.3,0.1-0.7,0-1.1,0c0-0.3-0.1-0.6,0-0.9c0.3-0.6,0.6-1.1,0.9-1.7c1.3-2.2,1.5-4.6,0.8-7c-0.6-2-1.4-4.1-3.2-5.5
		C385.3,253,384.8,252.2,385,251z"/>
	<path d="M378.8,217.1c-0.4-1.8-1.2-3.4-1.3-5.3c0-1.4-0.3-2.9-0.1-4.3c0.2-1.9,0.7-3.8,1.2-5.6c0.5-1.9,1.1-3.8,1.7-5.7
		c0-0.1,0.1-0.1,0.3-0.2c0.9,0.4,0.7,1.2,0.5,1.9c-0.2,1.2-0.5,2.3-1,3.4c-0.9,2.3-1.6,4.6-1.7,7c-0.1,1.3,0.1,2.6,0.2,3.9
		c0.1,1.6,0.3,3.2,0.5,4.8C379.1,217.1,378.9,217.1,378.8,217.1z"/>
	<path d="M377.2,239.3c0.5,0.7,1.1,1.4,1.4,2.1c0.8,2,1.6,3.9,2.2,6c0.7,2.2,0.7,4.4,0.5,6.7c0,0.3-0.2,0.6-0.4,0.8
		c-0.1,0.1-0.4,0.1-0.8,0.2c0.1-0.6,0.3-1.1,0.2-1.6c-0.1-1.5-0.2-3-0.5-4.4c-0.5-2.2-0.8-2.7-1.5-5c-0.5-1.5-1-3.1-1.5-4.6
		C377,239.4,377.1,239.4,377.2,239.3z"/>
	<path d="M358.4,216.2c0.8,0.8,1.3,1.8,1.6,2.9c0.8,3.1,1.1,4.3,1.5,6.3c0.5,2.5,1.2,5,1.2,7.6c0,0.6,0.1,1.2-0.8,1.4
		C361.2,228.2,359.5,222.3,358.4,216.2z"/>
	<path d="M354.6,253.8c0.2,0.3,0.6,0.6,0.7,1c0.2,0.7,0.3,1.4,0.4,2.2c0.2,0.6,0.4,1.3,0.6,2c1-0.5,1.3-1.3,1.6-2
		c0.7-1.2,1.3-2.5,2-3.6c0.6-1,1.3-1.9,2.4-2.6c0.3,0.7-0.2,1.1-0.4,1.5c-0.6,1.1-1.3,2.2-2,3.3c-0.5,0.8-0.9,1.8-1.5,2.5
		c-0.5,0.6-1.1,1.1-1.8,1.6c-0.2,0.4,0.5,1-0.2,1.3c-0.7,0.2-0.8-0.5-1-1c-0.4-1.5-0.9-2.9-1.3-4.4c-0.1-0.5-0.1-1-0.1-1.6
		C354.3,253.9,354.4,253.9,354.6,253.8z"/>
	<path d="M375.2,250.5c2.2,1.1,3.3,2.3,2.8,4C377,253.1,376.1,251.8,375.2,250.5z"/>
	<path d="M323,203.3c0.1,0.4,0.2,0.9,0.4,1.2c0.9,2.1,0.8,4.1-0.3,6.1c-0.6,1.1-1.3,2.2-2.7,2.3c-1,0.1-2.1,0-3.1-0.3
		c-2-0.6-2.7-1-3.1-3.8c-0.2-1.3-0.1-2.6-0.2-4c-0.9,0-3.6,0.7-3.9,1.7c-1.3,3.4-0.2,4.5,0.3,7.2c0.3,1.6,2.2,3.5,3.7,3.6
		c1.6,0.1,3.1,0.6,4.7,0.2c0.7-0.2,1.4-0.4,2.1-0.3c1.7,0.3,3.3-0.5,4.9-0.6c0.8-0.1,1.5-0.4,2.1-0.5c0.7-1.9,1.7-4.5,1.8-6.4
		c0.1-2-0.6-3.7-1.2-5.4C326.3,203.4,324.4,203.1,323,203.3z M315.2,204.7c0,1.1,0.1,2.2,0.1,3.3c0,1.6,0.7,2.7,2.2,3.5
		c1,0.6,1.9,0.1,2.8,0c0.8-0.1,1.9-0.7,2.1-1.3c0.8-2,1-4.2-0.3-6.2c-0.4-0.6-0.9-0.9-1.7-0.8C318.7,203.3,316.9,203.6,315.2,204.7z
		 M296.5,207.2c1.6,0.3,2.2,0.7,3.3,0.2c-1-0.8-1.9-1.6-2.8-2.3c-0.9-0.8-0.5-2.4,0.5-1.6c0.7,0.7,1.5,1.4,2.5,1
		c-0.4-0.7-0.8-1.3-1.1-2c-0.5-1.1,0.4-0.6,0.7-1c0.9,0.9,1.6,1.9,2.9,1.9c-0.2-1-2-1.4-1.2-3.1c0.4,1.1,1.4,0.4,2,1.1
		c0.5,0.5,1.3,0.8,2.1,0.9c-0.5-0.6-1-1.1-1.5-1.7c0.5-0.6,0.8-0.6,1.3-0.1c1.3,1.4,3.1,2.2,4.8,3c0,0,0.1-0.1,0.3-0.3
		c-0.5-0.3-0.9-0.6-1.4-0.7c-1.3-0.5-2.4-1.4-3.3-2.4c-0.5-0.5-0.4-0.5,0.1-1.3c1,0.6,2.1,1.3,3.1,1.9c0.1-0.1,0.1-0.1,0.2-0.2
		c-0.6-0.9-1.2-1.9-1.9-2.8c-0.3-0.3-0.5-0.5-0.2-0.9c0.3-0.5,0.7-0.2,1,0c0.3,0.2,0.4,0.6,0.7,0.8c0.7,0.5,1.4,1,2.1,1.5
		c0.7,0.4,1.4,0.8,2.2,1.2c0.2,0.1,0.4,0.1,0.6,0.1c-0.6-1.4-2.5-1.9-2.4-3.6c0.6-0.3,0.8,0.1,1,0.4c1.3,1.5,3,2.3,4.9,2.9
		c0,0,0.1-0.1,0,0c-1-1.3-2-2.5-3-3.7c-0.1-0.1,0-0.3,0.1-0.6c0.7,0.7,1.2,1.3,1.8,1.8c0.4-0.5,1-0.7,2.2-0.9
		c1.6,2.1,3.6,3.7,6.3,4.7c-0.9-0.9-1.8-1.5-2.4-2.3c-0.8-1-1.3-2.3-1.9-3.4c-0.1-0.1,0.1-0.4,0.1-0.6c0.6,0,1.1,0,1.4,0.6
		c0.7,1.6,2.2,2.5,3.4,3.7c0.6,0.6,1.3,1.1,2.3,1.9c-0.4-1.4-1.7-2.1-1.1-3.5c0.5,0.3,1,0.4,1.2,0.8c0.6,0.9,3.4,2.1,2,1.8
		c0.2,0.4,0.3,0.6,0.4,0.8c1.7,2.3,4.1,3.8,6.6,5.1c1.2,0.6,2.3,1.3,3.4,2.1c0.9,0.6,1.7,1.4,2.7,2.2c-0.1,0.2-0.4,0.6-0.7,1.2
		c-0.3-1.1-0.9-1.6-1.8-1.7c-0.1,0-0.3-0.1-0.4-0.2c-1.8-2-4.4-2.5-6.7-3.6c-0.6-0.3-1.3-0.6-2-0.9c0,1.6,0.1,3.2-0.1,4.8
		c-0.2,1.5-0.7,4-1.1,5.6c0.1,0,0.4,0,0.7-0.1c2.2-0.8,4.4-1.6,6.6-2.3c1.2-0.4,2.5-0.4,3.9,0c-0.1,0.4-0.1,0.9-0.3,1.1
		c-0.2,0.1-0.8,0-1-0.2c-0.8-0.6-1.5-0.5-2.4-0.1c-2.1,0.9-4.2,1.7-6.3,2.6c-0.3,0.1-0.7,0.2-1,0.3c-2.7,0.1-5.3,1-8,1.4
		c-0.6,0.1-1.1,0.4-1.6,0.6c-1.1,0.6-2.3,1.1-3.4,1.7c-0.6,0.3-1,0.8-1.5,1.1c-0.3,0.2-0.6,0.5-1,0.6c0.4-1.9,2.5-2.2,3.7-3.9
		c-1.3,0.3-2.2,0.6-3.2,0.7c-1.1,0.1-1.8,0.7-2.6,1.3c-0.8,0.6-1.5,1.3-2.4,1.9c0.2-1.2,1.2-1.6,1.9-2.2c0.8-0.7,1.7-1.2,2.6-1.8
		c-1-0.5-1.8-0.7-2.8,0c-1,0.7-2.2,0.9-3.2,1.5c-0.9,0.5-1.6,1.1-2.4,1.7c-0.3,0.2-0.7,0.5-1.1,0.6c0.3-1.4,1.6-1.9,2.6-2.6
		s2.2-1.3,3.4-2.1c-2.8-1.1-4.5,0.1-7,1c0.5-1.5,2.2-1.5,2.6-2.7c-0.3-0.7-0.8-0.7-1.4-0.5c-1.4,0.5-2.9,1-4.3,1.6
		c-0.3,0.1-0.5,0.1-0.9,0.2c0.1-1.2,1.1-1.2,1.7-1.6c0.7-0.4,1.4-0.7,2.3-1.2c-0.5-0.1-0.7-0.3-1-0.3c-1.5,0.3-3,0.7-4.4,1.1
		c-0.4,0.1-0.8,0.2-1.2-0.3c0.4-0.7,1.1-0.8,1.7-1c1-0.4,2-0.7,3.1-0.9c0.5-0.1,1,0.1,1.5,0.4c1.4,0.7,2.5,1.8,3.9,2.4
		c0.5,0.2,0.8,0,1.5,0c0.2,0.3,0.3,1,1.2,0.6c-0.8-3.1-3.4-6.9-1.7-10.4c-0.8,0.1,0.5,0.1-0.1,0.3c-2,0.7-4.1,1.3-6.1,2.1
		c-2.1,0.9-4.2,1-6.4,0c-1.3-0.5-0.9-1.1-0.4-1.2C296,207.1,296.5,207.2,296.5,207.2z"/>
	<path d="M399.8,198.4c-0.7,0.8-1.2,1.7-1.6,2.6s-0.6,1.9-0.6,2.9v0.7c0,0.2,0.1,0.5,0.1,0.7c0,0.2,0.1,0.5,0.2,0.7
		c0.1,0.2,0.1,0.5,0.2,0.7c0.2,0.5,0.4,0.9,0.6,1.4c0.1,0.2,0.2,0.5,0.4,0.6l0.5,0.6c0.3,0.5,0.7,0.7,1,1.1c0.4,0.3,0.8,0.7,1.2,0.9
		c0.2,0.1,0.4,0.3,0.7,0.4l0.7,0.3c0.5,0.2,1,0.3,1.5,0.4c0.3,0,0.5,0.1,0.8,0.1h0.8c0.5,0,1,0,1.5-0.1c0.5,0,1-0.1,1.5-0.2
		s1-0.2,1.5-0.4h0.1c1.4-0.3,2.8-0.7,3.9-1.5c0.3-0.2,0.6-0.4,0.8-0.6c0.3-0.2,0.5-0.5,0.7-0.7c0.2-0.3,0.4-0.5,0.5-0.8
		c0.1-0.3,0.3-0.7,0.4-1c0.5-1.3,0.8-2.7,0.8-4.2c0-0.7,0-1.4-0.2-2.1c-0.1-0.3-0.2-0.7-0.3-1c-0.1-0.3-0.3-0.6-0.6-0.9l0.1-0.1
		c0.3,0.2,0.5,0.5,0.7,0.9c0.2,0.3,0.4,0.7,0.5,1c0.3,0.7,0.4,1.5,0.5,2.2c0.1,0.8,0,1.5-0.1,2.3c0,0.4-0.1,0.8-0.2,1.1
		c-0.1,0.4-0.2,0.7-0.3,1.1c-0.1,0.4-0.2,0.7-0.4,1.1c-0.2,0.4-0.4,0.7-0.6,1c-0.3,0.3-0.5,0.6-0.9,0.9c-0.3,0.3-0.6,0.5-1,0.7
		c-0.7,0.4-1.4,0.7-2.1,0.9c-0.7,0.2-1.5,0.4-2.2,0.5h0.1c-1.1,0.3-2.1,0.4-3.2,0.4c-0.5,0-1.1,0-1.6-0.1s-1.1-0.2-1.6-0.3
		s-1-0.3-1.5-0.5l-0.7-0.3l-0.7-0.4c-0.2-0.1-0.5-0.3-0.7-0.4c-0.2-0.2-0.5-0.3-0.7-0.4c-0.4-0.4-0.9-0.7-1.2-1.1l-0.5-0.6
		c-0.2-0.2-0.3-0.5-0.5-0.7c-0.3-0.4-0.6-0.9-0.8-1.4c-0.2-0.5-0.4-1-0.4-1.6c0-0.3-0.1-0.5-0.1-0.8v-0.8c0.1-0.5,0.1-1.1,0.3-1.6
		c0.2-0.5,0.4-1,0.6-1.5C398.2,199.8,398.9,199,399.8,198.4z"/>
	<path d="M417.6,210.2c1.8-0.2,3.3-0.8,4.7-1.7c0.8-0.5,1.6-1,2.4-1.5c0.2-0.1,0.4,0.1,0.7,0.1c-0.4,0.5-1.3,0.6-1.2,1.6
		c1.8,0.4,3.6,0.8,4.9,2.3c-0.7,0.6-1.2,0.2-1.6-0.1c-1.2-0.8-2.6-1.2-4.1-1.2c-0.4,0-0.7,0.1-1.2,0.1c0.5,1.1,2.1,1.3,1.8,2.8
		c-0.2-0.1-0.4-0.1-0.5-0.2c-0.2-0.1-0.4-0.3-0.5-0.5c-1.6-1.5-1.6-1.5-3.8-0.6c0.6,0.8,1.2,1.7,1.9,2.6c-0.7,0.1-0.9-0.3-1.2-0.6
		c-1.5-1.5-1.9-1.7-3.9-1.4c1.1,0.8,2.4,1.2,3.2,2.8c-1.3-0.5-2.2-1-3.2-1.3c-1-0.3-2-0.6-3.2-0.9 M400.4,197.9
		c-1.8,0.1-3.9,1.6-9.4,6.7c-0.1-0.3-0.3-0.6-0.2-0.8c0.2-0.5,0.4-1.1,0.8-1.4c2.2-1.6,6.2-5.9,8.8-6.4c0.4-0.2,0.3-0.3,1.8-0.6
		c0.7-0.3,1-0.4,1.5-0.7c1.5-1.1,3-2.3,4.5-3.4c0.6,0.9-0.2,1.6-0.5,2.5c2.3-0.4,4.2-1.2,5.6-3.2c0.5,0.8,0.5,0.8-0.9,2.6
		c1.1,0.1,3.7-1.3,5.9-3.1c0.1,1-0.4,1.9-1.4,2.6c-0.8,0.6-1.7,1.1-2.4,1.8c2.6-0.5,4.7-1.7,6.5-3.6c0,0.8,0,0.8-2.2,3.4
		c1.2-0.4,2.3-0.8,3.5-1.1c0.1,0.1,0.1,0.2,0.2,0.3c-0.5,0.5-1.1,1-1.8,1.7c1.1-0.4,2.1-0.7,2.9-1.1s1.6-1,2.4-1.5
		c0.3,1-0.6,1.6-0.9,2.6c1.3,0,2.1-0.7,3.3-1.4c-0.7,2-2.2,2.5-3.7,3.4c2.5-0.4,4.4-1.6,6.1-3.2c-0.1,1.7-0.3,2-3,4.4
		c2.3-0.7,4.6-1.7,6.7-3.3c-0.1,1.6-1,2.3-2.1,3.1c0.1,0,0.3,0,0.4,0s0.3-0.1,0.4-0.1c0.1,0.3,0.3,0.6,0.5,1.1
		c1.4-1.2,2.6-2.3,3.4-3.8c0.8-1.4,1.4-3,2.1-4.5c0.3,1.2,0.4,2.5-0.3,3.7c-0.6,0.9-1.2,1.8-1.9,2.7c-0.5,0.7-1.1,1.3-1.5,2.1
		c-0.3,0.9-1.4,1.4-2.4,1.6c-2.5,0.6-4.9,0.5-7.4-0.5c-1.6-0.6-3.4-1-5.3-1.6"/>
	<path d="M424.8,206.1c0.1-0.5,0.2-0.9,0.4-1.4c0.7-1.4,2.1-2.6,2.1-4.4c0.9,1.5,2.3,1.6,3.7,1.8c0.2,0.8-0.3,1.1-1,1.1
		c-0.9,0-1.7,0.1-2.6,0.1c0,0.1,0,0.2-0.1,0.3c0.6,0.2,1.2,0.4,1.8,0.6c0.6,0.2,1.3,0.2,1.5,1.1c-0.7,0.6-1.2,0.1-1.8-0.3
		c-1.2-0.7-2.1-0.5-3.1,0.7c0.9,0.4,1.8,0.7,2.8,1.1c-1.1,0.2-1.8,0.1-2.7-0.5C425.5,206,425.2,205.8,424.8,206.1
		C424.8,206,424.8,206.1,424.8,206.1z"/>
	<path d="M403.9,197.7c-1.3,0.1-2.4,1.2-2.9,2.3c-0.3,0.7-0.4,1.4-0.4,2.1c0,0.5,0.1,1,0.1,1.5l0.5-0.1l-0.5,0.1
		c0.1,0.6,0.2,1.3,0.6,1.8l0.4-0.3l-0.4,0.3c0.4,0.7,1,1.1,1.6,1.3c0.6,0.3,1.3,0.4,2,0.6l0.1-0.5l-0.1,0.5c0.7,0.2,1.6,0.4,2.5,0.4
		c0.9,0,1.9-0.2,2.6-0.9l-0.3-0.4l0.3,0.4c0.7-0.6,1.1-1.5,1.3-2.4l0,0l0,0c0.1-0.8,0.1-1.7,0.1-2.5c0-0.4,0-0.9-0.1-1.4l0,0l0,0
		c-0.2-0.6-0.5-1-0.9-1.3c-0.4-0.3-0.8-0.6-1.2-0.8l0,0l0,0c-1.3-0.6-2.9-0.9-4.4-0.9c-0.4,0-0.8,0-1.2,0.1l0.1,1
		c0.3,0,0.7-0.1,1.1-0.1c1.4,0,2.8,0.3,4,0.8l0.2-0.5l-0.2,0.4c0.4,0.2,0.8,0.4,1,0.6c0.3,0.2,0.5,0.5,0.6,0.9l0.5-0.2l-0.5,0.1
		c0.1,0.3,0.1,0.8,0.1,1.2c0,0.8,0,1.6-0.1,2.3l0.5,0.1l-0.5-0.1c-0.2,0.8-0.5,1.5-0.9,1.8l0,0l0,0c-0.5,0.5-1.2,0.6-1.9,0.6
		c-0.7,0-1.5-0.2-2.2-0.3l0,0l0,0c-0.6-0.1-1.3-0.3-1.8-0.5c-0.5-0.2-0.9-0.5-1.2-1l0,0l0,0c-0.2-0.2-0.3-0.8-0.4-1.4l0,0l0,0
		c-0.1-0.4-0.1-0.9-0.1-1.3c0-0.6,0.1-1.2,0.3-1.7c0.3-0.8,1.2-1.6,2.1-1.7L403.9,197.7L403.9,197.7z"/>
	<path d="M342,206.8c0,0-0.7-0.5-1.9-1.2c-1.2-0.7-3-1.7-5.1-2.8c-1.1-0.5-2.3-1.1-3.5-1.6c-1.3-0.5-2.6-1-4-1.6
		c-1.4-0.5-2.9-1-4.4-1.3c-1.5-0.4-3.1-0.7-4.7-0.9c-1.6-0.2-3.2-0.4-4.7-0.4c-0.8,0-1.6,0-2.3,0c-0.8,0-1.5,0.1-2.3,0.2
		c-3,0.3-5.7,1-7.9,1.9c-0.6,0.2-1.1,0.4-1.6,0.7c-0.5,0.2-1,0.4-1.4,0.6c-0.9,0.5-1.6,0.9-2.2,1.2c-1.2,0.8-1.9,1.2-1.9,1.2
		s0.6-0.5,1.8-1.4c0.6-0.4,1.3-0.9,2.1-1.4c0.9-0.5,1.8-1.1,3-1.5c1.1-0.5,2.4-0.9,3.7-1.3c1.3-0.4,2.8-0.7,4.3-0.9
		c0.8-0.1,1.5-0.2,2.3-0.2s1.6-0.1,2.4,0c1.6,0,3.2,0.2,4.9,0.4c1.6,0.3,3.2,0.6,4.8,1c1.6,0.4,3,0.9,4.5,1.4
		c2.9,1.1,5.4,2.3,7.5,3.5c2.1,1.2,3.8,2.3,5,3.1C341.4,206.2,342,206.8,342,206.8z"/>
	<path d="M385.5,203.8c0,0,1.8-2.1,4.9-4.6c1.6-1.3,3.5-2.7,5.7-4c1.1-0.6,2.3-1.3,3.5-1.8c1.2-0.6,2.5-1.1,3.8-1.5s2.6-0.8,3.9-1.1
		c1.3-0.3,2.6-0.5,3.9-0.6s2.5-0.1,3.7,0s2.3,0.2,3.3,0.4c1,0.1,1.9,0.5,2.7,0.7c0.8,0.3,1.5,0.5,2,0.7c1.1,0.5,1.7,0.8,1.7,0.8
		s-0.6-0.2-1.7-0.6c-0.6-0.2-1.3-0.4-2-0.6c-0.4-0.1-0.8-0.2-1.3-0.3c-0.4-0.1-0.9-0.2-1.4-0.3c-1-0.2-2.1-0.2-3.2-0.3
		c-1.1,0-2.4,0-3.6,0.1s-2.5,0.3-3.8,0.6c-1.3,0.3-2.6,0.7-3.8,1.1c-1.3,0.4-2.5,0.9-3.7,1.5c-1.2,0.5-2.4,1.1-3.4,1.8
		c-1.1,0.6-2.1,1.2-3.1,1.9c-1,0.6-1.9,1.3-2.7,1.8c-1.6,1.2-2.9,2.3-3.8,3C386,203.3,385.5,203.8,385.5,203.8z"/>
	<path d="M386.2,212.2c0,0,0-0.1,0.1-0.2c0.5-1,3-5.4,7.2-9.6c4.3-4.2,10.3-8,17.9-8c5,0,10.8,1.7,17.3,6.2c0.2,0.2,0.5,0.1,0.7-0.1
		c0.2-0.2,0.1-0.5-0.1-0.7c-6.6-4.6-12.6-6.4-17.8-6.4c-8.5,0-15,4.6-19.4,9.2c-4.4,4.6-6.7,9.1-6.7,9.2c-0.1,0.2,0,0.5,0.2,0.7
		C385.8,212.6,386.1,212.5,386.2,212.2L386.2,212.2z"/>
	<path d="M388.3,213.2L388.3,213.2c0.2-0.1,2.3-1.3,4.5-1.3c0.4,0,0.8,0,1.2,0.1l0,0c0.5,0.1,2.2,0.6,4.4,1c2.2,0.4,5.1,0.8,8.2,0.8
		c3.3,0,6.9-0.4,10.2-1.7c3.4-1.3,6.5-3.5,8.9-6.9c0.2-0.2,0.1-0.5-0.1-0.7c-0.2-0.2-0.5-0.1-0.7,0.1c-2.3,3.3-5.2,5.3-8.4,6.5
		c-3.2,1.2-6.7,1.7-9.9,1.7c-3,0-5.8-0.4-8-0.8c-2.2-0.4-3.8-0.8-4.4-0.9l0,0l0,0c-0.5-0.1-0.9-0.1-1.4-0.1c-2.7,0-4.9,1.4-5,1.4
		c-0.2,0.1-0.3,0.4-0.2,0.7C387.7,213.3,388,213.4,388.3,213.2L388.3,213.2z"/>
	<path d="M400.5,197.5c0,0-8.9,2.5,1.6-0.1s15.2-1,19.2,1.1s4.4,5.1,10.6,6c0,0-2.2,0-3.2-1.5s5.4,0.9,6.8-0.4c0,0-5.1-0.5-7.8-1.1
		c0,0,6.9,0.6,7-0.2c0.1-0.8-8.5,0.2-9.6-0.9c0,0,2.4,0.6,6.4-1.4s-3.5,0.9-5.8,0.1s-9.9-3.2-5-1.9c4.9,1.3,11.6-0.4,7.5-0.1
		s-15-1.6-12-1.2c3,0.4,0.2-1.6-3-0.4l3.2-1.2c0,0-6.5,0.4-7.1,0.9s1.9-2.4-0.8-1.2c-2.7,1.2-4,3-4.2,1.8c-0.2-1.2,0.5-0.6-1.6,0.6
		s-4.4,1.8-4.6,2.4"/>
	<path d="M301.5,181.7c1-0.1,13.5-0.4,14.4-0.4c3.8-0.3,7.7-0.5,11.5,0.6c2.2,0.6,4.6,0.8,6.8,1.6c2.4,0.9,4.9-0.6,7.3,0.4
		c2.6,1.1,5.1,2.5,7.8,3.8c0.1,0.4,0.1-1.1,0.2-0.4c0.3-0.5,0.5-0.7,0.6-0.9c1.6,0.1,1.6,0.1,2.3,1.3c-0.5-0.3-0.8-0.5-1.4-0.9
		c0.1,0.6,0.1,1,0.2,1.3c1.1,3.1,2.2,6.2,3.4,9.3c0.1,0.1,0.1,0.3,0.1,0.4c2.3,2.5,2.4,5.7,2.8,8.8c0.1,0.6-0.1,1.3-0.1,1.9
		c-0.1,0-0.2,0-0.3,0c-0.2-1.1-0.5-2.2-0.6-3.4c-0.3-2.3-1.1-4.4-2-6.5c-0.3-0.8-0.9-1.1-1.7-1.4c-2.3-0.8-4.7-1.4-6.8-2.7
		c-0.4-0.3-0.9-0.4-1.3-0.6c-0.6-0.3-1.1-0.7-1.7-1.1c0.1-0.1,0.1-0.2,0.2-0.3c3.4,1.5,6.8,2.9,10.5,4.5c-0.9-3.4-2-6.2-3.4-9
		c0.1,2,1.5,3.7,1.3,5.7c-0.7-1.7-1.3-3.5-2-5.2c-0.2-0.5-0.4-0.9-0.6-1.4c-0.4-1.1-1.2,0.3-2.3,0.1c-1.7-0.3-3.2-0.9-4.6-1.9
		c-0.9-0.6-2-1-3.1-1.4c-3.4-1.4-7.2,0.2-10.7-0.8c-4.1-1.2-8.3-1.6-12.6-0.9c-2.7,0.4-14.7-1.2-15.2,1.5c-0.3,1.8-0.6,4.6-0.9,6.5
		c0.3,0.6,4.9-2.5,5.5-2.5c2.1-0.1,12.1,0.6,14.2,0.5c1.7-0.1,3.4,1,5.1,1.1c0,0.1,0,0.2,0,0.3c-1.4,0.2-2.8-0.6-4.2-0.5
		c-2.4,0.2-12.7-0.7-15.1-0.6c-1.8,0.1-6,2.5-6.5,4.2C299.8,182.2,301.5,181.7,301.5,181.7z"/>
	<path d="M383.1,186.2c-0.4,0.3-1.1,0.5-1.2,0.9c-0.9,2-1.7,4.1-2.6,6.1c-0.2,0.6-0.5,1.1-0.8,1.6c-0.1,0-0.2-0.1-0.3-0.1
		c0.4-1.3,0.8-2.6,1.2-3.8c0.6-1.8,1.3-3.5,2-5.3c0.5-1.2,0.5-1.2,2.1-2.1c-0.1,0.6-0.2,1.1-0.3,1.5
		C383,185.4,383,185.8,383.1,186.2z"/>
	<path d="M381.6,194.1c0.6-1.6,1.1-3.2,1.7-4.7c0.5-1.2,0.9-2.5,1.4-3.7c0.1-0.2,0.5-0.4,1-0.4c-1.1,2.5-2.1,5-3.2,7.7
		c0.4,0.1,0.7,0.3,1.1,0.4c-0.1,0.2-0.1,0.4-0.2,0.4C382.8,194.1,382.3,195,381.6,194.1z"/>
	<path d="M347.4,185.9c0.8-0.1,1.1,0.5,1.2,1.2c0.2,1.2,0.6,2.4,0.7,3.6c0.1,0.7-0.1,1.4-0.4,2.1C348.5,190.5,348,188.2,347.4,185.9
		z"/>
	<path d="M326.4,188.5c1.6,0.6,3.2-0.8,4.7-0.2c-1.8,0-3.5,1.6-4.9,0.5C326.3,188.8,326.4,188.7,326.4,188.5z"/>
	<path d="M383,186.3c-0.4,1.9-1.4,3.5-2.1,5.2C381.2,189.6,381.7,187.7,383,186.3C383.1,186.2,383,186.3,383,186.3z"/>
	<path d="M333.3,190.2c0.8,0.4,1.7,0.8,2.6,1.3c-0.6,0.7-1.1,0.2-1.5,0c-0.5-0.2-0.8-0.6-1.3-0.9
		C333.2,190.5,333.2,190.3,333.3,190.2z"/>
	<path d="M386.8,181.5c-0.2,0.6-0.3,1.4-1.3,1.4C385.5,182,386.6,182.1,386.8,181.5z"/>
	<path d="M387.4,182.8c2.3-0.1,4.5-0.7,6.5-1.8c0.4-0.2,0.9-0.5,0.3-0.8c-0.5-0.3-1.6,0.1-2,0.4c-1.1,0.6-2.3,0.9-3.5,1
		c-0.6,0-1.6,0.2-1.9,0.7C386.3,182.8,387,182.8,387.4,182.8z"/>
	<path d="M398.2,179.6c2.8-0.4,5.3-1.4,7.9-2.5c4-1.7,8-2.8,12.3-3.5c1.2-0.2,2.5-1.5,0.5-1.2c-3,0.5-6,1.2-9,2.1
		c-3.7,1.2-7.3,3.3-11.2,3.8C397.5,178.6,396.2,179.9,398.2,179.6z"/>
	<path d="M424.1,172.5c1.3-0.5,2.4-1.3,3.8-1c1,0.2,1.9,0.9,2.8,1.3c1.4,0.7,2.8,1.8,4.3,2c0.4,0.1,1.7-0.6,0.9-0.7
		c-2.5-0.4-4.5-2.5-6.8-3.3c-2.1-0.7-3.6,0.4-5.5,1.1C422.6,172.4,423.5,172.7,424.1,172.5z"/>
	<path d="M386.9,193.2c7.7-3.7,16.3-5.1,23.8-9.1c4.1-2.1,7.4-4.4,11.9-5.4c4.6-1,8.4-1.8,12.8,0.6c0.5,0.3,2.3-0.6,2.1-0.7
		c-3.9-2.1-6.1-2.6-10.3-1.5c-3.4,0.8-7.1,1.2-10.4,2.5c-1.9,0.7-3.3,1.9-5,3c-3.6,2.2-7.4,3.7-11.4,4.8c-5,1.4-9.9,3.3-14.6,5.6
		C384.4,193.6,386.4,193.5,386.9,193.2z"/>
	<path d="M402.5,62.8c0,0-1.5-0.9-4.3-2.3c-2.8-1.5-7.1-3.5-12.6-5.9c-5.5-2.3-12.3-5-20.2-7.4c-8-2.4-17.1-4.7-27.2-6.2
		s-21.2-2.1-32.8-1.1c-11.6,1-23.7,3.8-35.3,8.9c-11.6,5.1-22.7,12.4-32.4,21.6c-9.7,9.2-18,20-25,31.6l-2.6,4.4l-2.5,4.5
		c-1.6,2.9-3,6-4.2,9.1c-2.5,6.3-4.6,12.7-6.3,19.1c-3.4,12.9-5.3,26-6.1,38.8c-0.4,6.4-0.4,12.6-0.3,18.8c0.2,6.1,0.6,12.1,1.2,18
		c1.2,11.6,3.3,22.6,5.8,32.5s5.3,18.9,8.1,26.7s5.6,14.5,8.1,20c2.5,5.4,4.5,9.7,5.9,12.6s2.2,4.4,2.2,4.4s-0.8-1.5-2.4-4.3
		c-1.5-2.8-3.7-7-6.3-12.4s-5.6-12.1-8.6-19.8c-3-7.8-6.1-16.7-8.7-26.7c-2.7-9.9-4.9-20.9-6.3-32.6c-1.4-11.7-2-24.2-1.3-37.1
		c0.7-12.9,2.6-26.2,6-39.3c1.7-6.6,3.8-13.1,6.3-19.5c1.3-3.2,2.7-6.4,4.3-9.4l2.5-4.5l2.6-4.5c7.1-11.8,15.7-22.8,25.6-32.2
		C245.6,59,257,51.5,269,46.4c6-2.5,12.1-4.5,18.1-6c6.1-1.4,12.1-2.3,18.1-2.7c11.8-0.9,23.1-0.1,33.3,1.6
		c10.2,1.6,19.3,4.1,27.3,6.8c7.9,2.6,14.7,5.4,20.1,7.9c5.5,2.5,9.6,4.7,12.4,6.3C401,61.8,402.5,62.8,402.5,62.8z"/>
	<path d="M386.5,69.5c0,0-1.9-1-5.2-2.5c-1.7-0.8-3.7-1.7-6.1-2.7s-5.1-2-8-3.2c-2.9-1.1-6.2-2.2-9.6-3.4c-1.7-0.5-3.5-1.1-5.3-1.6
		s-3.7-1.1-5.6-1.6s-3.8-1-5.8-1.5c-2-0.4-4-0.9-6-1.3s-4.1-0.8-6.1-1.1c-1-0.2-2.1-0.3-3.1-0.5c-1-0.1-2.1-0.2-3.1-0.4
		c-4.1-0.5-8.3-0.7-12.4-0.8c-2.1,0-4.1,0.1-6.1,0.1c-1,0.1-2,0.1-3,0.2s-2,0.1-2.9,0.3c-1.9,0.3-3.9,0.4-5.7,0.8
		c-1.8,0.4-3.7,0.6-5.4,1.2c-1.7,0.5-3.4,0.9-5,1.4c-0.8,0.3-1.6,0.5-2.4,0.8c-0.4,0.1-0.8,0.3-1.1,0.4c-0.4,0.2-0.7,0.3-1.1,0.5
		c-1.4,0.6-2.8,1.2-4.1,1.8c-1.3,0.7-2.5,1.3-3.6,1.9c-1.2,0.5-2.1,1.3-3.1,1.8c-0.9,0.6-1.8,1.1-2.6,1.6c-3,2.2-4.6,3.5-4.6,3.5
		s1.6-1.4,4.4-3.8c0.8-0.5,1.6-1.1,2.5-1.8c0.9-0.6,1.9-1.4,3-2c1.1-0.7,2.3-1.3,3.5-2.1c1.3-0.7,2.7-1.3,4.1-2
		c0.4-0.2,0.7-0.3,1.1-0.5c0.4-0.1,0.8-0.3,1.1-0.4c0.8-0.3,1.6-0.6,2.4-0.9c1.6-0.7,3.3-1.1,5.1-1.6c3.5-1,7.3-1.8,11.2-2.3
		c1-0.2,2-0.2,3-0.3c1-0.1,2-0.2,3-0.3c2-0.1,4.1-0.2,6.2-0.2c4.2,0.1,8.4,0.2,12.6,0.7c1.1,0.1,2.1,0.2,3.2,0.4
		c1,0.2,2.1,0.3,3.1,0.5c2.1,0.3,4.1,0.7,6.2,1.1c4.1,0.8,8.1,1.8,11.9,2.9c3.8,1.1,7.5,2.3,10.9,3.5c1.7,0.6,3.4,1.2,5,1.8
		c1.6,0.6,3.1,1.2,4.6,1.9c5.8,2.5,10.6,4.8,13.8,6.5C384.7,68.4,386.5,69.5,386.5,69.5z"/>
	<path d="M393,85.1c0,0-0.5-0.2-1.4-0.6s-2.3-1-4.1-1.6c-1.8-0.7-3.9-1.4-6.4-2.3c-2.5-0.8-5.3-1.7-8.5-2.6
		c-3.1-0.9-6.5-1.7-10.1-2.5s-7.5-1.6-11.5-2.2c-4-0.6-8.2-1-12.5-1c-2.1-0.1-4.3,0.1-6.4,0.1c-2.2,0.1-4.3,0.4-6.5,0.6l-3.2,0.5
		c-1.1,0.1-2.1,0.3-3.2,0.5c-2.1,0.4-4.2,0.7-6.3,1.3c-1,0.2-2.1,0.5-3.1,0.7c-1,0.3-2,0.6-3,0.8c-1,0.3-2,0.6-3,0.9s-1.9,0.7-2.9,1
		s-1.9,0.7-2.8,1c-0.9,0.4-1.8,0.7-2.7,1.1c-0.9,0.4-1.8,0.7-2.7,1.1c-0.9,0.3-1.7,0.8-2.6,1.1c-3.4,1.5-6.5,3.1-9.4,4.6
		c-1.4,0.8-2.7,1.6-4,2.3c-0.6,0.4-1.3,0.7-1.9,1.1s-1.2,0.7-1.7,1.1c-1.1,0.7-2.1,1.4-3.1,2c-0.5,0.3-0.9,0.6-1.4,0.9
		c-0.4,0.3-0.8,0.6-1.2,0.9c-3.1,2.2-4.9,3.4-4.9,3.4l-0.1-0.2c0,0,1.6-1.4,4.5-3.9c0.4-0.3,0.7-0.6,1.1-1c0.4-0.3,0.9-0.6,1.3-1
		c0.9-0.7,1.9-1.4,3-2.2c0.5-0.4,1.1-0.8,1.7-1.2s1.2-0.8,1.8-1.2c1.3-0.8,2.6-1.7,4-2.5c1.4-0.8,2.9-1.6,4.5-2.5
		c0.4-0.2,0.8-0.4,1.2-0.6c0.4-0.2,0.8-0.4,1.2-0.6c0.8-0.4,1.7-0.8,2.5-1.2c0.9-0.4,1.7-0.8,2.6-1.2c0.9-0.4,1.8-0.7,2.7-1.1
		c0.9-0.4,1.9-0.7,2.8-1.1c1-0.3,1.9-0.6,2.9-0.9s2-0.6,3-0.9c1-0.3,2-0.5,3-0.8s2-0.6,3.1-0.8c1-0.2,2.1-0.4,3.2-0.6
		c2.1-0.5,4.3-0.7,6.4-1c1.1-0.2,2.2-0.3,3.3-0.3l3.3-0.3c4.4-0.2,8.7-0.3,13-0.2c1.1,0,2.1,0,3.2,0.1c1.1,0.1,2.1,0.1,3.2,0.1
		c2.1,0.1,4.2,0.3,6.2,0.4c4.1,0.4,8,0.8,11.7,1.6c1.8,0.3,3.6,0.8,5.3,1.2c1.7,0.5,3.4,0.9,4.9,1.4c3.1,1,6,2,8.4,3
		c2.5,1,4.6,1.9,6.3,2.8c3.4,1.7,5.3,2.9,5.3,2.9L393,85.1z"/>
	<path d="M393,91c-4.1,0.4-8.2,1-12.3,1.7c-4.1,0.7-8.1,1.4-12.2,2.3c-4,0.9-8,1.8-12,2.9c-4,1.1-7.9,2.3-11.8,3.6
		c-7.8,2.7-15.4,5.9-22.3,10.2c-3.4,2.2-6.7,4.6-9.7,7.4c-2.9,2.8-5.4,6-7.3,9.5l-0.1,0.2l-0.2,0.2c-0.1,0.1-0.4,0.4-0.6,0.6
		s-0.4,0.5-0.6,0.8c-0.4,0.5-0.8,1.1-1.1,1.7c-0.7,1.2-1.2,2.5-1.7,3.8c-1,2.6-1.6,5.4-2,8.2c-0.8,5.6-0.7,11.4-0.2,17.1
		c0.1,1.4,0.3,2.9,0.5,4.3l0.3,2.2l0.1,1.1l0.1,1.2c0.2,3,0.1,6.1-0.5,9.1c-1.1,6-3.9,11.5-7.3,16.4s-7.4,9.3-11.4,13.5
		c-4,4.2-8.2,8.3-12,12.7c-3.8,4.3-7.3,8.9-9.8,14c-0.6,1.3-1.2,2.6-1.7,3.9c-0.5,1.3-1,2.7-1.5,4.1c-0.9,2.7-1.7,5.5-2.4,8.3
		c-1.4,5.6-2.4,11.3-2.8,17c-0.4,5.7-0.3,11.5,0.4,17.2s1.9,11.3,3.5,16.9c0.7,2.8,1.6,5.6,2.2,8.6c0.2,1.5,0.5,3.1,0,4.9l-0.1,0.3
		l-0.1,0.1v0.1l-0.1,0.1c-0.1,0.1-0.2,0.4-0.3,0.6c-0.3,0.4-0.5,0.7-0.8,1c-0.6,0.6-1.1,1.1-1.7,1.6c-2.4,1.9-4.8,3.4-7.1,5.2
		c-2.3,1.7-4.4,3.6-6.3,5.7c-3.8,4.2-6.5,9.4-7.8,14.9c-1.3,5.6-1.3,11.4-0.5,17.2c0.8,5.7,2.2,11.4,4,17c-2.2-5.4-3.9-11-4.9-16.8
		s-1.3-11.8-0.1-17.6c1.1-5.9,3.9-11.4,7.8-16c1.9-2.3,4.1-4.3,6.4-6.2c2.3-1.9,4.7-3.6,6.9-5.3c1-0.9,2.1-1.9,2.3-2.7
		c0.3-1,0.2-2.4-0.1-3.7c-0.5-2.7-1.4-5.5-2.1-8.4c-1.6-5.6-2.9-11.4-3.6-17.3c-0.7-5.9-0.9-11.8-0.5-17.7
		c0.4-5.9,1.4-11.8,2.8-17.5c0.7-2.9,1.6-5.7,2.5-8.5c0.5-1.4,0.9-2.8,1.5-4.2c0.5-1.4,1.1-2.8,1.8-4.1c2.7-5.4,6.3-10.2,10.1-14.6
		c3.9-4.5,8-8.6,12-12.8c4-4.2,7.9-8.4,11.2-13.1c3.3-4.7,5.8-9.8,6.9-15.3c0.5-2.7,0.7-5.6,0.5-8.3l-0.1-1l-0.1-1.1l-0.3-2.2
		c-0.2-1.5-0.3-2.9-0.5-4.4c-0.5-5.9-0.6-11.8,0.3-17.8c0.4-3,1.1-5.9,2.2-8.7c0.5-1.4,1.2-2.8,1.9-4.1c0.4-0.7,0.8-1.3,1.3-1.9
		c0.2-0.3,0.5-0.6,0.7-0.9c0.3-0.3,0.5-0.6,0.9-0.9l-0.3,0.4c2-3.8,4.8-7.1,7.9-10c3.1-2.9,6.6-5.3,10.1-7.5c7.2-4.3,15-7.4,22.8-10
		c3.9-1.3,8-2.3,12-3.3s8.1-1.8,12.1-2.6C376.6,92.7,384.8,91.6,393,91z"/>
	<path d="M172.5,231c0,0,0.3,2.7,0.9,7.4c0.3,2.4,0.7,5.2,1.1,8.5c0.4,3.3,1,6.9,1.6,11c0.3,2,0.6,4.1,1,6.2
		c0.4,2.2,0.7,4.4,1.1,6.7c0.4,2.3,0.9,4.6,1.3,7c0.5,2.4,1,4.8,1.4,7.3c0.5,2.5,1.1,5,1.6,7.6c0.6,2.5,1.2,5.1,1.7,7.7
		c1.2,5.2,2.5,10.4,3.9,15.7c2.7,10.5,5.6,20.9,8.1,30.7c1.3,4.9,2.4,9.7,3.2,14.3c0.8,4.6,1.3,9,1.2,13.1s-0.9,7.8-2.2,10.9
		l-0.2,0.6l-0.3,0.5c-0.2,0.4-0.4,0.7-0.6,1c-0.2,0.3-0.4,0.7-0.5,1c-0.2,0.3-0.4,0.6-0.6,0.9c-0.4,0.6-0.8,1.2-1.2,1.7
		s-0.9,1-1.2,1.4c-0.2,0.2-0.4,0.4-0.6,0.6c-0.2,0.2-0.4,0.4-0.6,0.6c-0.4,0.4-0.8,0.7-1.1,1c-0.7,0.6-1.3,1.1-1.8,1.5
		c-1,0.8-1.6,1.2-1.6,1.2s0.5-0.4,1.5-1.2c0.5-0.4,1.1-0.8,1.8-1.5c0.3-0.3,0.7-0.7,1.1-1c0.2-0.2,0.4-0.4,0.6-0.6
		c0.2-0.2,0.4-0.4,0.6-0.7c0.4-0.4,0.8-0.9,1.2-1.4s0.8-1.1,1.2-1.7c0.2-0.3,0.4-0.6,0.6-0.9c0.2-0.3,0.3-0.7,0.5-1s0.3-0.7,0.5-1
		l0.3-0.5l0.2-0.6c1.3-3,2-6.7,2-10.7c0.1-4-0.5-8.4-1.3-13c-0.9-4.6-2-9.3-3.3-14.2c-2.6-9.8-5.5-20.2-8.2-30.7
		c-1.3-5.2-2.6-10.5-3.8-15.7c-0.6-2.6-1.1-5.2-1.7-7.7c-0.5-2.6-1.1-5.1-1.6-7.6s-0.9-4.9-1.4-7.3c-0.4-2.4-0.8-4.8-1.2-7.1
		c-0.4-2.3-0.7-4.5-1.1-6.7c-0.3-2.2-0.7-4.3-0.9-6.3c-0.6-4-1-7.7-1.4-11c-0.4-3.3-0.7-6.1-0.9-8.5
		C172.8,233.7,172.5,231,172.5,231z"/>
	<path d="M172,301c0,0,0.7,3.5,1.9,9.6c0.6,3,1.3,6.7,2.1,11c0.8,4.2,1.7,9,2.5,14.3c0.9,5.2,1.8,10.9,2.6,17
		c0.8,6,1.6,12.4,2.1,19.1c0.5,6.6,0.8,13.5,0.6,20.6c-0.1,7-0.7,14.2-2,21.2c-1.4,7-3.4,14-6.6,20.3c-3.2,6.3-7.4,12-12.4,16.6
		c-0.6,0.6-1.3,1.1-1.9,1.7c-0.6,0.5-1.3,1.1-1.9,1.6c-1.3,1-2.7,1.9-4,2.8c-1.4,0.8-2.8,1.6-4.2,2.4c-1.4,0.7-2.7,1.5-4.1,2.2
		c-5.3,2.9-10.1,6-14.2,9.3c-2.1,1.6-3.9,3.4-5.6,5.1c-1.6,1.7-3.1,3.5-4.2,5.3c-2.3,3.6-3.3,7.3-3.2,10.4c0.1,3.1,1.2,5.3,2.1,6.7
		c0.9,1.4,1.6,2,1.6,2s-0.7-0.6-1.7-1.9c-0.9-1.4-2.2-3.6-2.4-6.8c-0.3-3.1,0.7-7,2.9-10.8c1.1-1.9,2.6-3.7,4.2-5.6
		c1.7-1.8,3.5-3.6,5.6-5.3c4.1-3.4,8.9-6.7,14.2-9.8c1.3-0.8,2.7-1.5,4-2.3s2.7-1.6,4-2.4c1.3-0.9,2.6-1.8,3.9-2.8
		c0.6-0.5,1.2-1,1.9-1.5c0.6-0.5,1.3-1,1.8-1.6c4.8-4.5,8.8-10,11.9-16.1c3.1-6.2,5-12.9,6.3-19.8s2-13.9,2.1-20.9
		c0.2-6.9,0-13.8-0.5-20.4c-0.9-13.2-2.5-25.5-4-36c-1.6-10.5-2.9-19.3-3.9-25.4C172.5,304.5,172,301,172,301z"/>
	<path d="M170,257.9c-0.5,4.2-0.7,8.7-0.7,13.4c0,23.9,5,53.1,5,78c0,17.8-2.6,33.4-11.2,43.3c-11.7,13.4-26.2,20.5-37.8,24.2
		c-5.8,1.9-10.9,2.9-14.5,3.5c-1.8,0.3-3.3,0.4-4.3,0.5c-0.5,0-0.9,0.1-1.1,0.1c-0.3,0-0.4,0-0.4,0l0,1c0,0,8.8-0.4,20.6-4.1
		c11.7-3.8,26.5-10.9,38.3-24.5c8.9-10.3,11.5-26.1,11.5-44c0-25-5-54.2-5-78c0-4.7,0.2-9.1,0.7-13.3L170,257.9L170,257.9z"/>
	<path d="M396,94c0,0,0.2,0.3,0.6,1c0.4,0.6,1,1.6,1.7,2.7c0.8,1.2,1.7,2.6,2.8,4.1c1.1,1.6,2.5,3.3,3.9,5.2
		c0.8,0.9,1.5,1.9,2.4,2.9c0.8,1,1.7,2,2.6,3s1.9,2,2.9,3s2.1,2,3.1,3.1c1.1,1,2.2,2,3.3,3c1.2,1,2.4,1.9,3.6,2.9s2.5,1.8,3.8,2.8
		c1.3,0.9,2.6,1.7,4,2.6c2.7,1.7,5.3,3.7,7.4,6.1c2.1,2.4,3.5,5.3,4.5,8.1c1,2.9,1.4,5.8,1.6,8.5c0.1,2.8,0,5.4-0.3,7.7
		c-0.6,4.8-1.8,8.6-2.7,11.2c-0.9,2.6-1.6,4.1-1.6,4.1s0.6-1.5,1.4-4.1s1.8-6.5,2.3-11.2c0.2-2.4,0.4-4.9,0.2-7.6
		c-0.2-2.7-0.7-5.5-1.7-8.3c-1-2.8-2.4-5.5-4.4-7.8c-2-2.4-4.4-4.2-7.2-5.9c-1.3-0.9-2.7-1.7-4-2.6c-1.3-1-2.6-1.9-3.8-2.8
		c-1.2-1-2.4-2-3.6-3c-1.1-1-2.3-2-3.4-3.1s-2.1-2.1-3.1-3.1c-1-1.1-1.9-2.1-2.8-3.1s-1.8-2-2.6-3c-0.8-1-1.6-2-2.3-2.9
		c-0.7-1-1.4-1.9-2-2.8c-0.6-0.9-1.2-1.7-1.8-2.5c-1.1-1.6-2-3-2.7-4.2C396.7,95.4,396,94,396,94z"/>
	<path d="M402.7,86.9c0,0,0.2,0.1,0.6,0.4c2.8,2,15.4,11.2,27.3,25.1c11.9,13.9,23,32.5,23,53.3c0,4.3-0.5,8.7-1.5,13.2
		c-2.9,12.2-4,22.5-4,31.5c0,14.3,2.9,25.6,6,37c3.2,11.4,6.7,22.8,8,37.6c0.5,5.3,0.7,10.3,0.7,15.3c0,37.7-13.2,64.9-29.1,83.9
		l0.8,0.6c16-19.1,29.3-46.6,29.3-84.5c0-4.9-0.2-10-0.7-15.3c-1.3-14.9-4.8-26.4-8-37.8c-3.2-11.4-6-22.5-6-36.7
		c0-9,1.1-19.1,4-31.3c1.1-4.6,1.6-9.1,1.6-13.5c0-22.5-12.9-42.4-25.7-56.7c-12.8-14.2-25.6-22.9-25.6-22.9L402.7,86.9L402.7,86.9z
		"/>
	<path d="M446.5,267c0,0,0.3,2.3,0.6,6.3c0.3,4,0.7,9.8,0.8,16.7c0.1,3.5,0.2,7.2,0.1,11.2c0,4-0.1,8.1-0.3,12.5
		c-0.2,4.3-0.5,8.8-1,13.3s-1.1,9.1-2,13.7c-0.9,4.5-2,9.1-3.5,13.4c-0.4,1.1-0.8,2.2-1.2,3.2c-0.5,1-0.9,2.1-1.4,3.1s-1,2-1.6,3
		c-0.6,0.9-1.2,1.9-1.7,2.8c-1.1,1.8-2.3,3.6-3.2,5.4c-0.4,0.9-0.9,1.8-1.3,2.7c-0.4,0.9-0.7,1.9-1,2.8c-0.2,0.5-0.4,0.9-0.5,1.4
		s-0.2,0.9-0.4,1.4c-0.2,0.9-0.5,1.8-0.7,2.7c-0.2,0.9-0.3,1.8-0.4,2.7c-0.1,0.4-0.2,0.9-0.2,1.3s-0.1,0.9-0.1,1.3
		c-0.3,3.4,0,6.5,0.3,9.3c0.4,2.7,1.1,5.1,1.8,7c0.7,1.9,1.3,3.3,1.8,4.3s0.8,1.4,0.8,1.4s-0.3-0.5-0.9-1.4s-1.3-2.3-2.1-4.2
		c-0.8-1.9-1.6-4.2-2.1-7s-1-6-0.7-9.5c0-0.4,0-0.9,0-1.3s0.1-0.9,0.2-1.3c0.1-0.9,0.2-1.8,0.4-2.8c0.2-0.9,0.4-1.9,0.7-2.8
		c0.1-0.5,0.2-1,0.3-1.4c0.1-0.5,0.3-0.9,0.5-1.4c0.3-0.9,0.7-1.9,1-2.9c0.4-1,0.9-1.9,1.3-2.9c0.8-2,2-3.7,3.1-5.6
		c0.6-0.9,1.1-1.8,1.7-2.8c0.6-0.9,1-1.9,1.5-2.9c0.9-2,1.7-4,2.5-6.1c1.4-4.2,2.5-8.7,3.4-13.1c0.9-4.5,1.5-9,2.1-13.5
		c0.5-4.5,0.9-8.9,1.2-13.2c0.6-8.6,0.8-16.6,0.8-23.5c0.1-6.9,0-12.6-0.1-16.7C446.6,269.3,446.5,267,446.5,267z"/>
	<path d="M389.5,370.8c0,0-0.4,1.1-1,2.9s-1.5,4.5-2.5,7.7c-0.5,1.6-1,3.3-1.6,5.1c-0.6,1.8-1.1,3.8-1.6,5.8c-0.6,2-1.1,4.1-1.6,6.2
		s-1,4.3-1.4,6.5s-0.8,4.3-1.1,6.5c-0.3,2.2-0.5,4.3-0.7,6.3c0,1-0.1,2-0.1,3s0,2,0,2.9c0.1,1.9,0.2,3.7,0.4,5.3
		c0.2,1.6,0.6,3.1,0.9,4.4c0.2,0.6,0.4,1.2,0.6,1.8c0.2,0.5,0.5,1,0.7,1.5c0.4,0.9,0.8,1.5,1.1,2c0.3,0.5,0.4,0.7,0.4,0.7
		s-0.2-0.2-0.5-0.6s-0.9-1-1.3-1.9c-0.2-0.4-0.6-0.9-0.8-1.4c-0.2-0.5-0.5-1.1-0.8-1.8c-0.3-0.6-0.5-1.3-0.7-2.1
		c-0.3-0.7-0.4-1.5-0.6-2.4c-0.2-0.8-0.3-1.7-0.5-2.6s-0.2-1.8-0.3-2.8c-0.1-1-0.1-2-0.2-3c0-1,0-2.1,0-3.1c0.1-2.1,0.2-4.3,0.5-6.5
		s0.6-4.4,1.1-6.6c0.4-2.2,1-4.4,1.5-6.5s1.2-4.2,1.8-6.2c0.6-2,1.3-3.9,1.9-5.7c0.6-1.8,1.3-3.5,1.9-5.1c1.2-3.1,2.4-5.7,3.2-7.4
		c0.4-0.9,0.8-1.6,1-2C389.4,371.1,389.5,370.8,389.5,370.8z"/>
	<path d="M260.5,326c0,0,0.1,0.5,0.3,1.3c0.2,0.8,0.4,2.1,0.8,3.7s0.8,3.5,1.4,5.6c0.6,2.2,1.3,4.6,2.1,7.2c0.8,2.6,1.8,5.4,2.9,8.4
		c1.1,2.9,2.3,6,3.7,9.2c1.3,3.2,2.9,6.4,4.5,9.6s3.4,6.4,5.2,9.6c3.7,6.4,7.4,12.7,10.6,18.8c1.6,3.1,3,6.1,4.2,9.1s2,5.9,2.4,8.7
		c0.4,2.8,0.2,5.4-0.6,7.6c-0.8,2.2-2.1,3.8-3.2,4.9c-1.2,1.1-2.3,1.8-3,2.3c-0.8,0.4-1.2,0.7-1.2,0.7v-0.1c0,0,0.4-0.2,1.1-0.7
		s1.7-1.2,2.8-2.4c1.1-1.1,2.2-2.7,2.9-4.8c0.7-2.1,0.8-4.6,0.4-7.3c-0.4-2.7-1.3-5.5-2.5-8.4s-2.6-5.9-4.2-9
		c-1.5-3.1-3.2-6.2-5-9.4c-1.7-3.2-3.5-6.4-5.2-9.7c-1.7-3.3-3.4-6.5-5-9.8c-1.6-3.2-3.2-6.4-4.7-9.5s-2.9-6.2-4-9.1
		c-1.2-2.9-2.1-5.8-2.9-8.4s-1.5-5.1-2-7.3c-0.5-2.2-0.9-4.1-1.2-5.7c-0.2-1.6-0.4-2.8-0.5-3.7C260.5,326.5,260.5,326,260.5,326z"/>
	<path d="M250,347.5c0,0,0.1,2.1,0.4,5.7c0.1,1.8,0.3,4,0.6,6.5s0.7,5.3,1.1,8.4c0.5,3.1,1.1,6.4,1.7,9.9c0.4,1.7,0.7,3.5,1.2,5.3
		s0.9,3.6,1.4,5.5c0.6,1.9,1.1,3.7,1.7,5.6c0.7,1.9,1.3,3.8,2,5.7c0.8,1.9,1.5,3.8,2.4,5.6l1.4,2.7c0.5,0.9,0.9,1.9,1.4,2.7
		c2,3.5,4.5,7,5.9,11c1.5,4,1.8,8.2,1.5,12.2s-1.3,7.7-2.7,11.1c-1.3,3.4-3,6.4-4.6,9.1c-3.3,5.3-6.8,9.2-9.3,11.9
		c-2.5,2.6-4.1,4-4.1,4s1.5-1.5,3.8-4.2c2.4-2.8,5.5-6.9,8.6-12.2c1.5-2.7,3-5.7,4.2-9s2.1-6.9,2.3-10.7c0.2-3.8-0.2-7.7-1.6-11.4
		c-1.3-3.7-3.7-7-5.8-10.7c-0.6-0.9-1-1.9-1.5-2.8l-1.4-2.8c-0.9-1.9-1.6-3.9-2.4-5.8c-0.7-1.9-1.3-3.9-2-5.8
		c-0.5-1.9-1.1-3.9-1.6-5.7c-0.5-1.9-0.9-3.8-1.3-5.6c-0.4-1.8-0.7-3.7-1-5.4c-0.3-1.8-0.6-3.5-0.8-5.2s-0.4-3.3-0.6-4.8
		c-0.3-3.1-0.6-6-0.7-8.5c-0.2-2.5-0.2-4.7-0.3-6.6c-0.1-1.8,0-3.2,0-4.2C250,348,250,347.5,250,347.5z"/>
	<path d="M237.6,153.6c0,0-0.5,0.6-1.4,1.6c-0.5,0.5-1.1,1.1-1.7,1.9c-0.6,0.8-1.4,1.7-2.2,2.7s-1.6,2.2-2.6,3.4
		c-0.4,0.6-0.9,1.3-1.4,2c-0.5,0.7-1,1.4-1.4,2.2c-1.9,3-3.8,6.6-5.7,10.6s-3.6,8.5-5.1,13.3c-1.5,4.8-2.9,10-3.9,15.4
		s-1.7,11.2-1.8,17c-0.1,2.9,0,5.9,0.2,8.8s0.5,5.9,1,8.8c0.5,2.9,1.1,5.8,2.1,8.5c0.5,1.3,1.2,2.7,1.7,4c0.6,1.4,1.1,2.7,1.7,4.1
		c2.1,5.5,3.9,11,5.3,16.4c1.4,5.4,2.5,10.8,3.1,15.9c0.7,5.1,0.9,10,0.7,14.5c-0.1,4.5-0.6,8.6-1.4,12.2c-0.8,3.6-1.8,6.6-2.8,9
		s-2,4.2-2.8,5.4c-0.8,1.2-1.2,1.8-1.2,1.8l-0.2-0.1c0,0,0.3-0.7,1-1.9c0.6-1.2,1.5-3.1,2.3-5.5s1.7-5.5,2.2-9
		c0.6-3.5,0.9-7.6,0.9-12s-0.4-9.2-1.1-14.2c-0.4-2.5-0.8-5.1-1.3-7.7s-1.1-5.3-1.8-7.9c-1.3-5.4-3-10.9-4.9-16.3
		c-0.5-1.4-1-2.7-1.5-4.1c-0.5-1.4-1.1-2.7-1.6-4.2c-0.9-2.9-1.4-5.9-1.8-8.8c-0.4-3-0.6-5.9-0.7-8.9c-0.1-3-0.1-5.9,0-8.8
		c0.2-5.9,0.7-11.6,1.4-17.1c0.8-5.5,1.8-10.9,3.3-15.8c1.5-4.9,3.3-9.5,5.3-13.5s4-7.6,6.1-10.6c0.5-0.8,1-1.5,1.5-2.2
		c0.5-0.7,1-1.3,1.5-2c1-1.2,1.9-2.3,2.8-3.3c0.9-0.9,1.7-1.8,2.4-2.5c0.7-0.7,1.3-1.3,1.9-1.8c1-0.9,1.6-1.4,1.6-1.4L237.6,153.6z"
		/>
	<path d="M300,485.5c0,0-0.6,4-1.1,10c-0.1,1.5-0.2,3.1-0.3,4.9c-0.1,1.7-0.1,3.5-0.1,5.4s0,3.8,0.1,5.8s0.2,4,0.5,5.9
		c0.1,1,0.2,2,0.4,3c0.2,1,0.3,2,0.5,2.9c0.4,1.9,0.8,3.8,1.3,5.6c0.2,0.9,0.5,1.8,0.8,2.6c0.3,0.9,0.5,1.7,0.9,2.5
		c0.3,0.8,0.6,1.6,0.9,2.3s0.6,1.5,1,2.1c0.3,0.7,0.7,1.3,1,1.9c0.3,0.6,0.7,1.2,1,1.7c0.6,1,1.2,1.9,1.7,2.7
		c1.1,1.4,1.7,2.2,1.7,2.2s-0.7-0.7-2-2c-0.6-0.7-1.3-1.5-2-2.5c-0.4-0.5-0.8-1-1.2-1.6c-0.4-0.6-0.8-1.2-1.2-1.9
		c-0.8-1.3-1.6-2.8-2.3-4.4c-0.4-0.8-0.7-1.6-1-2.5c-0.4-0.9-0.6-1.8-0.9-2.7c-0.6-1.8-1.1-3.8-1.5-5.7c-0.2-1-0.4-2-0.5-3
		s-0.3-2-0.4-3c-0.2-2-0.4-4.1-0.4-6.1c-0.1-2,0-4,0-5.9c0.2-3.8,0.6-7.4,1.1-10.4C298.7,489.4,300,485.5,300,485.5z"/>
	<path d="M213.2,356.3c-16,30.3,10.7,59.8,30.4,80c11.3,11.6,22.8,23.7,29,38.9c7,17.2,5,36,0.8,53.6c0,0.2,0.9,0.5,0.9,0.4
		c4-16.5,6-34.2,0.4-50.5c-5-14.4-15.1-26.3-25.5-37.1c-21-22-51.9-51.6-35.1-85.1C214.2,356.5,213.3,356.1,213.2,356.3z"/>
	<path d="M245.2,96c-15.7,13-24.7,35.3-26.9,55.1c-1.2,10.3-0.6,20.7,1.8,30.8c2.8,11.7,8.2,22.5,12.4,33.7c0.2,0.5,1.7,0.7,1.8,0.8
		c-4.3-11.6-10-22.9-12.7-35.1c-2.3-10.1-2.6-20.6-1.3-30.8c2.8-21.2,12.7-38.5,26.9-54C247.1,96.5,245.6,95.7,245.2,96z"/>
	<path d="M300.1,430.5c3.2,8.2,2.9,19.1,2.1,27.8c-0.7,8.9-2.8,17.5-6,25.8c-0.2,0.5,3.4,2.1,3.6,1.7c3.3-8.6,5.4-17.5,6.1-26.7
		c0.7-9.5-0.9-18.4-1.9-27.7C303.9,430.4,300.2,430.8,300.1,430.5z"/>
	<path d="M360.4,414.1c-2.2,6.9-2.8,13,2.4,18.6c3.9,4.2,9,7.2,13.8,10.3c0.2,0.1,1,0.4,0.5,0.1c-5.4-3.4-11.8-7-15.4-12.3
		c-3.5-5.1-2.1-11-0.4-16.4C361.4,414.3,360.5,414,360.4,414.1z"/>
	<path d="M391.6,505.6c2.9-16,4.6-32.3-6.4-45.7c-3.8-4.7-8.5-8.4-13.6-11.6c-3.8-2.4-8.2-4.7-10.8-8.6c-2.8-4.3-2.5-9.2-1.6-13.9
		c0-0.2-0.9-0.5-0.9-0.4c-1.3,7.3-0.4,13.2,5.4,18s12.6,7.8,18,13.3c13.2,13.6,12.3,31.3,8.9,48.7
		C390.6,505.5,391.6,505.8,391.6,505.6z"/>
	<path d="M284.7,102.8c-17.9,29.8-34.9,61.9-43.4,95.8c-4.4,17.5-6,35.3-4.8,53.3c1,15.6,8.4,38.4-6.7,49.6c0.1,0,1.4,1.2,1.8,0.9
		c15.2-11.2,7.7-34,6.7-49.6c-1.1-18,0.4-35.8,4.8-53.3c8.7-34.6,26.7-65.1,43.5-96.2C286.6,103.2,284.9,102.4,284.7,102.8z"/>
	<path d="M415.3,68.9c11.4,7.3,20.8,18.7,29.5,28.9c8.1,9.5,14.3,19.9,16.9,32.2c5.2,23.8,0,49.4-2.7,73.2c0,0.2,0.9,0.4,0.9,0.4
		c2.8-24.8,8.4-51.9,1.9-76.6c-3.3-12.5-10.5-22.6-19-32.1c-8.3-9.3-16.9-18.1-26.7-25.9C416,68.9,415.2,68.8,415.3,68.9z"/>
	<path d="M390.5,393.7c-2,7.8-4,15.8-2,23.8c1.4,5.9,4.6,11.3,8.7,15.8c7.4,8.1,17.7,12.8,28,16c0.4,0.1-0.4-0.4-0.6-0.4
		c-13.2-4-26.2-11.1-32.6-23.9c-5.1-10.2-3.3-20.5-0.5-31.1C391.5,393.8,390.6,393.6,390.5,393.7z"/>
	<path d="M427.1,421.1c-2.1,12.9-4.1,26.8,4.8,37.7c0.2,0.2,0.8,0.3,0.9,0.4c-8.9-10.8-7-25.1-4.7-37.8
		C428,421.2,427.1,421,427.1,421.1z"/>
	<path d="M443.3,201.5c0,0,0.2,0.8,0.6,2.3s0.9,3.7,1.5,6.6c0.6,2.8,1.2,6.3,1.9,10.3c0.6,4,1.2,8.5,1.6,13.5s0.7,10.4,0.6,16.1
		s-0.6,11.8-1.6,17.9c-1,6.2-2.4,12.5-4.5,18.7s-5.2,12.2-9.3,17.5c-2,2.6-3.8,5.4-5.4,8.2c-1.6,2.8-3.1,5.7-4.5,8.7
		c-2.7,5.9-5,11.9-6.8,17.8c-1.9,5.9-3.3,11.7-4.5,17.2c-1.1,5.5-2,10.8-2.4,15.7c-0.4,4.9-0.4,9.4-0.1,13.4s1.2,7.4,2.3,10
		c1.1,2.6,2.6,4.4,3.7,5.4c0.6,0.5,1.1,0.8,1.4,1s0.5,0.3,0.5,0.3l-0.1,0.2c0,0-0.2-0.1-0.6-0.3c-0.4-0.2-0.9-0.5-1.5-1
		c-1.3-0.9-2.9-2.7-4.2-5.3c-1.3-2.6-2.3-6.1-2.8-10.2c-0.6-4.1-0.7-8.7-0.4-13.7c0.3-5,1-10.4,2.1-16s2.6-11.5,4.6-17.4
		s4.3-12,7.2-17.9c2.9-5.9,6.3-11.7,10.6-16.8c2.1-2.5,4-5.2,5.6-8.1s2.9-5.9,4-8.9l0.8-2.3c0.2-0.8,0.4-1.6,0.7-2.3
		c0.5-1.5,0.8-3.1,1.1-4.7c0.7-3.1,1.1-6.2,1.5-9.3c0.7-6.2,0.8-12.1,0.9-17.8c0-5.7-0.2-11-0.5-16c-0.3-4.9-0.8-9.5-1.2-13.5
		c-0.4-4-1-7.5-1.4-10.3c-0.4-2.9-0.8-5.1-1.1-6.6c-0.3-1.5-0.4-2.3-0.4-2.3L443.3,201.5z"/>
	<path d="M196,437c0,0-0.2,0.3-0.5,0.9s-0.5,1.5-0.7,2.6c0,0.6-0.2,1.2-0.1,1.9c0,0.4,0,0.7,0,1.1c0.1,0.4,0.1,0.8,0.2,1.2
		c0.2,1.6,0.8,3.4,1.5,5.2c0.4,0.9,0.9,1.9,1.3,2.8c0.5,0.9,1.1,1.9,1.7,2.9c1.3,1.9,2.7,3.9,4.3,5.9c0.4,0.5,0.8,1,1.2,1.5
		s0.9,1,1.3,1.4c0.9,1,1.7,2,2.7,2.9c1.9,1.9,3.8,3.8,5.7,5.7c1,1,1.9,1.9,2.9,2.9c0.9,1,1.8,2,2.8,3c0.9,1,1.7,2.1,2.6,3.1
		c0.4,0.5,0.8,1,1.2,1.6c0.4,0.5,0.8,1.1,1.1,1.6c0.4,0.5,0.7,1.1,1.1,1.6c0.4,0.5,0.7,1.1,1,1.6s0.6,1.1,1,1.6
		c0.3,0.5,0.5,1.1,0.8,1.6s0.5,1.1,0.8,1.6c0.2,0.5,0.4,1.1,0.6,1.6c0.4,1,0.7,2.1,0.9,3.1c0.2,0.5,0.2,1,0.3,1.5
		c0,0.5,0.2,1,0.1,1.5c0,1,0,1.9-0.2,2.7c-0.1,0.9-0.4,1.6-0.6,2.3c-0.3,0.7-0.5,1.3-0.8,1.8c-0.6,1.1-1.2,1.8-1.6,2.3
		c-0.4,0.5-0.6,0.7-0.6,0.7s0.2-0.3,0.5-0.8s0.8-1.3,1.3-2.4c0.2-0.5,0.4-1.2,0.6-1.8c0.1-0.7,0.3-1.4,0.3-2.2
		c0.2-1.6-0.1-3.4-0.6-5.3c-0.3-0.9-0.6-1.9-1.1-2.9c-0.2-0.5-0.4-1-0.7-1.5s-0.5-1-0.8-1.5s-0.5-1-0.9-1.5c-0.3-0.5-0.7-1-1-1.5
		s-0.7-1-1-1.5c-0.4-0.5-0.7-1-1.1-1.5c-0.4-0.5-0.8-1-1.1-1.5c-0.4-0.5-0.8-1-1.2-1.5c-0.9-1-1.7-2-2.6-3c-0.9-1-1.8-2-2.7-2.9
		c-0.9-1-1.9-1.9-2.9-2.9c-1.9-1.9-3.8-3.9-5.7-5.8c-0.9-1-1.8-2-2.7-3c-0.4-0.5-0.9-1-1.3-1.5c-0.4-0.5-0.8-1-1.2-1.6
		c-1.6-2-2.9-4.2-4.2-6.2c-0.5-1.1-1.1-2.1-1.6-3.1c-0.4-1-0.9-2-1.2-3s-0.6-1.9-0.8-2.9c-0.1-0.9-0.4-1.8-0.4-2.7
		c0-0.4,0-0.8-0.1-1.2c0-0.4,0-0.8,0.1-1.1c0-0.7,0.2-1.4,0.3-2c0.3-1.2,0.7-2.1,1-2.6C195.8,437.3,196,437,196,437z"/>
</g>
<path class="st12" d="M389.9,256.1c0,0,6.3,6.7,9.6,10c3.3,3.3,12.9,8.7,14.8,8.7c3-0.1,10.3,4-2.3,1.3
	c-10.9-2.3-19.4-13.2-20.6-14.9S389.9,256.1,389.9,256.1z"/>
<path class="st12" d="M343.2,247.1c0,0-4.2,16.3-11.7,21c0,0-4.5,4-13.2,6.6c-1.6,0.5-1.6,1.8-0.1,2.2s12-2.1,17.4-6.5
	c4.3-3.5,8.7-10.1,8.7-10.1L343.2,247.1z"/>
</svg>
