<?xml version="1.0" encoding="utf-8"?>
<!-- Generator: Adobe Illustrator 24.1.2, SVG Export Plug-In . SVG Version: 6.00 Build 0)  -->
<svg version="1.1" id="Layer_1" xmlns="http://www.w3.org/2000/svg" xmlns:xlink="http://www.w3.org/1999/xlink" x="0px" y="0px"
	 viewBox="0 0 200 100" style="enable-background:new 0 0 200 100;" xml:space="preserve">
<style type="text/css">
	.st0{fill:#FFFFFF;}
</style>
<g>
	<path class="st0" d="M71.56,57.38H69.5v3.94h2.06c1.56,0,2.3-0.74,2.3-1.97C73.86,58.12,73.12,57.38,71.56,57.38z"/>
	<path class="st0" d="M121.31,57.21c-2.09,0-3.77,1.58-3.77,4.2s1.68,4.2,3.77,4.2s3.77-1.58,3.77-4.2S123.4,57.21,121.31,57.21z"/>
	<path class="st0" d="M52.29,57.21c-2.09,0-3.77,1.58-3.77,4.2s1.68,4.2,3.77,4.2c2.09,0,3.77-1.58,3.77-4.2
		S54.38,57.21,52.29,57.21z"/>
	<path class="st0" d="M33.38,57.38h-2.06v3.94h2.06c1.56,0,2.3-0.74,2.3-1.97C35.68,58.12,34.94,57.38,33.38,57.38z"/>
	<path class="st0" d="M164.87,57.21c-2.09,0-3.77,1.58-3.77,4.2s1.68,4.2,3.77,4.2s3.77-1.58,3.77-4.2S166.96,57.21,164.87,57.21z"
		/>
	<path class="st0" d="M0,0v100h200V0H0z M113.58,29.81h3.1l3.65,5.97l3.55-5.97H127l0.03,11.2h-3.44l-0.03-5.11l-2.43,4.1h-1.66
		l-2.43-3.92v4.93h-3.44V29.81z M78.88,29.81h9.11v2.85h-5.39v1.31h4.74v2.72h-4.74v1.47h5.6v2.85h-9.32V29.81z M73.28,29.81h3.78
		v11.2h-3.78V29.81z M63.79,29.81l2.67,6.55l2.74-6.55h3.71l-4.74,11.2h-3.71l-4.74-11.2H63.79z M33.74,65.68h-2.42v4.13h-5.66
		v-16.8h8.09c4.68,0,7.66,2.45,7.66,6.34S38.42,65.68,33.74,65.68z M52.29,70.19c-5.47,0-9.48-3.7-9.48-8.78
		c0-5.09,4.01-8.79,9.48-8.79c5.47,0,9.48,3.7,9.48,8.79C61.77,66.5,57.76,70.19,52.29,70.19z M73.89,69.81l-2.86-4.22H69.5v4.22
		h-5.66v-16.8h8.09c4.68,0,7.66,2.45,7.66,6.34c0,2.42-1.15,4.25-3.17,5.28l3.53,5.18H73.89z M95.7,57.4h-4.92v12.41h-5.66V57.4
		H80.2v-4.39H95.7V57.4z M92.32,41.01l-3.59-11.2h3.89l1.95,6.37l2.06-6.37h3.47l1.95,6.45l2.06-6.45h3.59l-3.59,11.2h-4.05
		l-1.81-5.99l-1.9,5.99H92.32z M110.82,57.28h-7.99v2.88h7.01v4.27h-7.01v5.38h-5.66v-16.8h13.66V57.28z M121.31,70.19
		c-5.47,0-9.48-3.7-9.48-8.78c0-5.09,4.01-8.79,9.48-8.79s9.48,3.7,9.48,8.79C130.79,66.5,126.78,70.19,121.31,70.19z M127.5,29.81
		h3.99l2.29,3.87l2.3-3.87h3.65l-4.22,7.14v4.07h-3.78V36.9L127.5,29.81z M146.1,69.81h-13.25v-16.8h5.66v12.41h7.58V69.81z
		 M153.33,69.81h-5.66v-16.8h5.66V69.81z M164.87,70.19c-5.47,0-9.48-3.7-9.48-8.78c0-5.09,4.01-8.79,9.48-8.79s9.48,3.7,9.48,8.79
		C174.35,66.5,170.34,70.19,164.87,70.19z"/>
</g>
</svg>
