<?xml version="1.0" encoding="utf-8"?>
<!-- Generator: Adobe Illustrator 24.1.2, SVG Export Plug-In . SVG Version: 6.00 Build 0)  -->
<svg version="1.1" id="Layer_1" xmlns="http://www.w3.org/2000/svg" xmlns:xlink="http://www.w3.org/1999/xlink" x="0px" y="0px"
	 viewBox="0 0 200 100" style="enable-background:new 0 0 200 100;" xml:space="preserve">
<style type="text/css">
	.st0{fill:#23A566;}
	.st1{fill:#1C8F5A;}
	.st2{fill:#8ED1B1;}
	.st3{fill-rule:evenodd;clip-rule:evenodd;fill:#FFFFFF;}
</style>
<g>
	<path class="st0" d="M189,161.04c0,7.99-6.48,14.48-14.48,14.48H23.48c-7.99,0-14.48-6.48-14.48-14.48v-221.5
		c0-7.99,6.48-14.48,14.48-14.48h97.12L189-4.88V161.04L189,161.04z"/>
	<path class="st1" d="M128.14-6.65L189,51.5l-0.18-56.46l-0.1,0h-53.77c-2.45,0-4.76-0.61-6.78-1.68L128.14-6.65L128.14-6.65z"/>
	<path class="st2" d="M189-4.97h-54.05c-7.99,0-14.48-6.48-14.48-14.48V-75L189-4.97L189-4.97z"/>
	<path class="st3" d="M145.81,129.19H52.19V48.12h93.62V129.19L145.81,129.19z M104.79,59.7v14.48h29.44V59.7H104.79L104.79,59.7z
		 M104.79,82.86v13.51h29.44V82.86H104.79L104.79,82.86z M104.79,105.06v12.55h29.44v-12.55H104.79L104.79,105.06z M93.21,117.61
		v-12.55H63.77v12.55H93.21L93.21,117.61z M93.21,96.37V82.86H63.77v13.51H93.21L93.21,96.37z M93.21,74.18V59.7H63.77v14.48H93.21
		L93.21,74.18z"/>
</g>
</svg>
